<?xml version="1.0" encoding="UTF-8"?>
<svg id="_레이어_2" data-name="레이어 2" xmlns="http://www.w3.org/2000/svg" viewBox="0 0 122.12 90.72">
  <defs>
    <style>
      .cls-1, .cls-2, .cls-3, .cls-4 {
        fill-rule: evenodd;
      }

      .cls-1, .cls-5 {
        fill: #8dc63f;
      }

      .cls-6 {
        stroke: #88bf43;
        stroke-width: .61px;
      }

      .cls-6, .cls-7 {
        fill: none;
      }

      .cls-8 {
        fill: #221e1f;
      }

      .cls-2, .cls-9 {
        fill: #fff;
      }

      .cls-9 {
        stroke-width: .4px;
      }

      .cls-9, .cls-7 {
        stroke: #221e1f;
      }

      .cls-3 {
        fill: #378840;
      }

      .cls-7 {
        stroke-linecap: round;
        stroke-linejoin: round;
        stroke-width: .31px;
      }

      .cls-10 {
        fill: #388840;
      }

      .cls-4 {
        fill: #88bf43;
      }
    </style>
  </defs>
  <g>
    <path class="cls-2" d="M116.58,37.61c0,20.6-25.62,37.3-57.22,37.3S2.14,58.21,2.14,37.61,27.76.31,59.36.31s57.22,16.7,57.22,37.3"/>
    <path class="cls-6" d="M116.58,37.61c0,20.6-25.62,37.3-57.22,37.3S2.14,58.21,2.14,37.61,27.76.31,59.36.31s57.22,16.7,57.22,37.3Z"/>
    <path class="cls-1" d="M79.35,29.66c1.45,0,2.61-1.14,2.61-2.55s-1.17-2.55-2.61-2.55-2.61,1.15-2.61,2.55,1.18,2.55,2.61,2.55"/>
    <path class="cls-1" d="M87.65,34.74c.55.82,1.08,1.6,1.51,2.25,2.29,1.1,3.89,3.43,3.89,6.14,0,3.76-3.06,6.81-6.81,6.81s-6.81-3.06-6.81-6.81c0-.14,0-.28.02-.42h-.36c-.07.11-.58.94-1.21,1.97.73,3.96,4.2,6.96,8.37,6.96,4.7,0,8.51-3.82,8.51-8.52,0-4.22-3.08-7.72-7.1-8.39"/>
    <path class="cls-1" d="M74.85,48.9l4.03-6.55h8.73c1.01,0,3.48-1.72,2.22-3.7,0,0-5.5-8.23-5.96-8.69-.46-.46-1.89-.88-3.15-.04-.99.66-3.06,5.33-3.06,5.33,0,0-2.35.04-3.07,0-.71-.04-.92,2.39-.04,2.39h4.28l1.6-2.77,3.32,5.08h-6.76l-5.29,8.95c-.3.55-.25,1.33.79,1.33s1.66-.45,2.36-1.33"/>
    <rect class="cls-5" x="71.69" y="36.34" width="7.61" height="2.11"/>
    <polygon class="cls-1" points="72.54 36.45 71.72 37.03 67.28 30.7 68.11 30.12 72.54 36.45"/>
    <path class="cls-4" d="M36.11,57.27c6.7,2.52,14.95,4,23.74,4,23.19,0,42.02-10.21,42.02-22.88,0-6.46-5.96-14.89-21.16-14.89-11.01,0-20.61,4.86-20.61,10.83,0,1.04.61,2.21,1.42,3.01,1.23,1.42,1.6,3.14,1.6,4.74,0,7.32-10.89,13.23-24.3,13.23-8.86,0-16.98-2.46-20.98-6.46-3.2-3.2-4.25-6.83-4.25-10.46,0-13.96,20.73-25.28,46.26-25.28s46.32,11.32,46.32,25.28-20.73,25.29-46.32,25.29c-10.09,0-19.44-1.79-27.01-4.74l3.26-1.66Z"/>
    <path class="cls-3" d="M35.8,55.2c6.71,2.52,14.95,4,23.74,4,23.19,0,42.02-10.21,42.02-22.89,0-6.46-5.97-14.88-21.16-14.88-11.01,0-20.61,4.86-20.61,10.83,0,1.04.62,2.21,1.42,3.01,1.23,1.42,1.6,3.14,1.6,4.74,0,7.32-10.89,13.23-24.3,13.23-8.86,0-16.98-2.46-20.98-6.46-3.2-3.2-4.24-6.83-4.24-10.46,0-13.96,20.73-25.28,46.26-25.28s46.32,11.32,46.32,25.28-20.73,25.29-46.32,25.29c-10.09,0-19.44-1.78-27.01-4.73l3.26-1.66Z"/>
  </g>
  <path class="cls-10" d="M22.69,15.58c-.43-1.06-.84-1.8-1.2-2.41l-2.53,1.52-.46-.78,3.49-2.09.33.55c.39.66.89,1.48,1.37,2.72l-1,.49ZM22.67,16.75c.64-.41,1.28-.85,1.85-1.3l.47.67c-1.23,1.06-2.73,2-3.91,2.71l-.57-.75c.37-.22.79-.47,1.21-.73l-1.2-2.01.96-.57,1.18,1.98ZM26.17,13.22l-.91.55,1.94,3.25-.97.58-4.07-6.8.97-.58,1.64,2.74.91-.55.49.81Z"/>
  <path class="cls-10" d="M31.66,8.23l-4.34,1.67-.32-.83,1.63-.63-.27-.69,1.07-.41.27.69,1.64-.63.32.83ZM30.63,12.02c-1.06.41-2.02.14-2.33-.67-.31-.8.23-1.65,1.29-2.05,1.06-.41,2.02-.14,2.33.66.31.81-.22,1.65-1.29,2.06M30.32,11.22c.47-.18.73-.49.58-.87-.14-.37-.54-.43-1.01-.25-.48.19-.73.49-.59.86.14.38.54.44,1.02.25M29.54,13.01l4.92-1.89.95,2.47-1.06.41-.62-1.61-3.86,1.48-.33-.85ZM34.6,8.59l-.98.37.71,1.86-1.06.41-1.78-4.63,1.06-.41.73,1.9.98-.37.34.88Z"/>
  <path class="cls-10" d="M40.5,4.84c.55,2.36.22,4.47-2.2,6.44l-.78-.74c1.74-1.41,2.31-2.82,2.06-4.56l-2.56.6-.21-.88,3.69-.87ZM42.6,3.49l1.82,7.72-1.11.26-1.81-7.72,1.11-.26Z"/>
  <path class="cls-10" d="M50.46,6.41l.06.5,2.13-.24.23,2.04-4.3.49.05.44,4.5-.51.1.85-5.62.64-.24-2.07,4.3-.49-.05-.43-4.31.49-.1-.84,2.16-.25-.06-.5-2.98.34-.1-.89,7.09-.81.1.89-2.99.34ZM52.59,4.94c-1.37,0-2.4-.39-2.98-1.06-.41.77-1.34,1.4-2.67,1.7l-.46-.8c1.74-.37,2.51-1.27,2.42-2.03l-.02-.14,1.16-.13.02.15c.09.76,1.03,1.46,2.81,1.43l-.28.89Z"/>
  <path class="cls-10" d="M59.97,6.41c-.86-.28-1.46-.83-1.81-1.52-.34.8-.96,1.46-1.87,1.77l-.58-.89c1.25-.45,1.81-1.46,1.84-2.45h-1.56s0-.9,0-.9l4.25-.04v.91s-1.53.01-1.53.01c.04.91.6,1.83,1.8,2.21l-.54.89ZM62.42,8.3c0,.96-1.02,1.53-2.69,1.55-1.68.02-2.72-.54-2.72-1.5,0-.96,1.02-1.53,2.7-1.55,1.67-.02,2.71.54,2.72,1.5M61.28,8.31c0-.45-.54-.66-1.57-.65-1.04,0-1.58.23-1.57.68,0,.45.55.66,1.58.65,1.03-.01,1.57-.23,1.56-.68M61.21,3.81l-.02-1.91h1.13s.04,4.71.04,4.71h-1.13s-.02-1.87-.02-1.87h-1.19s0-.91,0-.91h1.18Z"/>
  <path class="cls-10" d="M72.11,8.79l-.09.91-7.12-.72.09-.92,2.98.3.15-1.45-2.23-.22.42-4.12,1.12.11-.12,1.23,3.36.34.12-1.23,1.11.11-.42,4.12-2.23-.22-.15,1.45,3.01.3ZM67.1,5.91l3.36.34.11-1.1-3.36-.34-.11,1.1Z"/>
  <path class="cls-10" d="M81.55,8.69l-.19.87-6.98-1.54.19-.87,2.93.65.1-.48-2.06-.45.73-3.31,5.31,1.17-.19.84-4.21-.93-.09.4,4.04.89-.18.81-4.04-.89-.09.42,4.27.94-.19.84-2.21-.48-.11.48,2.94.65ZM80.19,10.99c-.18.82-1.26,1.05-2.96.68-1.69-.37-2.58-1.03-2.39-1.86.19-.83,1.26-1.05,2.95-.68,1.7.37,2.59,1.03,2.4,1.86M79.08,10.74c.07-.32-.4-.56-1.47-.8-1.06-.23-1.59-.21-1.66.11-.07.32.39.57,1.46.8,1.07.24,1.6.2,1.67-.12"/>
  <path class="cls-10" d="M89.21,14.28l-.31.85-5.13-1.87.88-2.4,1.06.39-.57,1.55,4.06,1.48ZM87.65,11.26c-.72-.58-1.08-1.34-1.15-2.15-.61.63-1.41,1.02-2.39,1.01l-.23-1.04c1.38.03,2.3-.82,2.66-1.8l.27-.73,1.08.4-.27.73c-.36.98-.19,2.12.88,2.95l-.85.65ZM89.4,13.17l-1.07-.39,1.98-5.42,1.07.39-1.98,5.42Z"/>
  <path class="cls-10" d="M98.27,17.49l-2.64-1.5-1.22,2.15-.98-.56,1.22-2.15-2.6-1.47.45-.79,6.22,3.53-.45.79ZM98.34,15.63l-4.78-2.71,1.73-3.05.98.55-.45.79,2.83,1.61.45-.79.97.55-1.73,3.05ZM98.22,13.58l-2.83-1.61-.4.71,2.83,1.61.4-.71Z"/>
  <polygon class="cls-2" points="37.61 44.83 33.85 44.83 33.32 32.49 25.36 44.83 21.6 44.83 21.57 24.5 26.26 24.5 25.97 37.32 34.04 24.5 37.41 24.5 37.76 37.32 45.22 24.5 49.92 24.5 37.61 44.83"/>
  <path class="cls-2" d="M52.99,44.99l.07-3.61h-5.68l-1.99,3.61h-5.44l12.26-20.39h5.37l.86,20.39h-5.45ZM53.34,30.61l-4.18,7.42h4.1l.09-7.42Z"/>
  <g>
    <path class="cls-9" d="M2.61,61.54l-2.26-2.82c-.06-.07-.1-.14-.12-.19-.02-.06-.03-.11-.02-.16,0-.05.03-.1.08-.15.04-.05.1-.11.18-.17l.93-.74c.07-.06.14-.05.19.02l.41.51c.06.07.05.14-.02.2l-.63.5c-.05.04-.06.09-.02.14l1.91,2.38s.04.06.04.09c0,.03-.01.07-.05.1l-.41.33c-.05.04-.09.05-.11.04s-.05-.04-.07-.07ZM2.31,57.69c-.12-.16-.22-.32-.28-.5s-.09-.35-.09-.52c0-.17.03-.33.1-.49.07-.15.17-.29.31-.4.13-.11.28-.18.45-.21.16-.03.33-.03.5,0,.17.04.33.11.49.21.16.1.3.23.43.39s.22.32.28.5.1.35.1.52c0,.17-.03.33-.1.49s-.17.28-.3.39c-.14.11-.29.18-.45.21s-.33.03-.5,0c-.17-.04-.33-.11-.49-.21-.16-.1-.3-.23-.43-.39ZM3.66,56.61c-.12-.15-.25-.23-.4-.25-.15-.02-.27.01-.38.1-.11.09-.17.21-.19.36-.01.15.04.3.15.45.12.14.25.23.4.25.15.02.28-.01.39-.1.11-.08.16-.2.18-.35.01-.15-.04-.3-.16-.45ZM5.77,59.88l-.5-.63-1.46,1.17s-.07.05-.1.05c-.02,0-.05-.02-.08-.06l-.42-.52s-.04-.07-.04-.1c0-.03.02-.06.06-.09l3.78-3.03c.07-.06.13-.05.19.02l.42.52c.05.06.04.12-.03.18l-1.7,1.36.5.63s.04.05.05.08c0,.03-.01.06-.06.1l-.43.34s-.07.04-.1.04c-.03,0-.05-.03-.08-.06ZM5.43,57.36l-2.17-2.71c-.06-.07-.05-.14.03-.21l.34-.27c.08-.06.15-.05.21.02l2.17,2.71c.06.08.05.14-.02.21l-.34.28c-.08.06-.15.05-.21-.02ZM5.68,56.07l-1.08-1.35s-.04-.06-.04-.09c0-.03.02-.07.07-.11l.35-.28c.05-.04.09-.06.12-.04s.06.03.08.06l1.08,1.35c.06.08.05.15-.03.21l-.34.27s-.08.05-.11.05c-.03,0-.07-.02-.1-.07Z"/>
    <path class="cls-9" d="M10.09,64.15l-1.74-1.64-.61.65.84.79c.07.07.12.13.15.18s.05.11.04.16c0,.05-.03.11-.06.17-.04.06-.09.12-.16.19l-1.3,1.38c-.06.07-.13.07-.19.02l-.47-.45c-.07-.07-.07-.13-.01-.2l1.04-1.11c.05-.05.05-.1,0-.14l-2.27-2.14s-.04-.05-.05-.08,0-.06.04-.1l.38-.4s.08-.06.1-.05.05.03.08.05l1.17,1.09.61-.65-1.74-1.64s-.06-.07-.06-.1.02-.06.05-.1l.34-.37s.07-.06.1-.07c.03,0,.06,0,.11.05l2.89,2.72c.08-.06.18-.14.28-.23.1-.09.21-.17.3-.26.1-.09.19-.17.26-.24.08-.07.13-.12.16-.15.05-.05.08-.09.08-.13s-.02-.08-.08-.14l-2.19-2.05s-.05-.06-.06-.08c0-.02,0-.06.05-.1l.37-.4s.07-.05.09-.05.06.02.09.05l2.64,2.48c.12.11.18.22.18.32,0,.1-.05.22-.17.35-.17.18-.37.38-.61.6s-.49.43-.76.62l.62.59c.07.06.07.13,0,.21l-.34.37s-.07.06-.11.05-.06-.02-.09-.05Z"/>
    <path class="cls-9" d="M12.45,70.15l-2.68-1.97c-.09-.06-.15-.12-.2-.17-.05-.05-.07-.1-.08-.15,0-.05,0-.11.02-.17.03-.06.07-.14.13-.22l.98-1.33c.05-.07.11-.08.18-.03l.53.39s.06.06.07.08c0,.03,0,.06-.04.1l-.21.28,2.02,1.49.22-.3c.06-.08.12-.09.18-.04l.55.4c.06.05.07.11.01.18l-1.01,1.37c-.11.15-.21.23-.3.25-.09.02-.23-.04-.4-.16ZM11.48,66.19l-.5-.37c-.07-.05-.08-.12-.02-.2l.47-.64c-.3-.21-.61-.43-.91-.67-.04-.03-.06-.06-.06-.09,0-.03.02-.06.05-.1l.22-.3s.07-.08.09-.08c.03,0,.06,0,.1.04.46.35.88.66,1.29.92.4.26.81.5,1.21.72.06.03.08.06.08.08,0,.02,0,.06-.03.11l-.18.35s-.06.06-.08.06c-.02,0-.06-.01-.1-.03-.16-.07-.31-.15-.46-.24-.15-.08-.3-.17-.46-.27l-.5.69c-.06.08-.13.1-.2.04ZM12.76,69.03l-2.02-1.49-.18.24s-.02.06.02.09l1.91,1.41s.07.02.09-.01l.18-.24ZM12.3,64.53c-.15-.11-.28-.24-.38-.38-.11-.14-.19-.29-.24-.44s-.07-.3-.05-.46c.02-.15.07-.29.16-.42.1-.13.22-.23.36-.29.14-.06.29-.09.45-.09.16,0,.32.03.49.09.17.06.33.15.48.26.15.11.28.24.39.38.11.14.18.29.23.44.05.15.06.3.05.45s-.08.29-.17.42c-.09.13-.21.22-.35.28-.14.06-.29.09-.44.09s-.32-.03-.49-.09-.33-.15-.48-.26ZM13.29,67.51l-.49-.36s-.05-.05-.07-.07,0-.06.04-.11l.07-.09-.58-.43s-.06-.06-.07-.08c0-.02,0-.06.04-.1l.23-.32c.04-.05.07-.08.09-.07s.05.02.08.04l.58.43,1.73-2.35c.05-.07.11-.08.19-.03l.49.36s.06.06.06.08c0,.03-.01.06-.04.1l-2.18,2.96c-.04.05-.07.08-.09.08s-.05-.02-.09-.04ZM13.17,63.34c-.15-.11-.29-.16-.42-.15s-.22.06-.29.14c-.03.04-.05.08-.05.14,0,.06,0,.11.01.18.01.06.04.12.08.19.04.06.1.12.17.17.07.06.15.09.22.11.07.02.14.03.21.03.07,0,.12-.02.17-.04.05-.03.09-.06.11-.09.06-.08.08-.19.05-.31s-.12-.25-.27-.36ZM14.3,68.3l-.52-.39s-.06-.05-.07-.08c0-.02.01-.06.05-.11l2.26-3.07s.06-.06.08-.07c.02,0,.06,0,.1.04l.52.39s.06.06.06.08c0,.02-.01.06-.04.1l-2.26,3.07c-.04.05-.07.08-.09.08-.02,0-.05-.01-.09-.04Z"/>
    <path class="cls-9" d="M17.83,73.32l-2.54-1.49c-.09-.05-.16-.1-.21-.15-.05-.05-.08-.09-.1-.14s-.01-.11,0-.17.06-.14.11-.23l1.05-1.79c.04-.07.1-.09.17-.04l.57.33s.07.05.08.07,0,.06-.03.1l-.26.44,1.84,1.08.27-.46s.05-.07.08-.07c.03,0,.06,0,.09.02l.58.34s.06.04.06.07c0,.03,0,.06-.03.11l-1.07,1.83c-.09.16-.18.25-.27.28-.09.03-.23-.01-.41-.12ZM15.69,68.76c-.08,0-.13-.02-.15-.05-.02-.03-.03-.06-.02-.11l.02-.55c0-.09.06-.13.18-.13.25.01.5,0,.75-.02.25-.02.48-.06.71-.11.22-.05.42-.11.61-.18.19-.07.34-.15.47-.24.07-.05.12-.09.13-.12.01-.03-.01-.07-.08-.1l-1.27-.74c-.05-.03-.08-.06-.08-.09,0-.03.02-.06.04-.1l.24-.42c.05-.08.11-.1.19-.06l1.88,1.1c.23.13.33.27.32.42-.02.15-.12.3-.31.47-.13.11-.27.22-.43.32-.15.1-.32.19-.5.27.06.24.15.47.26.69s.21.41.3.57c.04.08.02.14-.06.18l-.53.27s-.07.03-.09.02c-.02,0-.05-.03-.08-.08-.04-.07-.08-.16-.13-.26-.05-.1-.1-.21-.15-.33-.05-.12-.1-.25-.15-.38s-.09-.26-.12-.4c-.31.08-.63.13-.96.16s-.66.03-1,0ZM18.12,72l-1.84-1.08-.22.37s-.01.07.03.09l1.72,1.01s.07.02.09-.02l.22-.37ZM18.96,68.85c-.08-.04-.09-.11-.04-.19l.25-.43c.03-.06.06-.08.09-.08.03,0,.06.01.09.03l.76.45.63-1.07c.03-.05.06-.08.09-.08.03,0,.06.01.1.03l.57.33s.07.06.07.09c0,.03-.01.06-.03.09l-1.63,2.78c-.04.08-.1.09-.18.05l-.57-.33c-.07-.04-.09-.1-.05-.17l.61-1.04-.76-.45Z"/>
    <path class="cls-9" d="M23.87,76.21l-3.38-1.58c-.08-.04-.15-.08-.2-.12-.05-.04-.08-.08-.09-.13-.01-.05-.01-.1,0-.17s.04-.14.09-.23l.69-1.48c.04-.09.1-.11.18-.08l.59.28c.08.04.11.1.06.19l-.52,1.12c-.03.06-.01.11.05.14l2.87,1.34s.06.04.08.06c.02.03.02.06,0,.11l-.23.49c-.03.06-.06.09-.09.08-.03,0-.06-.01-.09-.03ZM25.71,73.96l-5.16-2.41c-.06-.03-.09-.05-.09-.08,0-.03,0-.06.03-.11l.21-.46s.04-.08.07-.09.06,0,.11.02l3.59,1.68c.06-.08.13-.2.22-.34s.17-.29.26-.44.16-.28.22-.4c.06-.12.1-.2.12-.24.03-.06.04-.11.04-.15,0-.03-.04-.07-.12-.11l-2.72-1.27s-.07-.04-.09-.06c-.02-.02-.01-.06.01-.11l.23-.49s.05-.07.07-.07c.03,0,.06,0,.1.02l3.28,1.53c.14.07.23.15.27.25.04.1.02.23-.06.39-.05.11-.12.25-.2.4-.08.16-.17.32-.26.49-.09.17-.19.34-.29.51-.1.17-.2.33-.3.46l.78.36s.06.04.08.07c.02.03.01.07-.01.12l-.21.46c-.04.09-.1.11-.19.07Z"/>
    <path class="cls-9" d="M26.77,74.53c-.1.02-.16.02-.19.02-.03,0-.05-.04-.06-.1l-.15-.52c-.02-.09-.02-.14,0-.16.02-.02.07-.04.13-.06.28-.07.54-.18.78-.33.24-.15.45-.32.65-.51.19-.19.36-.41.5-.65.14-.24.26-.48.36-.74.03-.07.05-.12.08-.12.02,0,.06,0,.12.03l.58.25s.07.04.08.06c.01.02,0,.06-.01.1-.14.39-.32.75-.54,1.08,0,.17.04.34.08.51.05.17.11.33.18.49.07.16.15.3.23.44.08.14.17.25.24.34.04.06.06.11.04.14-.01.03-.05.06-.1.11l-.39.32c-.05.04-.09.06-.12.05-.03,0-.06-.03-.11-.09-.07-.08-.14-.17-.22-.28-.08-.11-.15-.23-.22-.36-.07-.13-.13-.27-.19-.42-.05-.15-.1-.29-.13-.45-.23.21-.49.39-.76.54-.27.15-.57.26-.88.33ZM28.14,78.13c-.27-.1-.51-.22-.71-.37-.2-.15-.37-.31-.49-.49s-.21-.36-.24-.56-.02-.38.05-.57c.07-.18.18-.33.33-.45.15-.12.33-.21.55-.26s.44-.07.7-.05c.25.02.51.08.78.18.26.09.49.22.7.37s.38.31.51.49c.13.18.22.37.27.56.05.19.04.38-.03.57-.07.19-.19.34-.35.46-.16.12-.35.21-.57.26-.22.05-.45.07-.71.05-.25-.02-.51-.08-.77-.17ZM28.83,76.27c-.31-.11-.58-.15-.8-.09-.22.05-.36.16-.41.31-.05.15-.01.31.12.49.14.18.36.32.67.44.15.05.29.09.42.1s.26.01.37,0,.2-.05.28-.1c.08-.05.13-.11.16-.18s.03-.16,0-.25c-.03-.09-.07-.18-.15-.27-.07-.09-.16-.17-.28-.25-.11-.08-.24-.15-.39-.2ZM29.81,73.72s-.06-.03-.08-.06c-.01-.02-.01-.06,0-.11l.18-.49c.02-.06.05-.09.07-.1.03,0,.06,0,.09.01l.98.36.39-1.06c.02-.06.05-.09.08-.09s.06,0,.1.01l.62.23c.05.02.08.04.08.07,0,.03,0,.06-.02.09l-1.24,3.35c-.03.08-.09.11-.16.08l-.62-.23c-.08-.03-.1-.08-.07-.16l.58-1.57-.98-.36Z"/>
    <path class="cls-9" d="M36.19,80.46l-3.35-.95c-.09-.03-.17-.06-.22-.09-.05-.03-.09-.07-.11-.12-.02-.05-.03-.11-.03-.17,0-.07.02-.15.05-.24l.43-1.52c.03-.09.08-.13.17-.1l.63.18c.08.02.11.08.09.18l-.32,1.14c-.02.07,0,.11.07.13l2.82.8s.06.03.08.05c.02.02.02.06.01.11l-.15.53c-.02.06-.04.09-.07.1-.03,0-.06,0-.09-.01ZM33.69,76.73c-.23-.07-.43-.17-.6-.3-.17-.13-.3-.29-.4-.48s-.16-.39-.18-.6c-.02-.22,0-.44.06-.67.06-.21.16-.41.29-.58.13-.17.29-.31.47-.42.18-.11.38-.18.6-.21s.44-.02.67.05c.23.07.44.17.61.31.17.14.31.31.41.5s.16.39.19.61c.02.22,0,.43-.06.65-.06.23-.16.43-.3.6-.13.17-.29.31-.48.42-.18.11-.39.17-.6.2-.22.03-.45,0-.68-.06ZM34.38,74.32c-.1-.03-.2-.04-.3-.02s-.19.05-.28.11c-.09.06-.16.13-.23.22s-.11.19-.15.31c-.03.12-.05.23-.04.34,0,.11.03.21.08.31.04.09.11.17.18.24.08.06.17.11.27.14.21.06.41.03.59-.08s.31-.29.37-.53.05-.45-.04-.65c-.09-.19-.25-.32-.46-.38ZM36.51,78.63l-.64-.18s-.08-.03-.09-.06,0-.06,0-.11l1.22-4.29c.02-.08.08-.12.16-.09l.65.18c.08.02.1.08.08.16l-1.22,4.3s-.03.08-.05.09c-.02.01-.05.01-.1,0Z"/>
    <path class="cls-9" d="M43.44,79.19l-5.58-1.15c-.06-.01-.1-.03-.1-.05s0-.06,0-.12l.1-.49c.01-.05.03-.08.05-.1.02-.02.06-.02.11,0l5.58,1.15s.07.02.09.05c.02.02.03.06.02.12l-.1.49c-.02.1-.08.13-.17.12ZM40.06,81.47c-.33-.07-.62-.16-.86-.28s-.45-.25-.6-.4c-.16-.15-.27-.31-.33-.48-.06-.17-.08-.34-.04-.51.04-.17.12-.33.24-.46s.29-.24.49-.31c.2-.07.44-.12.71-.13s.57.02.9.09c.33.07.62.16.86.28s.44.25.6.4c.15.15.26.31.33.48.06.17.08.35.04.52-.04.17-.12.33-.24.46s-.29.23-.49.31c-.2.08-.44.12-.71.13-.27.01-.57-.02-.9-.09ZM42.28,76.52s-.05.03-.08.04c-.03.01-.06.02-.08.03.1.06.21.12.33.18.12.06.23.12.35.18.12.06.23.11.34.17s.22.1.32.14c.06.02.09.05.11.08.01.03,0,.07-.03.13l-.23.38c-.04.06-.07.09-.1.1-.03,0-.07,0-.12-.02-.3-.12-.62-.28-.97-.46-.35-.18-.69-.37-1.01-.57-.37.08-.76.14-1.16.19-.4.04-.8.06-1.19.05-.07,0-.11,0-.13-.02-.02-.02-.04-.05-.05-.11l-.06-.48c-.01-.11.03-.17.13-.17.59-.01,1.13-.05,1.61-.13s.89-.17,1.23-.29c.05-.01.07-.03.08-.06,0-.02-.02-.04-.07-.05l-2.13-.44s-.08-.03-.09-.05c-.01-.02-.02-.06,0-.11l.1-.51s.03-.08.05-.09c.02-.01.05-.01.1,0l3.07.63c.21.04.36.12.45.22.09.1.12.21.1.31-.03.15-.12.29-.28.41s-.35.23-.57.32ZM40.43,79.71c-.36-.07-.65-.08-.88-.02-.23.06-.36.16-.39.3-.01.06,0,.13.04.21s.11.15.2.22c.09.07.21.13.34.19.14.06.29.11.47.14.18.04.34.05.49.05.15,0,.28-.01.39-.04.11-.03.2-.07.27-.12s.11-.11.12-.17c.03-.14-.05-.29-.24-.43-.19-.15-.46-.25-.82-.33Z"/>
    <path class="cls-9" d="M47.68,79.64c-.26,0-.55,0-.84-.01-.3-.01-.6-.04-.92-.07-.32-.03-.64-.07-.97-.11-.33-.04-.65-.09-.97-.15-.06,0-.1-.02-.11-.05,0-.02-.01-.06,0-.11l.06-.46c0-.05.02-.08.04-.1.02-.02.06-.02.11,0,.09.02.18.03.27.04.09.01.18.02.27.04l.27-2.01-.45-.06c-.1-.01-.14-.07-.12-.17l.06-.46c.01-.1.07-.14.16-.12l3.2.43c.09.01.12.07.11.16l-.06.46c-.01.1-.06.14-.15.13l-.38-.05-.26,1.95c.12,0,.23.01.34.02.11,0,.22,0,.33,0,.07,0,.1.02.11.08v.48c0,.07,0,.11-.01.12s-.04.03-.08.03ZM46.72,82.62c-.29-.04-.54-.11-.78-.2-.23-.1-.43-.22-.59-.36-.16-.14-.28-.3-.36-.47-.08-.17-.11-.36-.08-.55.02-.18.1-.35.22-.49.12-.14.28-.26.47-.35.19-.09.41-.15.67-.19.25-.04.52-.03.8,0,.27.04.52.1.76.2.23.1.44.22.6.36.17.14.3.3.39.47.09.17.12.35.09.54-.03.19-.1.36-.24.5-.13.14-.3.26-.5.36s-.43.16-.68.19c-.25.03-.51.03-.79,0ZM46.1,78.83l.27-2.01-.59-.08-.27,2.01c.1.01.2.03.3.04.1.01.2.02.3.03ZM46.98,80.75c-.17-.02-.32-.03-.45-.01s-.25.04-.35.08c-.1.04-.17.09-.23.16-.06.06-.09.13-.1.2-.02.14.06.28.23.42.17.14.42.23.75.27.15.02.3.03.43.01.14-.01.25-.04.36-.08.1-.04.19-.09.25-.15s.1-.12.11-.19c0-.07,0-.15-.05-.23-.05-.08-.11-.15-.2-.21s-.2-.12-.32-.17c-.13-.05-.27-.08-.42-.11ZM47.67,78.73s-.08-.02-.1-.04c-.02-.02-.03-.05-.02-.1l.06-.42c0-.05.02-.08.05-.1s.06-.02.1-.01l.65.09.04-.3-.65-.09s-.08-.02-.1-.04c-.02-.02-.03-.05-.02-.11l.06-.42c0-.06.02-.09.05-.1.02-.01.06-.02.1-.01l.65.09.13-.97c0-.06.03-.09.05-.11s.06-.01.1,0l.65.09c.06,0,.09.03.1.05,0,.03,0,.06,0,.1l-.49,3.65c-.01.09-.06.13-.14.12l-.66-.09c-.08-.01-.12-.06-.11-.15l.14-1.03-.65-.09Z"/>
    <path class="cls-9" d="M50.48,81.55c-.06.03-.11.05-.15.05-.03,0-.07-.03-.1-.08l-.28-.51s-.03-.09-.02-.13c.01-.04.04-.07.08-.09.69-.35,1.25-.77,1.67-1.26.42-.49.69-1.04.81-1.64.02-.1-.01-.15-.09-.15l-1.85-.12c-.06,0-.09-.02-.1-.04-.01-.02-.02-.06-.01-.11l.04-.52c0-.06.02-.09.03-.11.02-.01.05-.02.1-.02l2.41.16c.22.02.36.07.43.17.06.1.08.25.06.46-.05.42-.16.82-.32,1.2-.16.39-.37.75-.63,1.08-.26.34-.56.65-.91.93s-.73.53-1.16.74ZM55.83,79.96l-.82-.06-.22,3.25c0,.06-.01.09-.03.11-.02.02-.05.02-.1.02l-.67-.04s-.08-.01-.1-.03c-.02-.02-.03-.05-.02-.11l.43-6.42c0-.05.02-.08.04-.1.02-.02.06-.02.1-.02l.67.04s.08.02.09.04.02.05.02.11l-.16,2.38.82.06s.07.01.09.02c.02.01.03.05.03.12l-.04.53c0,.06-.02.09-.04.11s-.06.02-.1.02Z"/>
    <path class="cls-9" d="M58.41,81.31h-.63c-.09,0-.14-.06-.14-.15v-.85c-.24,0-.48,0-.72,0s-.47,0-.7-.02c-.05,0-.09-.01-.1-.04s-.02-.06-.02-.11v-.47c0-.05.02-.09.03-.11.02-.03.05-.04.1-.03.63.02,1.26.02,1.91,0s1.27-.06,1.89-.14c.07,0,.11,0,.13,0,.02.01.03.05.04.1l.05.47c0,.06,0,.09-.02.11-.02.02-.06.03-.1.04-.25.04-.5.06-.77.08s-.53.04-.8.06v.89c-.01.09-.06.14-.15.14ZM58.18,79.32c-.23,0-.43-.04-.62-.1-.19-.06-.35-.16-.49-.27-.14-.12-.24-.25-.32-.41s-.11-.33-.11-.53c0-.18.04-.34.12-.5.08-.15.19-.28.33-.39.14-.11.31-.2.49-.26.19-.06.4-.09.62-.09.23,0,.43.04.62.1.19.07.35.16.49.27.13.11.24.25.32.4.08.15.11.32.11.5,0,.19-.04.37-.12.52s-.19.29-.33.41c-.14.11-.3.2-.49.26-.19.06-.4.09-.62.09ZM61.36,83.29l-3.85-.04c-.09,0-.17-.01-.23-.03-.06-.02-.11-.04-.14-.08s-.06-.09-.07-.15-.02-.15-.02-.25v-1.03c.01-.09.06-.14.15-.14h.65c.09,0,.14.06.14.15v.64c0,.07.03.11.1.11l3.28.04s.07,0,.09.03c.03.02.04.05.04.1v.54c0,.06-.02.1-.05.11-.03,0-.06.01-.09.01ZM58.2,77.52c-.2,0-.36.05-.49.15s-.19.22-.2.36c0,.16.06.29.19.39s.29.15.49.16c.2,0,.36-.05.49-.15.13-.1.19-.23.19-.39,0-.14-.06-.27-.19-.37s-.29-.15-.49-.16ZM61.25,81.89h-.68s-.08-.02-.1-.03-.03-.05-.03-.11v-.52s-.99-.01-.99-.01c-.04,0-.07,0-.1-.03-.02-.02-.04-.05-.04-.1v-.48c0-.06.02-.1.05-.11.03-.01.06-.02.09-.02h1s.04-3.68.04-3.68c0-.05,0-.09.03-.1s.05-.03.1-.03h.68s.08.02.1.04c.02.02.03.05.03.1l-.05,4.94c0,.06,0,.09-.03.11-.02.02-.05.02-.1.02Z"/>
    <path class="cls-9" d="M64.58,82.51c-.06,0-.11,0-.13-.01-.03-.01-.04-.05-.05-.12l-.03-.5c0-.05,0-.09.02-.13.02-.04.04-.07.07-.11l.88-1.29c.33-.48.56-.87.7-1.17.14-.3.2-.53.19-.71-.01-.19-.07-.34-.17-.44s-.24-.16-.42-.17c-.17,0-.34.02-.51.09-.17.07-.35.17-.56.31-.06.04-.1.06-.13.05-.03-.01-.04-.04-.06-.08l-.16-.61s-.01-.07,0-.09c0-.02.04-.06.09-.1.08-.07.17-.13.27-.18.1-.06.21-.11.32-.15s.22-.08.33-.1c.11-.02.21-.04.3-.05.21-.01.41,0,.61.06.19.05.36.14.51.25.15.12.26.27.36.46.09.18.15.4.17.65.02.22-.01.44-.09.67s-.17.44-.28.66c-.11.22-.24.42-.37.62s-.26.38-.37.54c-.07.11-.15.23-.24.35-.1.13-.18.25-.26.35l1.75-.12c.07,0,.11,0,.12.03.02.02.03.07.03.13l.04.52c0,.07,0,.12-.02.14s-.06.04-.12.04l-2.79.19Z"/>
    <path class="cls-9" d="M69.79,82.15c-.29.03-.56,0-.79-.12s-.43-.28-.59-.5c-.16-.23-.3-.5-.4-.84-.1-.33-.18-.71-.22-1.12-.02-.19-.03-.38-.04-.59,0-.21,0-.42.03-.63.02-.21.07-.41.13-.61.06-.2.15-.37.26-.53.11-.16.25-.29.42-.39s.37-.17.61-.2c.24-.03.45,0,.63.06.18.07.35.17.49.29.14.13.26.28.36.46.1.18.18.37.25.57.07.2.12.41.16.61.04.21.07.4.09.58.04.42.05.8.02,1.14-.03.35-.1.65-.21.91s-.27.46-.46.62c-.2.16-.44.25-.74.28ZM69.29,77.52c-.11.01-.21.05-.3.12-.09.07-.16.18-.22.34-.06.15-.09.35-.11.6s0,.54.03.89c.04.36.09.65.16.89.07.23.15.42.23.55.09.14.18.23.29.28s.21.07.32.06c.11-.01.21-.05.3-.12.09-.07.16-.18.22-.33.06-.15.09-.35.11-.59.02-.24,0-.54-.03-.9-.04-.35-.09-.65-.16-.88-.07-.23-.15-.42-.23-.56-.09-.14-.18-.23-.29-.28s-.21-.07-.32-.06Z"/>
    <path class="cls-9" d="M71.86,81.83c-.06,0-.11,0-.13,0-.03-.01-.05-.05-.06-.11l-.07-.49c0-.05,0-.09.01-.13.02-.04.04-.08.06-.12l.78-1.36c.29-.5.49-.91.6-1.22.12-.31.16-.55.13-.72-.03-.19-.1-.33-.21-.43-.11-.1-.25-.14-.43-.13-.17,0-.33.05-.5.13-.16.08-.34.2-.53.35-.06.05-.1.07-.12.06-.03,0-.05-.03-.06-.07l-.21-.59s-.02-.07,0-.09c0-.03.04-.06.08-.1.07-.07.16-.14.26-.2.1-.06.2-.12.31-.17.11-.05.21-.09.32-.12s.2-.05.29-.07c.21-.03.41-.03.61,0s.37.11.53.21c.15.11.28.25.39.43.11.18.18.39.21.64.03.22.02.44-.04.67-.05.23-.13.46-.23.68s-.2.44-.32.65c-.12.21-.23.4-.32.57-.06.11-.13.24-.22.37-.08.14-.16.26-.23.37l1.73-.26c.07,0,.11,0,.13.02.02.02.03.06.04.13l.08.52c.01.07,0,.12,0,.14-.01.02-.05.04-.11.05l-2.76.41Z"/>
    <path class="cls-9" d="M77.95,80.39c-.13.19-.3.34-.51.45-.21.12-.44.2-.69.24-.08.01-.17.03-.27.03-.1,0-.2,0-.3,0-.1,0-.2,0-.29-.02-.09-.01-.17-.03-.24-.05-.04-.01-.06-.02-.08-.04-.01-.01-.02-.04-.03-.09l-.12-.65c-.01-.05,0-.09,0-.11s.05-.02.1-.01c.07.02.15.03.24.04s.19.01.29.02c.1,0,.2,0,.3,0,.1,0,.2-.02.28-.03.26-.05.45-.17.58-.36.13-.19.17-.42.12-.7-.05-.26-.15-.45-.32-.59-.16-.14-.4-.18-.72-.12-.13.02-.26.07-.41.12-.15.06-.28.13-.4.2-.04.03-.07.05-.11.07-.04.02-.07.03-.1.03-.03,0-.06-.02-.08-.05-.02-.03-.04-.08-.06-.16l-.45-2.55c-.01-.07,0-.11.01-.14s.07-.04.14-.06l2.37-.45c.05,0,.09,0,.11.01.02.02.03.05.04.1l.11.57s0,.09,0,.11c0,.03-.04.04-.1.05l-1.7.32.19,1.12c.07-.03.15-.06.22-.08.08-.02.16-.04.23-.05.22-.04.44-.05.64-.01.21.03.4.11.56.21.17.11.31.25.43.44s.21.4.25.66c.11.59.03,1.08-.25,1.49Z"/>
    <path class="cls-9" d="M79.68,80.98c-.17.04-.32,0-.45-.09s-.23-.23-.26-.4-.01-.33.07-.47c.09-.14.21-.23.38-.27s.32,0,.45.09c.14.09.23.23.26.4s.01.33-.07.47c-.09.14-.21.23-.38.27Z"/>
    <path class="cls-9" d="M82.16,79.94c-.29.07-.55.07-.79,0-.24-.08-.46-.21-.66-.42-.19-.2-.37-.46-.51-.77-.15-.32-.27-.68-.38-1.08-.04-.18-.08-.38-.12-.58-.03-.21-.05-.42-.06-.63s0-.42.04-.62.09-.39.18-.56c.09-.17.21-.32.36-.45.15-.13.34-.22.58-.28.23-.06.44-.07.64-.03s.37.12.53.22c.16.11.3.25.42.41.12.16.23.34.33.53.1.19.18.38.25.58.07.2.12.39.17.56.1.41.16.78.18,1.13.02.35,0,.65-.08.93-.08.27-.2.5-.37.68s-.4.31-.69.38ZM81.02,75.42c-.11.03-.2.08-.28.16-.08.08-.14.2-.17.36s-.04.36-.03.6.07.54.16.88c.09.35.18.63.28.86.1.22.2.39.31.52.11.12.21.2.32.24.11.04.22.04.32.01.11-.03.2-.08.28-.16.08-.08.14-.2.17-.36.04-.16.04-.36.03-.6-.02-.24-.07-.54-.16-.89-.09-.34-.18-.63-.28-.85-.1-.22-.2-.4-.31-.52-.11-.12-.21-.21-.32-.24-.11-.04-.22-.04-.33-.01Z"/>
    <path class="cls-9" d="M86.4,77.45l.29.98c.02.08.03.13.02.15s-.05.05-.12.07l-.53.16c-.07.02-.12.02-.14,0-.02-.02-.04-.06-.06-.13l-.29-.98-1.94.58c-.06.02-.1.02-.12.01-.02,0-.04-.04-.06-.1l-.14-.48s-.02-.09,0-.13c.01-.04.02-.08.03-.12.17-.62.33-1.24.49-1.87.16-.63.33-1.25.52-1.86.01-.04.03-.07.05-.09.02-.02.05-.03.09-.05l.58-.17c.08-.02.12-.02.13,0,.01.03.03.06.04.11l.92,3.09.52-.16c.06-.02.1-.02.12-.02.02,0,.04.05.06.13l.16.52c.02.08.03.12.01.14s-.05.03-.11.05l-.52.16ZM84.19,77.21l1.13-.34-.55-1.84-.58,2.18Z"/>
    <path class="cls-9" d="M88.32,78.6c-.16.05-.31.04-.46-.04-.15-.08-.25-.2-.3-.37s-.05-.33.02-.48c.07-.15.19-.25.35-.31.16-.05.31-.04.46.04.15.08.25.2.3.37.06.17.05.33-.02.48-.07.15-.19.25-.34.31Z"/>
    <path class="cls-9" d="M90.4,77.32s-.08.02-.1,0c-.02-.01-.04-.05-.06-.1l-1.38-3.74-.24.52c-.04.09-.09.12-.15.08l-.53-.3s-.05-.05-.05-.07c0-.03.01-.07.04-.12l.61-1.3c.03-.06.07-.09.13-.11l.41-.15c.09-.03.15-.04.17-.03s.06.08.1.19l1.74,4.72s.02.09.01.11c0,.03-.04.05-.08.07l-.62.23Z"/>
    <path class="cls-9" d="M94.67,74.34l.4.94c.03.07.04.12.04.15s-.04.05-.11.08l-.51.22c-.07.03-.12.04-.14.02s-.05-.06-.08-.12l-.4-.94-1.86.79c-.06.02-.1.03-.12.03-.02,0-.05-.04-.07-.09l-.19-.46s-.03-.09-.02-.13c0-.04.01-.08.02-.13.1-.63.19-1.27.28-1.91.09-.64.19-1.28.31-1.9,0-.04.02-.07.04-.09.02-.02.05-.04.09-.06l.56-.24c.07-.03.12-.03.13,0,.02.03.03.06.05.1l1.26,2.97.5-.21c.06-.03.1-.04.12-.03s.04.05.08.12l.21.5c.03.07.04.12.03.14-.01.02-.05.04-.1.06l-.5.21ZM92.44,74.35l1.09-.46-.75-1.77-.34,2.23Z"/>
    <path class="cls-9" d="M97.9,71.14c-.02.22-.08.41-.18.58-.1.17-.25.3-.43.39-.11.05-.23.09-.36.11s-.27.03-.4.04c-.14,0-.26.02-.38.03-.12.01-.21.04-.29.07-.08.04-.16.12-.21.25s-.1.26-.13.4c-.01.06-.03.09-.06.09-.03,0-.07-.02-.13-.05l-.4-.27s-.05-.04-.06-.06c0-.02-.01-.05-.01-.07.01-.22.08-.42.19-.59.12-.17.27-.3.48-.4.1-.05.22-.09.36-.11.14-.02.27-.04.4-.06s.25-.03.36-.04c.11-.01.2-.03.26-.06.05-.02.09-.06.12-.11.04-.05.07-.1.09-.16.03-.06.05-.12.07-.18s.03-.11.05-.15c.02-.05.03-.08.05-.09.02-.01.05,0,.1.02l.46.26s.05.04.06.06c0,.02,0,.05,0,.09Z"/>
    <path class="cls-9" d="M99.67,73.21c-.05.03-.1.05-.13.05-.03,0-.06-.03-.09-.08l-.24-.43s-.04-.09-.03-.13c0-.04,0-.08.02-.13l.25-1.55c.09-.57.13-1.02.13-1.35,0-.33-.05-.57-.13-.72-.09-.17-.21-.28-.35-.33-.14-.05-.29-.04-.45.03-.16.07-.29.17-.42.3-.12.13-.25.31-.37.52-.04.06-.07.09-.09.1-.03,0-.05-.01-.08-.05l-.41-.48s-.04-.06-.04-.08.01-.07.04-.13c.04-.09.1-.19.17-.28.07-.09.14-.18.23-.27.08-.08.17-.16.25-.23.09-.07.17-.12.25-.17.19-.1.38-.17.57-.21.2-.04.38-.03.57.01.18.04.35.13.52.26.16.13.31.3.43.52.11.19.17.4.21.64.03.23.04.47.03.72-.01.24-.03.48-.07.72-.04.24-.07.45-.1.64-.02.13-.04.27-.07.42-.03.16-.06.3-.08.43l1.53-.86c.06-.03.1-.04.12-.03.02.01.05.05.08.1l.26.46c.03.06.05.11.04.13,0,.03-.04.06-.09.09l-2.44,1.37Z"/>
    <path class="cls-9" d="M104.29,70.58c-.25.16-.5.24-.76.25-.25,0-.5-.06-.75-.19-.25-.13-.49-.32-.73-.57s-.47-.56-.7-.91c-.1-.16-.2-.33-.3-.51s-.18-.38-.25-.58c-.07-.2-.12-.4-.16-.6-.03-.2-.03-.4,0-.59.03-.19.1-.37.2-.54s.26-.32.46-.45c.2-.13.4-.2.6-.23.2-.02.38,0,.57.05.18.05.36.14.53.26.17.12.33.25.48.4.15.15.29.31.42.48.13.17.24.33.34.48.23.35.4.69.53,1.01s.2.62.21.91-.03.54-.14.76c-.11.23-.29.42-.54.58ZM101.79,66.66c-.09.06-.17.14-.21.24-.05.1-.07.24-.05.4s.07.36.17.58c.09.22.24.49.43.78.19.3.37.54.54.72.17.18.32.31.46.39.14.08.27.12.38.12.11,0,.22-.03.31-.09s.17-.14.21-.25c.05-.1.07-.24.05-.4-.02-.16-.07-.35-.16-.58s-.24-.49-.43-.79c-.19-.3-.37-.54-.53-.72-.16-.18-.32-.31-.46-.4-.14-.08-.27-.13-.38-.12-.12,0-.22.03-.31.09Z"/>
    <path class="cls-9" d="M106.06,69.34s-.09.06-.12.06c-.03,0-.06-.02-.1-.07l-.29-.4s-.05-.08-.05-.12,0-.09,0-.13l.06-1.56c.02-.58,0-1.03-.03-1.36-.04-.33-.11-.56-.21-.7-.11-.15-.24-.25-.38-.28s-.29,0-.44.08c-.15.08-.27.2-.38.35-.11.15-.21.33-.31.56-.03.07-.06.1-.08.11s-.06,0-.09-.04l-.46-.43s-.05-.05-.05-.08,0-.07.02-.13c.03-.1.08-.2.13-.3.06-.1.12-.2.19-.29.07-.09.15-.18.23-.26.08-.08.16-.14.23-.2.17-.13.35-.22.54-.28.19-.06.38-.08.56-.05.19.02.37.09.54.2s.34.26.49.47c.13.18.22.38.28.61.06.23.09.46.11.71s.02.48.01.72c0,.24-.02.46-.02.65,0,.13,0,.27-.02.43s-.02.3-.03.44l1.42-1.03c.05-.04.09-.05.12-.04s.06.04.1.09l.31.42c.04.06.06.1.06.13s-.03.06-.08.1l-2.26,1.65Z"/>
    <path class="cls-9" d="M110.27,66.18c-.42.35-.87.45-1.36.29-.49-.15-1.01-.56-1.57-1.22-.25-.3-.46-.61-.63-.93-.17-.32-.28-.64-.32-.96-.04-.32,0-.62.11-.93.12-.3.33-.59.66-.86.05-.04.1-.08.17-.13s.13-.09.19-.13.13-.08.19-.11c.06-.03.12-.06.17-.08.05-.01.08-.01.1,0,.02.01.04.03.07.06l.41.53s.04.07.02.09c-.02.02-.05.04-.11.07-.07.03-.14.06-.19.09s-.11.06-.15.08c-.05.03-.1.06-.14.1-.05.04-.1.08-.16.13-.29.24-.43.52-.42.84s.12.66.36,1c0-.15.03-.3.11-.46.08-.15.17-.28.27-.36.16-.14.34-.23.54-.29s.4-.08.61-.05c.21.03.41.1.61.22.2.12.39.28.57.48.17.2.3.42.39.64.09.23.13.45.13.67,0,.22-.05.44-.15.65-.1.21-.24.4-.44.56ZM108.54,63.99c-.19.16-.29.35-.3.56,0,.21.08.42.25.63.1.11.2.21.31.28.11.07.22.12.33.15s.22.03.32.01c.1-.02.19-.06.27-.12.17-.15.26-.33.26-.56,0-.23-.1-.46-.3-.7-.19-.23-.39-.36-.59-.41s-.39,0-.56.15Z"/>
    <path class="cls-9" d="M112.63,64.72c-.12.12-.27.17-.43.16s-.31-.08-.43-.21c-.12-.13-.18-.28-.18-.45,0-.17.06-.31.19-.42.12-.11.27-.17.43-.16.17.01.31.08.43.21.12.13.18.28.18.45s-.06.31-.19.42Z"/>
    <path class="cls-9" d="M114.3,62.46c-.21.21-.43.35-.68.42-.25.06-.5.06-.78,0-.27-.07-.55-.2-.84-.39-.29-.19-.59-.43-.89-.72-.13-.13-.27-.27-.41-.43s-.27-.33-.38-.5-.21-.36-.29-.55c-.08-.19-.13-.38-.14-.57-.02-.19,0-.38.07-.57.06-.19.18-.37.34-.54s.34-.29.53-.36c.18-.07.37-.1.56-.09.19,0,.38.05.57.12.19.07.38.17.56.28.18.11.35.23.52.36.16.13.31.26.44.39.3.29.55.58.75.86.2.28.34.56.42.83.08.27.09.53.04.77-.05.25-.18.47-.39.69ZM110.94,59.23c-.08.08-.13.18-.15.29-.02.11,0,.25.05.4s.15.33.3.53c.14.2.34.42.6.66.26.25.49.44.69.58s.38.23.54.28.29.06.4.03.21-.08.28-.16c.08-.08.13-.18.15-.29.02-.11,0-.24-.04-.4-.05-.15-.15-.33-.29-.52-.14-.2-.34-.42-.6-.67-.25-.25-.48-.44-.68-.57-.2-.14-.38-.23-.54-.28-.16-.05-.29-.06-.4-.03-.11.03-.21.08-.28.16Z"/>
    <path class="cls-9" d="M116.55,57.96l.79.64c.06.05.1.09.1.11,0,.03-.01.07-.06.12l-.35.43c-.05.06-.09.09-.12.08-.03,0-.07-.03-.13-.07l-.79-.64-1.28,1.57s-.07.08-.1.08c-.02,0-.06-.01-.11-.05l-.39-.31s-.07-.07-.08-.11c-.01-.04-.03-.08-.04-.12-.21-.6-.43-1.21-.65-1.82s-.43-1.22-.62-1.83c-.01-.04-.02-.07-.01-.1s.02-.06.05-.09l.38-.47c.05-.06.09-.08.12-.07.03.02.06.04.09.07l2.5,2.04.34-.42c.04-.05.07-.08.09-.08s.06.02.12.07l.42.34c.06.05.09.09.09.11,0,.02-.02.06-.06.1l-.34.42ZM114.59,59.01l.75-.92-1.49-1.21.75,2.13Z"/>
    <path class="cls-9" d="M118.82,57.7c-.1.14-.23.22-.39.24-.17.02-.32-.02-.46-.12s-.23-.24-.26-.4,0-.31.1-.45.23-.22.39-.24c.17-.02.32.02.46.12s.23.24.26.4,0,.31-.1.45Z"/>
    <path class="cls-9" d="M119.78,55.3s-.05.06-.08.07-.06,0-.11-.04l-3.4-2.08.14.56c.02.1,0,.15-.07.15l-.6.09s-.07,0-.09-.03c-.02-.02-.03-.06-.04-.11l-.33-1.4c-.01-.06,0-.12.03-.17l.23-.37c.05-.08.09-.13.12-.13.03,0,.09.03.19.09l4.29,2.62s.07.05.08.08c.01.03,0,.06-.02.1l-.34.56Z"/>
    <path class="cls-9" d="M120.97,49.65c.21.1.4.23.55.39.15.16.26.35.33.56.07.21.09.44.06.69-.02.25-.1.52-.24.79-.08.17-.18.34-.3.52-.12.18-.25.32-.37.44-.05.05-.09.07-.12.07s-.07-.02-.12-.05l-.48-.3c-.05-.04-.08-.07-.09-.1,0-.03.02-.07.07-.12.08-.08.17-.17.26-.28s.17-.21.22-.3c.08-.13.14-.27.19-.41.05-.14.07-.28.06-.42s-.04-.26-.11-.37c-.07-.11-.18-.21-.33-.28-.09-.04-.19-.06-.29-.06-.11,0-.21.02-.32.08-.11.05-.21.13-.31.23-.1.1-.19.24-.27.4l-.15.32c-.02.05-.05.08-.07.09s-.06,0-.11-.03l-.52-.25c-.06-.03-.09-.05-.1-.07,0-.02,0-.06.02-.11l.15-.31c.04-.08.07-.18.09-.3.02-.11.03-.23.02-.34-.01-.12-.04-.22-.1-.33-.05-.1-.14-.18-.25-.23-.16-.08-.32-.09-.48-.03-.16.05-.29.19-.39.41-.07.14-.12.3-.15.48-.03.18-.05.35-.05.5,0,.07-.01.12-.03.15s-.06.03-.13.01l-.55-.19s-.08-.03-.09-.05c-.01-.02-.02-.07-.02-.14,0-.2.03-.4.07-.61.04-.2.1-.39.18-.56.08-.18.19-.34.33-.49.13-.15.28-.27.45-.37.17-.09.36-.14.56-.15.2,0,.41.04.63.14.12.06.23.13.32.23s.17.2.24.33c.06.12.11.25.14.39.03.14.04.28.04.42.27-.25.54-.4.82-.45s.53-.03.75.07Z"/>
  </g>
  <g>
    <path class="cls-8" d="M39.62,63.95l-3.28,5.58-.93-.27.24-7.66.83.24-.26,6.52,3.31-5.64.86.25-.22,6.59,3.27-5.71.79.23-3.86,6.61-.95-.28.22-6.46Z"/>
    <polygon class="cls-7" points="39.41 70.41 40.36 70.69 44.22 64.08 43.43 63.85 40.16 69.56 40.38 62.97 39.53 62.72 36.22 68.36 36.48 61.84 35.65 61.6 35.42 69.26 36.35 69.53 39.62 63.95 39.41 70.41"/>
    <path class="cls-8" d="M48.29,72.22l-4.53-.78,1.26-7.33,4.53.78-.12.73-3.68-.63-.39,2.24,3.42.59-.12.72-3.42-.59-.5,2.9,3.68.63-.13.75Z"/>
    <polygon class="cls-7" points="48.42 71.48 44.74 70.85 45.24 67.95 48.66 68.54 48.78 67.82 45.36 67.23 45.75 64.99 49.43 65.62 49.55 64.9 45.02 64.12 43.76 71.45 48.29 72.22 48.42 71.48"/>
    <path class="cls-8" d="M52.39,72.6l-2.5-.22.66-7.39,2.47.22c.35.03.65.1.9.21.26.11.47.25.64.42.17.17.29.35.36.56.07.21.1.43.08.66-.04.41-.18.75-.45,1.03-.26.28-.6.45-1.02.53v.02c.25.05.47.14.67.27.2.12.36.27.49.44.13.17.23.37.29.59.06.22.08.46.06.71-.02.27-.1.53-.22.78-.12.25-.29.47-.52.66-.22.19-.49.33-.82.42-.32.1-.69.13-1.11.09ZM52.44,68.93l-1.36-.12-.26,2.91,1.53.14c.53.05.94-.05,1.24-.28.3-.24.47-.58.51-1.02.04-.47-.07-.84-.34-1.12-.27-.28-.71-.45-1.32-.5ZM52.73,65.91l-1.39-.12-.21,2.32,1.29.11c.47.04.86-.01,1.15-.17.29-.16.46-.46.5-.91.04-.39-.06-.68-.29-.87-.23-.19-.58-.31-1.06-.35Z"/>
    <path class="cls-7" d="M53.5,72.54c.32-.1.59-.24.82-.42.22-.19.4-.41.52-.66.12-.25.19-.51.22-.78.02-.25,0-.49-.06-.71-.06-.22-.16-.42-.29-.59-.13-.17-.3-.32-.49-.44-.2-.12-.42-.21-.67-.27v-.02c.42-.08.76-.26,1.02-.53.26-.28.41-.62.45-1.03.02-.23,0-.45-.08-.66-.07-.21-.19-.4-.36-.56-.17-.17-.38-.3-.64-.42-.26-.11-.56-.18-.9-.21l-2.47-.22-.66,7.4,2.5.22c.42.04.78,0,1.1-.09ZM53.76,69.47c.27.28.39.65.34,1.12-.04.44-.21.78-.51,1.02-.3.23-.71.33-1.24.28l-1.53-.14.26-2.91,1.36.12c.61.06,1.05.22,1.32.5ZM53.8,66.29c.23.19.32.48.29.87-.04.45-.21.75-.5.91-.29.16-.68.21-1.15.17l-1.29-.12.21-2.31,1.39.12c.48.04.84.16,1.06.35Z"/>
    <path class="cls-8" d="M61.3,68.06c.12.13.25.26.41.39.16.13.32.24.49.36.17.11.34.21.51.3.17.09.34.17.5.24l-.45.57c-.34-.16-.67-.36-.99-.58-.32-.23-.62-.48-.89-.76-.36.39-.76.73-1.18,1.01-.43.28-.83.5-1.19.64l-.52-.53c.39-.15.76-.33,1.11-.56.35-.23.67-.47.96-.75.29-.27.53-.56.73-.86.2-.3.33-.6.41-.91-.31.02-.62.04-.94.05-.32.01-.64.02-.96.03l-.81.02-.02-.66,1.36-.04c.37-.01.75-.02,1.13-.03.38-.01.78-.03,1.19-.05-.03.39-.12.76-.27,1.11-.15.35-.33.68-.56,1ZM64.84,73.51l-5.08.15-.09-3.1.76-.02.02.7,3.57-.11-.02-.75.75-.02.09,3.15ZM64.07,72.87l-.03-1.1-3.57.11.03,1.1,3.57-.1ZM62.48,68.08l-.02-.68,1.43-.04-.05-1.81.76-.02.13,4.39-.76.02-.06-1.89-1.43.04Z"/>
    <path class="cls-7" d="M60.5,72.97l-.03-1.1,3.57-.11.03,1.1-3.57.1ZM64.75,70.37l-.75.02.02.75-3.57.11-.02-.7-.75.02.09,3.1,5.08-.15-.09-3.14ZM63.91,68.04l.06,1.89.76-.02-.13-4.39-.76.02.05,1.81-1.43.04.02.68,1.43-.04ZM61.86,67.06c.15-.35.23-.72.26-1.11-.42.02-.81.04-1.19.05-.38.01-.76.02-1.13.04l-1.36.04.02.66.81-.02c.32,0,.64-.02.96-.03.32-.01.63-.03.94-.05-.07.31-.21.61-.41.91-.2.3-.44.59-.73.86-.29.27-.61.52-.96.75-.36.23-.73.42-1.11.56l.52.53c.37-.15.77-.36,1.19-.64.43-.28.82-.62,1.18-1.01.27.28.57.53.89.76.32.23.65.42.99.58l.45-.57c-.16-.07-.33-.15-.5-.24-.17-.09-.34-.19-.51-.31-.17-.11-.33-.23-.49-.35-.16-.12-.29-.25-.41-.39.23-.31.41-.65.56-1Z"/>
    <path class="cls-8" d="M71.33,68.41c0-.45-.02-.91-.04-1.37-.02-.47-.06-.92-.12-1.36l-4.47.6-.09-.66,5.25-.71c.04.31.07.62.09.94.03.31.05.62.07.91.02.29.04.57.04.83.01.27.02.5.03.72l1.49-.2.09.65-7.67,1.04-.09-.65,5.42-.73ZM73.06,72.54l-5.33.72-.36-2.68.76-.1.27,2.02,4.57-.62.09.66Z"/>
    <path class="cls-7" d="M72.98,71.88l-4.57.62-.27-2.02-.76.1.36,2.68,5.33-.72-.09-.66ZM65.91,69.15l.09.65,7.67-1.04-.09-.65-1.49.2c0-.21-.01-.45-.03-.72,0-.26-.03-.54-.04-.83-.02-.29-.04-.6-.07-.91-.03-.31-.06-.63-.09-.94l-5.25.71.09.66,4.47-.6c.06.44.1.9.12,1.36.02.47.04.93.04,1.37l-5.42.73Z"/>
    <path class="cls-8" d="M76.07,63.93c.07.26.12.51.15.76.03.25.05.48.04.72.35.39.74.71,1.16.96.42.25.9.43,1.45.55l-.33.64c-.47-.11-.9-.27-1.3-.5-.4-.22-.75-.49-1.07-.81-.1.49-.26.94-.51,1.36-.25.42-.55.8-.92,1.15l-.63-.36c.64-.61,1.06-1.26,1.27-1.95.21-.69.19-1.47-.08-2.32l.76-.19ZM81.29,69.22c.06.22.05.43-.01.65-.06.21-.18.42-.37.61-.19.19-.43.37-.74.52-.31.16-.68.29-1.1.4-.43.11-.82.16-1.16.17-.34,0-.64-.04-.9-.12-.25-.08-.46-.2-.61-.36-.16-.16-.26-.35-.32-.56-.05-.22-.05-.44,0-.65.06-.21.19-.42.37-.61.18-.19.43-.37.73-.53.3-.16.67-.29,1.1-.4.43-.11.82-.16,1.16-.17.35,0,.65.03.9.12.25.08.46.21.61.37.16.16.26.35.32.57ZM80.52,69.42c-.03-.12-.1-.23-.2-.32-.1-.09-.24-.16-.41-.21-.17-.05-.38-.07-.63-.06-.25,0-.53.05-.84.13-.31.08-.57.17-.79.28-.22.11-.39.23-.52.35-.13.13-.22.25-.26.38-.04.13-.05.25-.02.37.03.11.09.22.19.31.1.09.24.16.41.2.17.04.38.06.62.05.24,0,.52-.05.83-.13.32-.08.58-.17.8-.28.22-.11.4-.22.53-.34.13-.12.22-.25.26-.37.04-.13.05-.25.02-.37ZM77.86,65.75l-.17-.66,1.59-.4-.42-1.68.74-.19,1.19,4.72-.74.19-.6-2.38-1.59.4Z"/>
    <path class="cls-7" d="M80.5,69.78c-.04.13-.13.25-.26.37-.13.12-.31.23-.53.34-.22.11-.49.2-.8.28-.31.08-.59.12-.83.13-.24,0-.45,0-.62-.05-.17-.04-.31-.11-.41-.2-.1-.09-.17-.19-.19-.31-.03-.12-.02-.25.02-.37.05-.13.13-.25.26-.38.13-.12.3-.24.52-.35.21-.11.48-.2.79-.28.32-.08.6-.12.84-.13.25,0,.46.01.63.06.17.05.31.12.41.21.1.09.16.2.2.32.03.12.02.24-.02.37ZM80.98,68.65c-.16-.16-.36-.28-.61-.37-.25-.08-.55-.12-.9-.12-.35,0-.73.06-1.16.17-.43.11-.8.24-1.1.4-.3.16-.55.33-.73.53-.18.19-.31.4-.37.61-.06.21-.06.43,0,.65.06.22.16.41.32.56.16.16.36.28.61.36.25.08.55.12.9.12.34,0,.73-.06,1.16-.17.43-.11.8-.24,1.1-.4.31-.16.55-.33.74-.53.18-.19.31-.39.37-.61.06-.21.07-.43.01-.65-.05-.22-.16-.41-.32-.57ZM79.46,65.35l.6,2.38.74-.19-1.19-4.72-.74.19.42,1.68-1.59.4.17.66,1.59-.4ZM75.31,64.12c.26.85.29,1.62.08,2.32-.21.7-.64,1.35-1.27,1.95l.63.36c.37-.35.68-.73.92-1.15.25-.42.41-.87.51-1.36.31.32.67.59,1.07.81.4.22.83.39,1.3.5l.33-.64c-.55-.12-1.03-.3-1.45-.55-.42-.25-.81-.57-1.16-.96,0-.23-.01-.47-.04-.72-.03-.25-.08-.5-.15-.76l-.76.19Z"/>
  </g>
</svg>