<svg width="24" height="24" viewBox="0 0 24 24" fill="none" xmlns="http://www.w3.org/2000/svg">
<g id="Shape">
<path id="&#236;&#155;&#144;&#235;&#179;&#184;" fill-rule="evenodd" clip-rule="evenodd" d="M3.14059 5.71748C3.14059 5.27565 3.49876 4.91748 3.94059 4.91748H20.1006C20.5425 4.91748 20.9006 5.27565 20.9006 5.71748C20.9006 6.15931 20.5425 6.51748 20.1006 6.51748H3.94059C3.49876 6.51748 3.14059 6.15931 3.14059 5.71748ZM3.14059 12.0019C3.14059 11.5601 3.49876 11.2019 3.94059 11.2019H20.1006C20.5425 11.2019 20.9006 11.5601 20.9006 12.0019C20.9006 12.4437 20.5425 12.8019 20.1006 12.8019H3.94059C3.49876 12.8019 3.14059 12.4437 3.14059 12.0019ZM3.89961 17.4863C3.45778 17.4863 3.09961 17.8445 3.09961 18.2863C3.09961 18.7282 3.45778 19.0863 3.89961 19.0863L20.0596 19.0863C20.5015 19.0863 20.8596 18.7282 20.8596 18.2863C20.8596 17.8445 20.5015 17.4863 20.0596 17.4863L3.89961 17.4863Z" fill="#191E26"/>
</g>
</svg>
