<svg width="48" height="48" viewBox="0 0 48 48" fill="none" xmlns="http://www.w3.org/2000/svg">
<path fill-rule="evenodd" clip-rule="evenodd" d="M15.5436 14.1277C15.1531 13.7371 14.52 13.737 14.1294 14.1275C13.7388 14.518 13.7388 15.1512 14.1292 15.5417L22.5856 24.0001L14.1333 32.4544C13.7428 32.845 13.7429 33.4782 14.1335 33.8686C14.5241 34.2591 15.1572 34.259 15.5477 33.8685L23.9996 25.4145L32.4516 33.8685C32.8421 34.259 33.4752 34.2591 33.8658 33.8686C34.2564 33.4782 34.2564 32.845 33.866 32.4544L25.4137 24.0001L33.8701 15.5417C34.2605 15.1512 34.2605 14.518 33.8699 14.1275C33.4793 13.737 32.8461 13.7371 32.4557 14.1277L23.9996 22.5857L15.5436 14.1277Z" fill="#191E26"/>
</svg>
