<svg width="20" height="20" viewBox="0 0 20 20" fill="none" xmlns="http://www.w3.org/2000/svg">
<g id="Shape">
<g id="group">
<path id="Path" fill-rule="evenodd" clip-rule="evenodd" d="M1.99951 9.99994C1.99951 14.4181 5.58133 17.9999 9.99951 17.9999C14.4177 17.9999 17.9995 14.4181 17.9995 9.99994C17.9995 5.58216 14.4177 2 9.99951 2C5.58133 2 1.99951 5.58216 1.99951 9.99994Z" fill="#007EF4"/>
<path id="Vector" d="M12.8872 11.0282C12.7793 10.9208 12.6469 10.8411 12.5014 10.7961C12.3559 10.7511 12.2017 10.742 12.0519 10.7697C11.9021 10.7974 11.7613 10.861 11.6416 10.9551C11.5218 11.0492 11.4267 11.171 11.3644 11.3099C11.3375 11.3705 11.2976 11.4244 11.2474 11.4677C11.1973 11.511 11.1381 11.5426 11.0742 11.5602C11.0084 11.5785 10.9393 11.5819 10.8719 11.5702C10.8045 11.5585 10.7406 11.5321 10.6848 11.4927C10.3855 11.2865 10.1047 11.0549 9.84545 10.8004C9.59141 10.5411 9.36023 10.2604 9.15447 9.96138C9.11503 9.90553 9.08852 9.8416 9.07684 9.77424C9.06517 9.70688 9.06862 9.63776 9.08696 9.5719C9.10461 9.50798 9.13624 9.44879 9.17958 9.39861C9.22291 9.34842 9.27686 9.3085 9.33752 9.28173C9.47647 9.21939 9.59822 9.12426 9.69232 9.0045C9.78641 8.88475 9.85004 8.74394 9.87775 8.59418C9.90545 8.44442 9.8964 8.29018 9.85137 8.14468C9.80635 7.99919 9.72669 7.8668 9.61923 7.75887L8.89612 7.03703C8.79549 6.93644 8.67332 6.86001 8.53884 6.81352C8.40436 6.76704 8.26108 6.7517 8.1198 6.76867C7.97853 6.78564 7.84295 6.83448 7.72331 6.9115C7.60366 6.98852 7.50307 7.0917 7.42913 7.21327L7.08283 7.78256C6.86146 8.14332 6.75002 8.56078 6.76212 8.98387C6.77423 9.40696 6.90935 9.81736 7.15098 10.1649C7.60222 10.8134 8.1081 11.4221 8.66309 11.9844C9.23351 12.5473 9.85149 13.0598 10.5101 13.5164C10.8576 13.7571 11.2674 13.8917 11.6899 13.9039C12.1124 13.9161 12.5294 13.8054 12.8901 13.5852C13.0943 13.4609 13.2909 13.3382 13.4669 13.2265C13.5859 13.1513 13.6865 13.0502 13.7612 12.9308C13.8359 12.8114 13.8828 12.6767 13.8983 12.5367C13.9139 12.3967 13.8978 12.255 13.8512 12.1221C13.8046 11.9892 13.7287 11.8685 13.6291 11.7689L12.8872 11.0282Z" fill="white"/>
</g>
</g>
</svg>
