<svg width="17" height="17" viewBox="0 0 17 17" fill="none" xmlns="http://www.w3.org/2000/svg">
<path d="M0 8.5C0 4.08172 3.58172 0.5 8 0.5C12.4183 0.5 16 4.08172 16 8.5C16 12.9183 12.4183 16.5 8 16.5C3.58172 16.5 0 12.9183 0 8.5Z" fill="white"/>
<mask id="mask0_7276_20659" style="mask-type:alpha" maskUnits="userSpaceOnUse" x="3" y="2" width="11" height="13">
<path fill-rule="evenodd" clip-rule="evenodd" d="M6.85185 5.51921C6.67829 5.69278 6.67829 5.97419 6.85185 6.14775L9.20426 8.50015L6.85185 10.8525C6.67829 11.0261 6.67829 11.3075 6.85185 11.4811C7.02542 11.6547 7.30683 11.6547 7.4804 11.4811L10.1471 8.81442C10.3206 8.64085 10.3206 8.35945 10.1471 8.18588L7.48039 5.51921C7.30683 5.34565 7.02542 5.34565 6.85185 5.51921Z" fill="#191E26"/>
</mask>
<g mask="url(#mask0_7276_20659)">
<rect x="0.5" y="0.5" width="16" height="16" fill="#191E26"/>
</g>
</svg>
