<svg width="24" height="24" viewBox="0 0 24 24" fill="none" xmlns="http://www.w3.org/2000/svg">
<g id="Shape">
<path id="&#236;&#155;&#144;&#235;&#179;&#184;" fill-rule="evenodd" clip-rule="evenodd" d="M6.53403 5.26184C6.18259 4.91033 5.61274 4.91027 5.26123 5.2617C4.90972 5.61313 4.90966 6.18298 5.26109 6.53449L10.7269 12.0015L5.26402 17.4655C4.91258 17.817 4.91265 18.3869 5.26416 18.7383C5.61567 19.0898 6.18552 19.0897 6.53695 18.7382L11.9995 13.2744L17.4621 18.7382C17.8135 19.0897 18.3833 19.0898 18.7349 18.7383C19.0864 18.3869 19.0864 17.817 18.735 17.4655L13.2722 12.0015L18.7379 6.53449C19.0894 6.18298 19.0893 5.61313 18.7378 5.2617C18.3863 4.91027 17.8164 4.91033 17.465 5.26184L11.9995 10.7285L6.53403 5.26184Z" fill="#191E26"/>
</g>
</svg>
