<svg width="40" height="40" viewBox="0 0 40 40" fill="none" xmlns="http://www.w3.org/2000/svg">
<path d="M0.5 20C0.5 9.23045 9.23045 0.5 20 0.5C30.7696 0.5 39.5 9.23045 39.5 20C39.5 30.7696 30.7696 39.5 20 39.5C9.23045 39.5 0.5 30.7696 0.5 20Z" fill="#E1E5EC"/>
<path d="M0.5 20C0.5 9.23045 9.23045 0.5 20 0.5C30.7696 0.5 39.5 9.23045 39.5 20C39.5 30.7696 30.7696 39.5 20 39.5C9.23045 39.5 0.5 30.7696 0.5 20Z" stroke="#E1E5EC"/>
<mask id="mask0_9712_95246" style="mask-type:alpha" maskUnits="userSpaceOnUse" x="10" y="11" width="17" height="18">
<g clip-path="url(#clip0_9712_95246)">
<path fill-rule="evenodd" clip-rule="evenodd" d="M22.0152 14.039C22.422 14.4244 22.422 15.0493 22.0152 15.4347L17.1962 20L22.0152 24.5653C22.422 24.9507 22.422 25.5756 22.0152 25.961C21.6084 26.3463 20.9489 26.3463 20.5421 25.961L14.9865 20.6978C14.7912 20.5127 14.6814 20.2617 14.6814 20C14.6814 19.7383 14.7912 19.4873 14.9865 19.3022L20.5421 14.039C20.9489 13.6537 21.6084 13.6537 22.0152 14.039Z" fill="#191E26"/>
</g>
</mask>
<g mask="url(#mask0_9712_95246)">
<rect width="16.6667" height="16.6667" transform="matrix(1 0 0 -1 10.168 28.3335)" fill="#A7AFBE"/>
</g>
<defs>
<clipPath id="clip0_9712_95246">
<rect width="16.6667" height="16.6667" fill="white" transform="matrix(1 0 0 -1 10.168 28.3335)"/>
</clipPath>
</defs>
</svg>
