<svg width="130" height="23" viewBox="0 0 130 23" fill="none" xmlns="http://www.w3.org/2000/svg">
<path d="M22.2785 11.4961C22.2785 17.5723 17.2867 22.4922 11.1471 22.4922C5.00756 22.4922 0 17.5723 0 11.4961C0 5.41993 4.98397 0.5 11.1471 0.5C17.3103 0.5 22.2785 5.42769 22.2785 11.4961Z" fill="white"/>
<path d="M11.1546 21.9801C17.0112 21.9801 21.7593 17.2852 21.7593 11.5039C21.7593 5.7226 17.0033 1.01996 11.1467 1.01996C5.29018 1.01996 0.53418 5.71484 0.53418 11.5039C0.53418 17.293 5.28232 21.9801 11.1467 21.9801H11.1546Z" fill="#0083CA"/>
<mask id="mask0_25_18051" style="mask-type:luminance" maskUnits="userSpaceOnUse" x="0" y="1" width="22" height="21">
<path d="M11.1546 21.9801C17.0112 21.9801 21.7593 17.2852 21.7593 11.5039C21.7593 5.7226 17.0033 1.02771 11.1467 1.02771C5.29018 1.02771 0.53418 5.71484 0.53418 11.5039C0.53418 17.293 5.28232 21.9801 11.1467 21.9801H11.1546Z" fill="white"/>
</mask>
<g mask="url(#mask0_25_18051)">
<path d="M11.2416 16.5558C15.9111 16.5558 19.9046 17.844 21.6261 19.6676C22.1922 18.3717 22.5066 16.9283 22.5066 15.4306C22.5066 9.41645 17.4597 4.55084 11.2416 4.55084C5.02338 4.55084 -0.015625 9.41645 -0.015625 15.4306C-0.015625 16.9283 0.306683 18.3639 0.872686 19.6676C2.58642 17.844 6.58775 16.5558 11.2494 16.5558H11.2416Z" fill="#0083CA"/>
<path d="M11.2414 16.5635C15.8952 16.5635 19.8808 17.8439 21.5945 19.6443C22.1605 18.3561 22.475 16.9282 22.475 15.4383C22.475 9.47075 17.4438 4.62842 11.2414 4.62842C5.03891 4.62842 0.015625 9.48627 0.015625 15.4538C0.015625 16.9438 0.330071 18.3639 0.896075 19.6521C2.60195 17.8439 6.59542 16.5713 11.2414 16.5713V16.5635Z" fill="#0085CC"/>
<path d="M11.2412 16.579C15.8872 16.579 19.857 17.8439 21.5708 19.6365C22.1368 18.3639 22.4512 16.9438 22.4512 15.4693C22.4512 9.54836 17.4279 4.72931 11.2412 4.72931C5.05448 4.72931 0.0390625 9.54836 0.0390625 15.4693C0.0390625 16.9438 0.353509 18.3561 0.919513 19.6365C2.62538 17.8439 6.60313 16.579 11.2412 16.579Z" fill="#0087CD"/>
<path d="M11.2411 16.5868C15.8713 16.5868 19.8412 17.844 21.5392 19.621C22.1052 18.3561 22.4196 16.9515 22.4196 15.4849C22.4196 9.61822 17.4121 4.82245 11.2411 4.82245C5.07006 4.82245 0.0625 9.61822 0.0625 15.4926C0.0625 16.9593 0.376946 18.3561 0.94295 19.6288C2.64096 17.8517 6.61085 16.5946 11.2332 16.5946L11.2411 16.5868Z" fill="#0088CE"/>
<path d="M11.2419 16.6024C15.8642 16.6024 19.8184 17.8517 21.5164 19.6133C22.0824 18.3562 22.389 16.9671 22.389 15.5082C22.389 9.68808 17.3971 4.91559 11.2419 4.91559C5.08656 4.91559 0.0947266 9.68808 0.0947266 15.5082C0.0947266 16.9593 0.409173 18.3484 0.975177 19.6055C2.67319 17.844 6.62735 16.5946 11.2419 16.5946V16.6024Z" fill="#008ACF"/>
<path d="M11.2338 16.6178C15.8405 16.6178 19.7868 17.8517 21.4848 19.5977C22.0429 18.3561 22.3574 16.9748 22.3574 15.5314C22.3574 9.75787 17.3734 5.00867 11.2338 5.00867C5.09428 5.00867 0.118164 9.75787 0.118164 15.5314C0.118164 16.9748 0.43261 18.3484 0.990753 19.5977C2.6809 17.8517 6.6272 16.6178 11.2338 16.6178Z" fill="#008CD0"/>
<path d="M11.2337 16.6256C15.8324 16.6256 19.763 17.8517 21.4532 19.5822C22.0113 18.3484 22.3257 16.9748 22.3257 15.547C22.3257 9.81997 17.3575 5.10181 11.2337 5.10181C5.10981 5.10181 0.149414 9.82773 0.149414 15.5547C0.149414 16.9826 0.46386 18.3484 1.022 19.5822C2.71215 17.8517 6.64273 16.6256 11.2337 16.6256Z" fill="#008ED2"/>
<path d="M11.2335 16.6334C15.8166 16.6334 19.7393 17.844 21.4294 19.5667C21.9876 18.3406 22.302 16.9826 22.302 15.5703C22.302 9.88983 17.3495 5.19495 11.2414 5.19495C5.13324 5.19495 0.172852 9.89759 0.172852 15.5703C0.172852 16.9904 0.487298 18.3406 1.04544 19.5667C2.72773 17.8517 6.65831 16.6334 11.2335 16.6334Z" fill="#0090D3"/>
<path d="M11.2333 16.6489C15.8085 16.6489 19.7155 17.8518 21.3978 19.559C21.9559 18.3484 22.2625 16.9981 22.2625 15.5936C22.2625 9.96745 17.3178 5.28809 11.2254 5.28809C5.13305 5.28809 0.204102 9.96745 0.204102 15.5936C0.204102 16.9981 0.518548 18.3406 1.07669 19.559C2.75898 17.8518 6.67384 16.6489 11.2333 16.6489Z" fill="#0091D4"/>
<path d="M11.2341 16.6644C15.7936 16.6644 19.7006 17.8595 21.375 19.5434C21.9332 18.3406 22.2398 17.0059 22.2398 15.609C22.2398 10.0295 17.3108 5.38116 11.2341 5.38116C5.15746 5.38116 0.228516 10.0372 0.228516 15.6168C0.228516 17.0136 0.542962 18.3406 1.09324 19.5434C2.76767 17.8517 6.67467 16.6644 11.2263 16.6644H11.2341Z" fill="#0093D5"/>
<path d="M11.2339 16.6722C15.7856 16.6722 19.6768 17.8517 21.3513 19.5279C21.9094 18.3406 22.216 17.0136 22.216 15.6323C22.216 10.0993 17.3028 5.4743 11.2418 5.4743C5.18085 5.4743 0.259766 10.0993 0.259766 15.6323C0.259766 17.0136 0.574212 18.3329 1.12449 19.5279C2.79106 17.8517 6.69019 16.6722 11.2339 16.6722Z" fill="#0095D7"/>
<path d="M11.2259 16.6799C15.7618 16.6799 19.6452 17.8517 21.3118 19.5124C21.8699 18.3328 22.1765 17.0214 22.1765 15.6478C22.1765 10.1692 17.2712 5.55963 11.2259 5.55963C5.18071 5.55963 0.283203 10.1692 0.283203 15.6556C0.283203 17.0291 0.589788 18.3406 1.14793 19.5201C2.8145 17.8595 6.69791 16.6877 11.2259 16.6877V16.6799Z" fill="#0097D8"/>
<path d="M11.2257 16.6954C15.7538 16.6954 19.6215 17.8595 21.288 19.5046C21.8383 18.3328 22.1449 17.0291 22.1449 15.6711C22.1449 10.239 17.2553 5.66052 11.2257 5.66052C5.19623 5.66052 0.314453 10.239 0.314453 15.6711C0.314453 17.0291 0.621038 18.3328 1.17918 19.4969C2.83789 17.8517 6.71344 16.6877 11.2336 16.6877L11.2257 16.6954Z" fill="#0099D9"/>
<path d="M11.2256 16.711C15.7379 16.711 19.6056 17.8595 21.2564 19.4891C21.8067 18.3328 22.1133 17.0369 22.1133 15.6944C22.1133 10.3089 17.2394 5.75366 11.2256 5.75366C5.21181 5.75366 0.337891 10.3089 0.337891 15.6944C0.337891 17.0447 0.644476 18.3328 1.19476 19.4891C2.85346 17.8595 6.71329 16.711 11.2177 16.711H11.2256Z" fill="#009BDA"/>
<path d="M11.2254 16.7188C15.7298 16.7188 19.5818 17.8595 21.2327 19.4736C21.7829 18.3251 22.0895 17.0447 22.0895 15.7099C22.0895 10.371 17.2235 5.83905 11.2254 5.83905C5.22734 5.83905 0.369141 10.3787 0.369141 15.7177C0.369141 17.0525 0.675726 18.3329 1.22601 19.4814C2.87685 17.8673 6.73668 16.7265 11.2254 16.7265V16.7188Z" fill="#009DDC"/>
<path d="M11.2262 16.7343C15.715 16.7343 19.5591 17.8673 21.2099 19.4659C21.7602 18.3251 22.0668 17.0602 22.0668 15.741C22.0668 10.4486 17.2164 5.94769 11.2341 5.94769C5.25175 5.94769 0.393555 10.4486 0.393555 15.7332C0.393555 17.0602 0.70014 18.3251 1.25042 19.4581C2.90126 17.8595 6.74537 16.7265 11.2262 16.7265V16.7343Z" fill="#009FDD"/>
<path d="M11.2182 16.742C15.699 16.742 19.5274 17.8595 21.1704 19.4503C21.7207 18.3251 22.0194 17.0679 22.0194 15.7565C22.0194 10.5184 17.1769 6.03302 11.2103 6.03302C5.2437 6.03302 0.424805 10.5184 0.424805 15.7565C0.424805 17.0679 0.73139 18.3251 1.28167 19.4503C2.92465 17.8672 6.7609 16.742 11.226 16.742H11.2182Z" fill="#00A1DE"/>
<path d="M11.218 16.7576C15.6832 16.7576 19.5037 17.8673 21.1467 19.4348C21.697 18.3173 21.9957 17.0757 21.9957 15.772C21.9957 10.5805 17.1689 6.11841 11.218 6.11841C5.26713 6.11841 0.448242 10.5882 0.448242 15.7798C0.448242 17.0757 0.754827 18.3251 1.29725 19.4426C2.93237 17.8673 6.76075 16.7653 11.218 16.7653V16.7576Z" fill="#00A3DF"/>
<path d="M11.2178 16.7653C15.6673 16.7653 19.4799 17.8595 21.115 19.4193C21.6653 18.3096 21.964 17.0757 21.964 15.7953C21.964 10.6503 17.153 6.2193 11.2178 6.2193C5.28266 6.2193 0.479492 10.6581 0.479492 15.7953C0.479492 17.0835 0.786077 18.3174 1.3285 19.4193C2.96362 17.8595 6.77628 16.7653 11.2178 16.7653Z" fill="#00A5E1"/>
<path d="M11.2177 16.7808C15.6592 16.7808 19.464 17.8672 21.0913 19.4115C21.6337 18.3173 21.9403 17.0912 21.9403 15.8186C21.9403 10.7201 17.1371 6.31238 11.2177 6.31238C5.29824 6.31238 0.50293 10.7201 0.50293 15.8186C0.50293 17.0912 0.801654 18.3173 1.35193 19.4115C2.97919 17.8672 6.784 16.7808 11.2177 16.7808Z" fill="#00A7E2"/>
<path d="M11.2175 16.7886C15.6433 16.7886 19.4403 17.8673 21.0675 19.396C21.6099 18.3096 21.9087 17.099 21.9087 15.8341C21.9087 10.79 17.1212 6.39777 11.2175 6.39777C5.31377 6.39777 0.53418 10.79 0.53418 15.8341C0.53418 17.099 0.832904 18.3096 1.37532 19.396C3.00258 17.8673 6.79166 16.7886 11.2175 16.7886Z" fill="#00A9E3"/>
<path d="M11.2105 16.8041C15.6284 16.8041 19.4097 17.8673 21.0291 19.3805C21.5715 18.3018 21.8702 17.1068 21.8702 15.8574C21.8702 10.8599 17.0985 6.49866 11.2105 6.49866C5.32246 6.49866 0.558594 10.8599 0.558594 15.8574C0.558594 17.1068 0.857318 18.3096 1.39974 19.3805C3.01914 17.8673 6.80822 16.8041 11.2105 16.8041Z" fill="#00ABE5"/>
<path d="M11.2103 16.8119C15.6125 16.8119 19.3859 17.8672 21.0053 19.3649C21.5477 18.3018 21.8464 17.1145 21.8464 15.8729C21.8464 10.9219 17.0826 6.58398 11.2103 6.58398C5.33799 6.58398 0.589844 10.9297 0.589844 15.8806C0.589844 17.1223 0.888568 18.3096 1.43099 19.3727C3.05039 17.875 6.82374 16.8196 11.2181 16.8196L11.2103 16.8119Z" fill="#00ADE6"/>
<path d="M11.2101 16.8274C15.6045 16.8274 19.3621 17.875 20.9737 19.3572C21.5161 18.3018 21.8148 17.13 21.8148 15.9039C21.8148 10.9995 17.0667 6.68488 11.2101 6.68488C5.35356 6.68488 0.613281 10.9995 0.613281 15.8962C0.613281 17.1223 0.912005 18.3018 1.45443 19.3494C3.06596 17.8672 6.83146 16.8196 11.2101 16.8196V16.8274Z" fill="#00B0E7"/>
<path d="M11.21 16.8352C15.5886 16.8352 19.3463 17.8673 20.95 19.3417C21.4924 18.2941 21.7832 17.1378 21.7832 15.9195C21.7832 11.0694 17.0508 6.77802 11.21 6.77802C5.36914 6.77802 0.636719 11.0694 0.636719 15.9195C0.636719 17.1378 0.935443 18.3018 1.47 19.3417C3.07368 17.875 6.83131 16.8352 11.2021 16.8352H11.21Z" fill="#00B2E9"/>
<path d="M11.2098 16.8506C15.5806 16.8506 19.3225 17.875 20.9262 19.3261C21.4686 18.294 21.7595 17.1378 21.7595 15.9349C21.7595 11.1314 17.0349 6.86334 11.2098 6.86334C5.38466 6.86334 0.667969 11.1392 0.667969 15.9349C0.667969 17.1378 0.966693 18.294 1.50125 19.3261C3.10493 17.8672 6.84684 16.8506 11.2098 16.8506Z" fill="#00B4EA"/>
<path d="M11.2018 16.8584C15.5569 16.8584 19.2909 17.875 20.8867 19.3106C21.4291 18.2863 21.72 17.1455 21.72 15.9582C21.72 11.2013 17.0112 6.95648 11.2018 6.95648C5.39238 6.95648 0.691406 11.209 0.691406 15.9582C0.691406 17.1533 0.99013 18.294 1.52469 19.3106C3.1205 17.8672 6.85456 16.8584 11.2018 16.8584Z" fill="#00B6EB"/>
<path d="M11.2026 16.874C15.5498 16.874 19.2681 17.875 20.8639 19.3029C21.3985 18.2941 21.6972 17.1611 21.6972 15.9815C21.6972 11.2711 17.0041 7.05737 11.2104 7.05737C5.41675 7.05737 0.723633 11.2711 0.723633 15.9815C0.723633 17.1611 1.02236 18.2941 1.55692 19.3029C3.15273 17.875 6.87106 16.874 11.2104 16.874H11.2026Z" fill="#00B9ED"/>
<path d="M11.2024 16.8817C15.5339 16.8817 19.2444 17.875 20.8323 19.2874C21.3669 18.2863 21.6578 17.1689 21.6578 16.0048C21.6578 11.3487 16.9725 7.15051 11.1946 7.15051C5.4166 7.15051 0.74707 11.341 0.74707 15.9971C0.74707 17.1689 1.04579 18.2863 1.57249 19.2874C3.16045 17.875 6.87878 16.8817 11.1946 16.8817H11.2024Z" fill="#03BBEE"/>
<path d="M11.2022 16.8972C15.5259 16.8972 19.2285 17.8828 20.8086 19.2718C21.3431 18.2785 21.634 17.1766 21.634 16.0203C21.634 11.4108 16.9644 7.23584 11.2022 7.23584C5.43999 7.23584 0.77832 11.4108 0.77832 16.0203C0.77832 17.1766 1.06918 18.2863 1.60374 19.2718C3.1917 17.875 6.8943 16.8972 11.2022 16.8972Z" fill="#12BDF0"/>
<path d="M11.2021 16.905C15.51 16.905 19.2047 17.875 20.7848 19.2563C21.3194 18.2785 21.6103 17.1844 21.6103 16.0359C21.6103 11.4729 16.9564 7.32898 11.2099 7.32898C5.46343 7.32898 0.801758 11.4807 0.801758 16.0436C0.801758 17.1921 1.09262 18.2863 1.62718 19.2641C3.20727 17.8828 6.90202 16.9128 11.2021 16.9128V16.905Z" fill="#1BC0F1"/>
<path d="M11.2019 16.9205C15.5019 16.9205 19.181 17.8828 20.7532 19.2486C21.2877 18.2785 21.5786 17.1921 21.5786 16.0669C21.5786 11.5505 16.9327 7.42987 11.2019 7.42987C5.47109 7.42987 0.833008 11.5505 0.833008 16.0591C0.833008 17.1921 1.12387 18.2785 1.65843 19.2486C3.23852 17.8828 6.91755 16.9205 11.2019 16.9205Z" fill="#20C4F4"/>
<path d="M11.2018 16.9438C15.494 16.9438 19.173 17.8983 20.7374 19.2563C21.2719 18.294 21.5549 17.2154 21.5549 16.0902C21.5549 11.6048 16.9168 7.50745 11.1939 7.50745C5.47099 7.50745 0.848633 11.6126 0.848633 16.0902C0.848633 17.2154 1.1395 18.294 1.66619 19.2563C3.23843 17.8983 6.91745 16.9438 11.2018 16.9438Z" fill="#32C5F4"/>
<path d="M11.2027 16.9748C15.487 16.9748 19.1582 17.9216 20.7304 19.2718C21.265 18.3173 21.548 17.2464 21.548 16.129C21.548 11.6747 16.9178 7.60059 11.2027 7.60059C5.48765 7.60059 0.857422 11.6747 0.857422 16.129C0.857422 17.2464 1.14828 18.3173 1.67498 19.2718C3.24721 17.9216 6.91838 16.9748 11.1948 16.9748H11.2027Z" fill="#40C7F4"/>
<path d="M11.2026 16.9981C15.4791 16.9981 19.1502 17.9371 20.7146 19.2796C21.2492 18.3251 21.5322 17.2697 21.5322 16.16C21.5322 11.7367 16.9098 7.68591 11.2026 7.68591C5.49541 7.68591 0.873047 11.7367 0.873047 16.16C0.873047 17.2697 1.16391 18.3328 1.69061 19.2873C3.26284 17.9448 6.92614 17.0058 11.1947 17.0058L11.2026 16.9981Z" fill="#4AC9F5"/>
<path d="M11.2025 17.0292C15.479 17.0292 19.1423 17.9681 20.7067 19.2951C21.2334 18.3484 21.5242 17.293 21.5242 16.1911C21.5242 11.7911 16.9019 7.76355 11.2025 7.76355C5.50317 7.76355 0.888672 11.7988 0.888672 16.1911C0.888672 17.293 1.17953 18.3484 1.70623 19.2951C3.2706 17.9604 6.9339 17.0292 11.2025 17.0292Z" fill="#54CAF5"/>
<path d="M11.2024 17.0524C15.471 17.0524 19.1265 17.9836 20.6908 19.3028C21.2175 18.3639 21.5084 17.3162 21.5084 16.2221C21.5084 11.8531 16.8939 7.84888 11.2024 7.84888C5.51094 7.84888 0.904297 11.8609 0.904297 16.2221C0.904297 17.3162 1.19516 18.3639 1.72186 19.3028C3.28623 17.9836 6.94167 17.0524 11.2024 17.0524Z" fill="#5DCCF5"/>
<path d="M11.2024 17.0757C15.4631 17.0757 19.1186 17.9992 20.6751 19.3106C21.2018 18.3794 21.4926 17.3396 21.4926 16.2531C21.4926 11.9152 16.886 7.93427 11.2024 7.93427C5.51875 7.93427 0.912109 11.923 0.912109 16.2531C0.912109 17.3396 1.20297 18.3794 1.72967 19.3184C3.29404 18.0069 6.94948 17.0835 11.1945 17.0835L11.2024 17.0757Z" fill="#65CDF6"/>
<path d="M11.2023 17.1068C15.4552 17.1068 19.1027 18.0225 20.6671 19.3262C21.1938 18.4027 21.4847 17.3706 21.4847 16.2842C21.4847 11.9773 16.8859 8.01965 11.2101 8.01965C5.53437 8.01965 0.927734 11.9773 0.927734 16.2842C0.927734 17.3629 1.2186 18.4027 1.73743 19.3262C3.3018 18.0225 6.94938 17.1068 11.1944 17.1068H11.2023Z" fill="#6CCFF6"/>
<path d="M11.2022 17.13C15.4551 17.13 19.0948 18.038 20.6513 19.3339C21.178 18.4104 21.4688 17.3861 21.4688 16.3152C21.4688 12.0316 16.8779 8.10498 11.21 8.10498C5.54214 8.10498 0.943359 12.0394 0.943359 16.323C0.943359 17.4016 1.23422 18.426 1.75306 19.3417C3.30957 18.0457 6.95715 17.1378 11.1943 17.1378L11.2022 17.13Z" fill="#73D1F6"/>
<path d="M11.2021 17.1611C15.4471 17.1611 19.0868 18.069 20.6355 19.3494C21.1622 18.4337 21.4452 17.4172 21.4452 16.354C21.4452 12.1015 16.8542 8.19812 11.1942 8.19812C5.53418 8.19812 0.958984 12.1015 0.958984 16.354C0.958984 17.4249 1.24985 18.4415 1.76868 19.3572C3.32519 18.069 6.96491 17.1611 11.2021 17.1611Z" fill="#7AD2F7"/>
<path d="M11.202 17.1843C15.4391 17.1843 19.071 18.0845 20.6275 19.3649C21.1542 18.457 21.4372 17.4482 21.4372 16.385C21.4372 12.1635 16.8542 8.2757 11.202 8.2757C5.5498 8.2757 0.974609 12.1635 0.974609 16.385C0.974609 17.4482 1.26547 18.457 1.78431 19.3649C3.34082 18.0845 6.97267 17.1843 11.202 17.1843Z" fill="#81D4F7"/>
<path d="M11.2019 17.2154C15.4312 17.2154 19.0631 18.1078 20.6117 19.3805C21.1384 18.4803 21.4214 17.4792 21.4214 16.4239C21.4214 12.2334 16.8462 8.36884 11.2019 8.36884C5.55762 8.36884 0.982422 12.2256 0.982422 16.4161C0.982422 17.4715 1.27328 18.4725 1.79212 19.3727C3.34077 18.1001 6.97263 17.2076 11.1941 17.2076L11.2019 17.2154Z" fill="#88D6F8"/>
<path d="M11.2018 17.2387C15.4311 17.2387 19.0551 18.1234 20.5959 19.3883C21.1148 18.4958 21.4056 17.4948 21.4056 16.4549C21.4056 12.2877 16.8383 8.45422 11.2018 8.45422C5.56538 8.45422 0.998047 12.2877 0.998047 16.4472C0.998047 17.4948 1.28891 18.4881 1.80775 19.3883C3.35639 18.1311 6.98039 17.2387 11.2018 17.2387Z" fill="#8ED8F8"/>
<path d="M11.2027 17.2697C15.4242 17.2697 19.0403 18.1544 20.5889 19.4037C21.1078 18.5113 21.3986 17.5258 21.3986 16.4937C21.3986 12.3575 16.8313 8.5473 11.2106 8.5473C5.58984 8.5473 1.01465 12.3498 1.01465 16.4782C1.01465 17.518 1.30551 18.5036 1.82435 19.396C3.373 18.1466 6.98913 17.2619 11.2027 17.2619V17.2697Z" fill="#94DAF8"/>
<path d="M11.2026 17.293C15.4162 17.293 19.0323 18.1699 20.5731 19.4115C21.092 18.5269 21.3828 17.5491 21.3828 16.517C21.3828 12.4119 16.8233 8.62494 11.2026 8.62494C5.58189 8.62494 1.03027 12.4119 1.03027 16.517C1.03027 17.5491 1.32114 18.5269 1.83211 19.4115C3.3729 18.1699 6.98903 17.293 11.1948 17.293H11.2026Z" fill="#9BDCF9"/>
<path d="M11.2025 17.3163C15.4161 17.3163 19.0244 18.1854 20.5573 19.4193C21.0761 18.5424 21.367 17.5723 21.367 16.548C21.367 12.4739 16.8154 8.71027 11.2025 8.71027C5.58965 8.71027 1.0459 12.4739 1.0459 16.548C1.0459 17.5723 1.33676 18.5424 1.84774 19.4193C3.38852 18.1854 7.00466 17.3163 11.2025 17.3163Z" fill="#A1DDF9"/>
<path d="M11.2025 17.3473C15.4082 17.3473 19.0086 18.2087 20.5494 19.4348C21.0682 18.5657 21.3512 17.5957 21.3512 16.5868C21.3512 12.536 16.8075 8.79565 11.2025 8.79565C5.59746 8.79565 1.05371 12.536 1.05371 16.5791C1.05371 17.5957 1.33671 18.5657 1.85555 19.4348C3.39634 18.2087 7.00461 17.3473 11.1946 17.3473H11.2025Z" fill="#A7DFF9"/>
<path d="M11.2024 17.3706C15.4002 17.3706 19.0006 18.2242 20.5336 19.4425C21.0524 18.5734 21.3354 17.6189 21.3354 16.6101C21.3354 12.5903 16.7995 8.87323 11.2024 8.87323C5.60523 8.87323 1.06934 12.5981 1.06934 16.6101C1.06934 17.6189 1.35234 18.5812 1.87117 19.4425C3.41196 18.2242 7.01237 17.3706 11.2024 17.3706Z" fill="#ADE1FA"/>
<path d="M11.2023 17.4016C15.3923 17.4016 18.9848 18.2553 20.5177 19.4581C21.0366 18.5967 21.3196 17.65 21.3196 16.6489C21.3196 12.6602 16.7837 8.96637 11.2023 8.96637C5.62085 8.96637 1.08496 12.6602 1.08496 16.6411C1.08496 17.6422 1.36796 18.5967 1.8868 19.4503C3.41973 18.2397 7.02014 17.3939 11.2023 17.3939V17.4016Z" fill="#B3E3FA"/>
<path d="M11.2022 17.4249C15.3922 17.4249 18.9769 18.2707 20.5098 19.4658C21.0286 18.6122 21.3116 17.6655 21.3116 16.6799C21.3116 12.7222 16.7836 9.0517 11.2022 9.0517C5.62075 9.0517 1.10059 12.7222 1.10059 16.6722C1.10059 17.6655 1.38359 18.6122 1.90242 19.4658C3.43535 18.2707 7.0279 17.4249 11.2022 17.4249Z" fill="#B9E5FA"/>
<path d="M11.2021 17.456C15.3842 17.456 18.9689 18.2941 20.494 19.4814C21.0049 18.6355 21.2958 17.6965 21.2958 16.711C21.2958 12.7766 16.7756 9.13708 11.2021 9.13708C5.62852 9.13708 1.11621 12.7844 1.11621 16.711C1.11621 17.6965 1.39921 18.6355 1.91019 19.4814C3.44311 18.2941 7.0278 17.456 11.2021 17.456Z" fill="#BEE7FB"/>
<path d="M11.202 17.4793C15.3763 17.4793 18.9531 18.3096 20.4782 19.4891C20.9892 18.651 21.28 17.7198 21.28 16.742C21.28 12.8387 16.7677 9.22247 11.202 9.22247C5.63633 9.22247 1.12402 12.8387 1.12402 16.742C1.12402 17.7198 1.40703 18.651 1.918 19.4891C3.44307 18.3096 7.02775 17.4793 11.1942 17.4793H11.202Z" fill="#C4E9FB"/>
<path d="M11.2019 17.5025C15.3683 17.5025 18.9452 18.3251 20.4702 19.4969C20.9812 18.6588 21.2721 17.7431 21.2721 16.7731C21.2721 12.9008 16.7598 9.30005 11.2098 9.30005C5.65982 9.30005 1.13965 12.9008 1.13965 16.7731C1.13965 17.7431 1.42265 18.6665 1.93363 19.5046C3.45869 18.3329 7.03552 17.5103 11.1941 17.5103L11.2019 17.5025Z" fill="#CAEBFC"/>
<path d="M11.2018 17.5336C15.3683 17.5336 18.9372 18.3562 20.4544 19.5124C20.9654 18.6821 21.2484 17.7664 21.2484 16.8041C21.2484 12.9629 16.744 9.38544 11.194 9.38544C5.644 9.38544 1.15527 12.9629 1.15527 16.8041C1.15527 17.7741 1.43828 18.6821 1.94925 19.5124C3.47432 18.3484 7.04328 17.5336 11.2018 17.5336Z" fill="#CFEDFC"/>
<path d="M11.2027 17.5568C15.3613 17.5568 18.9224 18.3716 20.4396 19.5201C20.9506 18.6976 21.2336 17.7896 21.2336 16.8351C21.2336 13.0171 16.737 9.47076 11.1949 9.47076C5.65274 9.47076 1.17188 13.0249 1.17188 16.8351C1.17188 17.7974 1.45488 18.6976 1.96585 19.5201C3.49092 18.3639 7.05202 17.5568 11.2027 17.5568Z" fill="#D5EFFC"/>
<path d="M11.2027 17.5879C15.3534 17.5879 18.9145 18.3949 20.4317 19.5357C20.9426 18.7209 21.2256 17.8207 21.2256 16.874C21.2256 13.087 16.7369 9.5639 11.2027 9.5639C5.66841 9.5639 1.17969 13.087 1.17969 16.874C1.17969 17.8285 1.46269 18.7209 1.97366 19.5434C3.49087 18.4027 7.05984 17.5956 11.2027 17.5879Z" fill="#DBF1FD"/>
<path d="M11.2026 17.6111C15.3454 17.6111 18.9065 18.4104 20.4158 19.5434C20.9268 18.7364 21.2098 17.8439 21.2098 16.8972C21.2098 13.1413 16.729 9.64148 11.2026 9.64148C5.67617 9.64148 1.19531 13.1491 1.19531 16.905C1.19531 17.8517 1.47831 18.7441 1.98143 19.5512C3.49863 18.4182 7.05974 17.6189 11.1947 17.6111H11.2026Z" fill="#E0F3FD"/>
<path d="M11.2025 17.6422C15.3453 17.6422 18.8907 18.4337 20.4 19.559C20.911 18.7519 21.194 17.8672 21.194 16.936C21.194 13.2112 16.7131 9.73462 11.2025 9.73462C5.6918 9.73462 1.21094 13.2112 1.21094 16.936C1.21094 17.875 1.49394 18.7597 1.99705 19.559C3.51426 18.4337 7.0675 17.6422 11.1946 17.6344L11.2025 17.6422Z" fill="#E6F5FD"/>
<path d="M11.2024 17.6655C15.3373 17.6655 18.8827 18.457 20.3921 19.5667C20.8952 18.7674 21.186 17.8906 21.186 16.9671C21.186 13.2733 16.713 9.82001 11.2024 9.82001C5.6917 9.82001 1.22656 13.2733 1.22656 16.9671C1.22656 17.8983 1.50956 18.7752 2.01268 19.5745C3.52202 18.457 7.07527 17.6733 11.2024 17.6655Z" fill="#EBF7FE"/>
<path d="M11.2023 17.6965C15.3294 17.6965 18.8748 18.4803 20.3762 19.5822C20.8794 18.7907 21.1702 17.9216 21.1702 16.9981C21.1702 13.3276 16.7051 9.89758 11.2023 9.89758C5.69946 9.89758 1.24219 13.3353 1.24219 16.9981C1.24219 17.9216 1.52519 18.7907 2.0283 19.5822C3.53765 18.4725 7.08303 17.6888 11.2023 17.6888V17.6965Z" fill="#F1FAFE"/>
<path d="M11.2022 17.7198C15.3215 17.7198 18.859 18.4958 20.3683 19.59C20.8715 18.8063 21.1545 17.9449 21.1545 17.0292C21.1545 13.3897 16.6972 9.98297 11.2022 9.98297C5.70728 9.98297 1.25 13.3974 1.25 17.0292C1.25 17.9449 1.533 18.8063 2.03612 19.59C3.54546 18.4881 7.08298 17.7198 11.1944 17.7121L11.2022 17.7198Z" fill="#F7FCFE"/>
<path d="M11.2021 17.7431C15.3214 17.7431 18.851 18.5113 20.3525 19.6055C20.8556 18.8295 21.1386 17.9681 21.1386 17.0679C21.1386 13.4595 16.6814 10.076 11.2021 10.076C5.7229 10.076 1.26562 13.4595 1.26562 17.0679C1.26562 17.9759 1.54863 18.8295 2.05174 19.6133C3.56108 18.5191 7.09075 17.7508 11.2021 17.7508V17.7431Z" fill="white"/>
</g>
<path d="M11.147 14.1423C7.54655 14.1423 4.20556 14.7476 1.44629 15.772C3.10499 19.427 6.81546 21.9801 11.147 21.9801C15.4785 21.9801 19.1811 19.427 20.8398 15.772C18.0805 14.7476 14.7395 14.1423 11.147 14.1423Z" fill="#0083CA"/>
<path d="M25.1719 14.7709H32.1919V20.7385H34.9354V14.7709H41.9555V13.087H25.1719V14.7709Z" fill="#0067AC"/>
<path d="M29.2757 10.2701C29.8181 10.6814 30.4706 11.015 31.1938 11.2556C31.917 11.4962 32.7189 11.6203 33.56 11.6203C34.4012 11.6203 35.1794 11.4962 35.9026 11.2556C36.6337 11.015 37.2784 10.6814 37.8208 10.2701C38.3711 9.84326 38.8113 9.33885 39.1257 8.77236C39.448 8.20587 39.6131 7.59282 39.6131 6.94097C39.6131 6.28912 39.448 5.69159 39.1257 5.1251C38.8034 4.55861 38.3632 4.0542 37.8129 3.62739C37.2705 3.2161 36.618 2.87466 35.8948 2.62633C35.1716 2.37801 34.3776 2.25385 33.5443 2.25385C32.711 2.25385 31.9013 2.37801 31.1781 2.62633C30.4549 2.87466 29.8024 3.20834 29.26 3.62739C28.7097 4.0542 28.2773 4.55861 27.9629 5.1251C27.6484 5.69159 27.4912 6.30464 27.4912 6.94097C27.4912 7.5773 27.6484 8.20587 27.9629 8.77236C28.2773 9.33885 28.7097 9.84326 29.26 10.2701H29.2757ZM30.2505 6.93321C30.2505 6.53744 30.337 6.1572 30.5099 5.79247C30.6828 5.42774 30.9265 5.10958 31.2253 4.83797C31.524 4.55861 31.8777 4.33356 32.2708 4.1706C32.6717 4.00764 33.1041 3.93004 33.5679 3.93004C34.0317 3.93004 34.4405 4.00764 34.8414 4.1706C35.2423 4.33356 35.5961 4.55085 35.8948 4.83797C36.1935 5.10182 36.4372 5.42774 36.618 5.79247C36.7988 6.1572 36.8853 6.53744 36.8853 6.92545C36.8853 7.31346 36.791 7.71698 36.618 8.08171C36.4372 8.44644 36.1935 8.7646 35.8948 9.03621C35.5961 9.31557 35.2423 9.53286 34.8493 9.68806C34.0396 9.99847 33.0648 9.99071 32.2787 9.68806C31.8777 9.53286 31.5318 9.31557 31.2331 9.03621C30.9344 8.7646 30.6986 8.44644 30.5256 8.08171C30.3527 7.71698 30.2662 7.32898 30.2662 6.92545L30.2505 6.93321Z" fill="#0067AC"/>
<path d="M56.8841 2.57196H54.7459L54.8795 2.73492C54.9346 2.797 54.966 2.86685 54.9739 2.95221C55.0368 3.20829 55.0682 3.61182 55.0682 4.16279V12.5748C55.0682 13.1025 54.7538 13.4517 54.117 13.6534C53.9048 13.7155 53.5667 13.7621 53.1265 13.7854H47.3014C46.9948 13.7854 46.8926 13.7155 46.8612 13.6767C46.7983 13.5991 46.7668 13.4672 46.7668 13.2887V9.93633H51.798C52.0967 9.93633 52.3011 9.88201 52.419 9.75785C52.5369 9.64145 52.5919 9.46297 52.5919 9.2224V3.8291C52.5919 3.5963 52.5291 3.41006 52.4111 3.29365C52.2854 3.17725 52.081 3.11517 51.7822 3.11517H43.929V4.79912H49.8484V8.25238H43.7324L43.9132 8.61711C43.984 8.83439 44.0233 9.09048 44.0233 9.40089V14.2432C44.0233 14.5459 44.1333 14.8097 44.3377 15.027C44.6286 15.3219 45.0924 15.4771 45.7213 15.4771H52.5919L53.6768 15.4383C54.3293 15.3684 54.7852 15.2598 55.0682 15.0813V20.5522H57.8118V3.30917C57.8118 2.98325 57.6545 2.59524 56.8841 2.57196Z" fill="#0067AC"/>
<path d="M62.0564 13.8785C62.1429 13.9872 62.1901 14.0803 62.2137 14.1501C62.308 14.3907 62.363 14.6701 62.363 14.9882V18.977C62.363 19.3417 62.4967 19.6676 62.7561 19.9392C63.0863 20.2729 63.5972 20.4436 64.2733 20.4436H75.0195V13.7156H61.9307L62.0486 13.8708L62.0564 13.8785ZM65.1066 18.2785V15.4073H72.2759V18.7597H65.6254C65.4367 18.7597 65.3031 18.7131 65.2245 18.6355C65.1459 18.5501 65.1066 18.4337 65.1066 18.2863V18.2785Z" fill="#0067AC"/>
<path d="M75.0041 8.94305L75.0198 8.4464V3.52648C75.0198 3.29367 74.9255 3.07639 74.7525 2.89014C74.5717 2.7039 74.328 2.61078 74.0136 2.61078H62.1668V4.29473H72.2763V8.82665C72.2527 9.05945 72.2212 9.22242 72.1898 9.31554C72.0719 9.60266 71.8832 9.75011 71.5923 9.75011H60.3037V11.4341H77.0951V9.75011H74.784C74.894 9.5173 74.9648 9.25346 75.0119 8.94305H75.0041Z" fill="#0067AC"/>
<path d="M82.3695 8.64817C82.9198 8.99738 83.5644 9.27675 84.2955 9.47075C85.0266 9.67251 85.8284 9.77339 86.6695 9.77339C87.5107 9.77339 88.2889 9.67251 89.02 9.47075C89.7511 9.26899 90.4036 8.99738 90.9696 8.64817C91.5199 8.29897 91.9601 7.87992 92.2824 7.40655C92.6047 6.93318 92.7698 6.41325 92.7698 5.86228C92.7698 5.31131 92.6047 4.81466 92.2824 4.3413C91.9601 3.86793 91.5199 3.44888 90.9696 3.09967C90.4115 2.75047 89.759 2.4711 89.0279 2.26158C88.2968 2.05205 87.5028 1.95117 86.6774 1.95117C85.852 1.95117 85.0344 2.05205 84.3033 2.26158C83.5723 2.4711 82.9198 2.75047 82.3774 3.09967C81.8114 3.44888 81.3711 3.86793 81.0567 4.3413C80.7344 4.81466 80.5771 5.33459 80.5771 5.86228C80.5771 6.38997 80.7422 6.92542 81.0567 7.40655C81.3711 7.87992 81.8192 8.29897 82.3774 8.64817H82.3695ZM83.3364 5.86228C83.3364 5.5674 83.4229 5.28027 83.588 5.02419C83.7609 4.76034 83.9968 4.51978 84.2955 4.31802C84.5942 4.11625 84.948 3.95329 85.3567 3.82913C85.7655 3.70496 86.2057 3.64288 86.6695 3.64288C87.1334 3.64288 87.5579 3.70496 87.9588 3.82913C88.3676 3.95329 88.7213 4.11625 89.02 4.31802C89.3188 4.51978 89.5546 4.76034 89.7354 5.02419C89.9083 5.28027 89.9948 5.5674 89.9948 5.86228C89.9948 6.15717 89.9083 6.44429 89.7354 6.70814C89.5546 6.97974 89.3188 7.22031 89.02 7.42207C88.7213 7.62384 88.3676 7.7868 87.9588 7.9032C87.1334 8.136 86.1586 8.12824 85.3567 7.9032C84.948 7.7868 84.5942 7.62384 84.2955 7.42207C83.9968 7.22031 83.7609 6.97974 83.588 6.70814C83.415 6.44429 83.3364 6.15717 83.3364 5.85452V5.86228Z" fill="#0067AC"/>
<path d="M78.2744 12.1169H82.0949V14.3674C81.5997 14.7011 81.1988 15.0891 80.9 15.5236C80.5699 16.0048 80.3969 16.5325 80.3969 17.0757C80.3969 17.6189 80.562 18.1621 80.9 18.651C81.2302 19.1321 81.6783 19.5511 82.2443 19.9004C82.8103 20.2573 83.4864 20.5444 84.241 20.7462C84.9878 20.948 85.8133 21.0489 86.678 21.0489C87.5427 21.0489 88.3446 20.948 89.0992 20.7462C89.8539 20.5444 90.5221 20.2651 91.096 19.9004C91.662 19.5511 92.1101 19.1321 92.4481 18.651C92.7861 18.1698 92.9591 17.6344 92.9591 17.0757C92.9591 16.5169 92.7861 16.0048 92.4481 15.5236C92.1494 15.0968 91.7484 14.7088 91.2611 14.3829V12.1169H95.0816V10.433H78.2901V12.1169H78.2744ZM84.8385 12.1169H88.4939V13.281C87.9122 13.1646 87.299 13.1102 86.6623 13.1102C86.0255 13.1102 85.4124 13.1646 84.8306 13.281V12.1169H84.8385ZM83.4235 16.222C83.6043 15.9504 83.8558 15.7021 84.1781 15.4848C84.4926 15.2831 84.8621 15.1123 85.2866 14.9804C85.7111 14.8563 86.1749 14.7864 86.6623 14.7864C87.1497 14.7864 87.5899 14.8485 88.0223 14.9804C88.4468 15.1046 88.8162 15.2753 89.1307 15.4848C89.453 15.7021 89.7124 15.9504 89.8932 16.222C90.074 16.4937 90.1684 16.773 90.1684 17.0679C90.1684 17.3628 90.074 17.6654 89.8932 17.937C89.7045 18.2086 89.453 18.457 89.1307 18.6743C88.8162 18.876 88.4468 19.0467 88.0223 19.1709C87.1575 19.4192 86.1199 19.4115 85.2787 19.1709C84.8542 19.0467 84.4769 18.8838 84.1703 18.682C83.848 18.4647 83.5964 18.2164 83.4156 17.9448C83.2427 17.681 83.1562 17.3861 83.1562 17.0757C83.1562 16.7653 83.2427 16.4937 83.4156 16.2298L83.4235 16.222Z" fill="#0067AC"/>
<path d="M110.041 15.9815L110.057 15.4848V4.41887C110.057 4.18607 109.963 3.96878 109.79 3.78254C109.609 3.5963 109.365 3.50317 109.051 3.50317H97.2039V5.18712H107.313V15.8651C107.29 16.0979 107.258 16.2608 107.227 16.354C107.117 16.6411 106.92 16.7885 106.629 16.7885H95.3408V18.4725H112.132V16.7885H109.821C109.931 16.5557 110.002 16.2919 110.049 15.9815H110.041Z" fill="#0067AC"/>
<path d="M114.978 5.64499L115.135 5.9166C115.221 6.12612 115.261 6.42101 115.261 6.79349V9.05946C115.261 9.3621 115.371 9.62595 115.575 9.84323C115.866 10.1381 116.33 10.2933 116.959 10.2933H128.011V8.60937H118.539C118.248 8.60937 118.138 8.54729 118.098 8.50073C118.036 8.42312 118.004 8.2912 118.004 8.11272V7.33671H127.123C127.422 7.33671 127.626 7.28238 127.744 7.15822C127.854 7.04182 127.917 6.86334 127.917 6.62277V3.36351C127.917 3.12295 127.862 2.95223 127.752 2.83582C127.642 2.71942 127.438 2.6651 127.123 2.6651H115.158V4.34905H125.166V5.63723H114.97L114.978 5.64499Z" fill="#0067AC"/>
<path d="M127.28 13.9949H124.694L124.922 14.1734C125.008 14.2433 125.063 14.3286 125.103 14.4528C125.142 14.5847 125.166 14.7477 125.173 14.9494V15.803H118.004V14.7554C118.004 14.1346 117.642 14.0027 117.344 14.0027H114.82L115.04 14.1812C115.135 14.2588 115.19 14.3597 115.213 14.5071C115.237 14.6623 115.253 14.8175 115.253 14.9572V19.2175C115.253 19.5202 115.363 19.784 115.567 20.0013C115.858 20.2962 116.322 20.4514 116.951 20.4514H127.909V14.7554C127.909 14.5381 127.854 14.3597 127.752 14.22C127.642 14.0803 127.477 14.0027 127.265 14.0027L127.28 13.9949ZM118.004 18.2785V17.487H125.173V18.7519H118.523C118.138 18.7519 118.075 18.6665 118.067 18.6355C118.028 18.5269 118.004 18.4105 118.004 18.2708V18.2785Z" fill="#0067AC"/>
<path d="M113.193 11.3564V13.0482H120.213V15.0115H122.965V13.0482H129.985V11.3564H113.193Z" fill="#0067AC"/>
</svg>
