<svg width="24" height="28" viewBox="0 0 24 28" fill="none" xmlns="http://www.w3.org/2000/svg">
<path fill-rule="evenodd" clip-rule="evenodd" d="M1.2002 14C1.2002 8.03312 6.03337 3.19995 12.0002 3.19995C17.967 3.19995 22.8002 8.03312 22.8002 14C22.8002 19.9668 17.967 24.7999 12.0002 24.7999H4.22159C2.64701 24.7999 1.74799 23.0026 2.69236 21.7426L3.50622 20.6568C2.07044 18.8235 1.2002 16.5196 1.2002 14ZM12.0002 4.79995C6.91702 4.79995 2.8002 8.91678 2.8002 14C2.8002 16.3436 3.68375 18.4703 5.12476 20.1016C5.37591 20.3859 5.39286 20.8075 5.16534 21.111L3.97265 22.7022C3.81891 22.9074 3.96527 23.2 4.22159 23.2H12.0002C17.0834 23.2 21.2002 19.0831 21.2002 14C21.2002 8.91678 17.0834 4.79995 12.0002 4.79995Z" fill="#191E26"/>
<path d="M6 13.9995C6 13.2631 6.59695 12.6661 7.33333 12.6661C8.06971 12.6661 8.66667 13.2631 8.66667 13.9995C8.66667 14.7359 8.06971 15.3328 7.33333 15.3328C6.59695 15.3328 6 14.7359 6 13.9995Z" fill="#007EF4"/>
<path d="M10.667 13.9995C10.667 13.2631 11.2639 12.6661 12.0003 12.6661C12.7367 12.6661 13.3337 13.2631 13.3337 13.9995C13.3337 14.7359 12.7367 15.3328 12.0003 15.3328C11.2639 15.3328 10.667 14.7359 10.667 13.9995Z" fill="#007EF4"/>
<path d="M15.334 13.9995C15.334 13.2631 15.9309 12.6661 16.6673 12.6661C17.4037 12.6661 18.0007 13.2631 18.0007 13.9995C18.0007 14.7359 17.4037 15.3328 16.6673 15.3328C15.9309 15.3328 15.334 14.7359 15.334 13.9995Z" fill="#007EF4"/>
</svg>
