<svg width="24" height="24" viewBox="0 0 24 24" fill="none" xmlns="http://www.w3.org/2000/svg">
<g id="Shape">
<g id="Group">
<path id="Union" fill-rule="evenodd" clip-rule="evenodd" d="M3.89961 11.0546C3.89961 7.10165 7.09346 3.90193 11.0274 3.90193C14.9614 3.90193 18.1553 7.10165 18.1553 11.0546C18.1553 15.0075 14.9614 18.2072 11.0274 18.2072C7.09346 18.2072 3.89961 15.0075 3.89961 11.0546ZM11.0274 2.10193C6.09411 2.10193 2.09961 6.11278 2.09961 11.0546C2.09961 15.9963 6.09411 20.0072 11.0274 20.0072C12.9271 20.0072 14.6875 19.4125 16.1343 18.3989L19.363 21.6377C19.7139 21.9897 20.2838 21.9906 20.6358 21.6397C20.9878 21.2888 20.9887 20.7189 20.6378 20.3669L17.5007 17.22C19.0221 15.6142 19.9552 13.4431 19.9552 11.0546C19.9552 6.11278 15.9607 2.10193 11.0274 2.10193Z" fill="#191E26"/>
</g>
</g>
</svg>
