<svg width="17" height="16" viewBox="0 0 17 16" fill="none" xmlns="http://www.w3.org/2000/svg">
<mask id="mask0_9917_55925" style="mask-type:alpha" maskUnits="userSpaceOnUse" x="0" y="0" width="17" height="16">
<g clip-path="url(#clip0_9917_55925)">
<path fill-rule="evenodd" clip-rule="evenodd" d="M12.4987 2.66732H4.4987C3.76232 2.66732 3.16537 3.26427 3.16537 4.00065V12.0007C3.16537 12.737 3.76232 13.334 4.4987 13.334H12.4987C13.2351 13.334 13.832 12.737 13.832 12.0007V4.00065C13.832 3.26427 13.2351 2.66732 12.4987 2.66732ZM4.4987 1.33398C3.02594 1.33398 1.83203 2.52789 1.83203 4.00065V12.0007C1.83203 13.4734 3.02594 14.6673 4.4987 14.6673H12.4987C13.9715 14.6673 15.1654 13.4734 15.1654 12.0007V4.00065C15.1654 2.52789 13.9715 1.33398 12.4987 1.33398H4.4987Z" fill="#191E26"/>
<path fill-rule="evenodd" clip-rule="evenodd" d="M8.49684 4.95312C8.86503 4.95312 9.16351 5.2516 9.16351 5.61979V7.33408H10.8778C11.246 7.33408 11.5445 7.63255 11.5445 8.00074C11.5445 8.36893 11.246 8.66741 10.8778 8.66741H9.16351V10.3817C9.16351 10.7499 8.86503 11.0484 8.49684 11.0484C8.12865 11.0484 7.83017 10.7499 7.83017 10.3817V8.66741H6.11589C5.7477 8.66741 5.44922 8.36893 5.44922 8.00074C5.44922 7.63255 5.7477 7.33408 6.11589 7.33408H7.83017V5.61979C7.83017 5.2516 8.12865 4.95312 8.49684 4.95312Z" fill="#191E26"/>
</g>
</mask>
<g mask="url(#mask0_9917_55925)">
<rect x="0.5" width="16" height="16" fill="#333A46"/>
</g>
<defs>
<clipPath id="clip0_9917_55925">
<rect width="16.0001" height="16" fill="white" transform="translate(0.5)"/>
</clipPath>
</defs>
</svg>
