<svg width="20" height="20" viewBox="0 0 20 20" fill="none" xmlns="http://www.w3.org/2000/svg">
<mask id="mask0_7276_19618" style="mask-type:alpha" maskUnits="userSpaceOnUse" x="0" y="-1" width="20" height="22">
<path fill-rule="evenodd" clip-rule="evenodd" d="M3.57764 3.57734C3.90312 3.25195 4.43076 3.25201 4.75616 3.57748L15.5869 14.4108C15.9123 14.7363 15.9122 15.2639 15.5868 15.5893C15.2613 15.9147 14.7336 15.9147 14.4082 15.5892L3.5775 4.75585C3.25211 4.43038 3.25217 3.90274 3.57764 3.57734Z" fill="#191E26"/>
<path fill-rule="evenodd" clip-rule="evenodd" d="M15.5892 3.57734C15.9147 3.90274 15.9147 4.43038 15.5893 4.75585L4.7586 15.5892C4.4332 15.9147 3.90556 15.9147 3.58009 15.5893C3.25461 15.2639 3.25455 14.7363 3.57994 14.4108L14.4107 3.57748C14.7361 3.25201 15.2637 3.25195 15.5892 3.57734Z" fill="#191E26"/>
</mask>
<g mask="url(#mask0_7276_19618)">
<rect width="20" height="20" fill="#333A46"/>
</g>
</svg>
