<svg width="17" height="16" viewBox="0 0 17 16" fill="none" xmlns="http://www.w3.org/2000/svg">
<mask id="mask0_7276_18116" style="mask-type:alpha" maskUnits="userSpaceOnUse" x="0" y="-1" width="17" height="18">
<path fill-rule="evenodd" clip-rule="evenodd" d="M8.19938 13.3332C7.83119 13.3332 7.53271 13.0347 7.53271 12.6665V3.33317C7.53271 2.96498 7.83119 2.6665 8.19938 2.6665C8.56757 2.6665 8.86605 2.96498 8.86605 3.33317V12.6665C8.86605 13.0347 8.56757 13.3332 8.19938 13.3332Z" fill="#191E26"/>
<path fill-rule="evenodd" clip-rule="evenodd" d="M13.5329 7.99984C13.5329 8.36803 13.2344 8.6665 12.8662 8.6665H3.53288C3.16469 8.6665 2.86621 8.36803 2.86621 7.99984C2.86621 7.63165 3.16469 7.33317 3.53288 7.33317H12.8662C13.2344 7.33317 13.5329 7.63165 13.5329 7.99984Z" fill="#191E26"/>
</mask>
<g mask="url(#mask0_7276_18116)">
<rect x="0.199707" width="16" height="16" fill="#7C889F"/>
</g>
</svg>
