<svg width="17" height="16" viewBox="0 0 17 16" fill="none" xmlns="http://www.w3.org/2000/svg">
<path d="M0 8C0 3.58172 3.58172 0 8 0C12.4183 0 16 3.58172 16 8C16 12.4183 12.4183 16 8 16C3.58172 16 0 12.4183 0 8Z" fill="#191E26"/>
<mask id="mask0_7276_2497" style="mask-type:alpha" maskUnits="userSpaceOnUse" x="3" y="2" width="11" height="12">
<path fill-rule="evenodd" clip-rule="evenodd" d="M6.85185 5.01909C6.67829 5.19266 6.67829 5.47406 6.85185 5.64763L9.20426 8.00003L6.85185 10.3524C6.67829 10.526 6.67829 10.8074 6.85185 10.981C7.02542 11.1545 7.30683 11.1545 7.4804 10.981L10.1471 8.3143C10.3206 8.14073 10.3206 7.85932 10.1471 7.68576L7.48039 5.01909C7.30683 4.84552 7.02542 4.84552 6.85185 5.01909Z" fill="#191E26"/>
</mask>
<g mask="url(#mask0_7276_2497)">
<rect x="0.5" width="16" height="16" fill="white"/>
</g>
</svg>
