<svg width="52" height="40" viewBox="0 0 52 40" fill="none" xmlns="http://www.w3.org/2000/svg">
<g opacity="0.6">
<path d="M49.8763 17.9608C49.8763 26.6986 39.0242 33.7856 25.6311 33.7856C12.238 33.7856 1.3916 26.7043 1.3916 17.9608C1.3916 9.21725 12.2494 2.1416 25.6368 2.1416C39.0242 2.1416 49.882 9.22294 49.882 17.9665L49.8763 17.9608Z" fill="#656F83" stroke="#656F83" stroke-width="0.491265"/>
<path fill-rule="evenodd" clip-rule="evenodd" d="M34.1017 14.5938C34.7156 14.5938 35.2102 14.1099 35.2102 13.5122C35.2102 12.9145 34.7156 12.4307 34.1017 12.4307C33.4877 12.4307 32.9932 12.9202 32.9932 13.5122C32.9932 14.1042 33.4934 14.5938 34.1017 14.5938Z" fill="#333A46"/>
<path fill-rule="evenodd" clip-rule="evenodd" d="M37.6139 16.7471C37.8469 17.0943 38.0743 17.4245 38.2562 17.6977C39.2283 18.1645 39.9048 19.155 39.9048 20.3048C39.9048 21.8987 38.6087 23.1966 37.017 23.1966C35.4253 23.1966 34.1292 21.8987 34.1292 20.3048C34.1292 20.2422 34.1292 20.1853 34.1405 20.1284H33.987C33.9586 20.1739 33.7426 20.5268 33.4697 20.9651C33.7767 22.6444 35.249 23.9195 37.017 23.9195C39.0066 23.9195 40.6211 22.2972 40.6211 20.3048C40.6211 18.5174 39.3193 17.0317 37.6139 16.7471Z" fill="#333A46"/>
<path fill-rule="evenodd" clip-rule="evenodd" d="M32.2031 22.7528L33.9141 19.9749H37.6149C38.0412 19.9749 39.0929 19.2463 38.5585 18.4038C38.5585 18.4038 36.2278 14.9144 36.0345 14.7152C35.8412 14.5216 35.233 14.3395 34.6986 14.6981C34.278 14.977 33.4025 16.958 33.4025 16.958C33.4025 16.958 32.4077 16.975 32.1007 16.958C31.7994 16.9409 31.7085 17.9712 32.0837 17.9712H33.8971L34.5736 16.7986L35.9777 18.956H33.1126L30.8728 22.7528C30.7478 22.9862 30.7648 23.3164 31.2082 23.3164C31.6516 23.3164 31.9131 23.1285 32.2087 22.7528" fill="#333A46"/>
<path d="M34.0758 17.4268H30.8525V18.3205H34.0758V17.4268Z" fill="#333A46"/>
<path fill-rule="evenodd" clip-rule="evenodd" d="M31.2137 17.469L30.867 17.7138L28.9854 15.0327L29.3378 14.7822L31.2137 17.469Z" fill="#333A46"/>
<path fill-rule="evenodd" clip-rule="evenodd" d="M15.7855 26.3051C18.6278 27.3753 22.1182 28.0015 25.8417 28.0015C35.6648 28.0015 43.6405 23.6696 43.6405 18.2959C43.6405 15.5579 41.1108 11.9831 34.6757 11.9831C30.0143 11.9831 25.944 14.0437 25.944 16.5768C25.944 17.0208 26.2055 17.5161 26.5466 17.8576C27.0696 18.461 27.2231 19.1896 27.2231 19.867C27.2231 22.9751 22.6128 25.4797 16.9281 25.4797C13.1762 25.4797 9.73698 24.438 8.04294 22.7417C6.68999 21.3812 6.24658 19.8443 6.24658 18.3016C6.24658 12.3758 15.0294 7.57715 25.8474 7.57715C36.6654 7.57715 45.4709 12.3815 45.4709 18.3016C45.4709 24.2217 36.6881 29.0261 25.8474 29.0261C21.5725 29.0261 17.6103 28.269 14.4041 27.0167L15.7855 26.3108V26.3051Z" fill="#656F83"/>
<path fill-rule="evenodd" clip-rule="evenodd" d="M15.6512 25.4231C18.4936 26.4933 21.984 27.1195 25.7074 27.1195C35.5306 27.1195 43.5062 22.7875 43.5062 17.4082C43.5062 14.6702 40.9765 11.0954 34.5414 11.0954C29.88 11.0954 25.8098 13.156 25.8098 15.6891C25.8098 16.1331 26.0712 16.6284 26.4123 16.9699C26.9353 17.5733 27.0888 18.3019 27.0888 18.9793C27.0888 22.0817 22.4728 24.592 16.7938 24.592C13.0419 24.592 9.6027 23.5503 7.90867 21.8483C6.55571 20.4935 6.1123 18.9509 6.1123 17.4139C6.1123 11.4881 14.8951 6.68945 25.7074 6.68945C36.5197 6.68945 45.331 11.4938 45.331 17.4139C45.331 23.334 36.5481 28.1384 25.7074 28.1384C21.4325 28.1384 17.4703 27.3813 14.2641 26.129L15.6455 25.4231H15.6512Z" fill="#333A46"/>
<path d="M10.0985 8.62169C9.91656 8.17199 9.74033 7.8589 9.58685 7.59705L8.51244 8.24029L8.31348 7.91014L9.7915 7.02212L9.93361 7.25551C10.0985 7.53444 10.3088 7.88737 10.5135 8.40537L10.0928 8.6103L10.0985 8.62169ZM10.0871 9.11692C10.36 8.94046 10.6271 8.75261 10.8716 8.56476L11.0705 8.84938C10.5476 9.29908 9.91087 9.69755 9.41631 9.99925L9.17755 9.68047C9.33672 9.5837 9.51295 9.48124 9.68917 9.36739L9.18323 8.51353L9.58685 8.26876L10.0871 9.10554V9.11692ZM11.5708 7.61982L11.1842 7.85321L12.0085 9.23077L11.5992 9.47554L9.87677 6.5895L10.2861 6.34473L10.9796 7.50598L11.3662 7.27259L11.5708 7.61982Z" fill="#333A46"/>
<path d="M13.9033 5.50294L12.0671 6.2088L11.9307 5.85587L12.6242 5.58833L12.5105 5.29232L12.9653 5.11586L13.079 5.40617L13.7725 5.13863L13.9089 5.49155L13.9033 5.50294ZM13.4655 7.11389C13.0164 7.28466 12.6071 7.17081 12.4764 6.82927C12.3456 6.48772 12.573 6.1291 13.0221 5.95833C13.4712 5.78756 13.8805 5.90141 14.0113 6.23726C14.142 6.58449 13.9203 6.93742 13.4655 7.11389ZM13.3348 6.77234C13.5337 6.69265 13.6418 6.56173 13.5849 6.40234C13.5224 6.24864 13.3575 6.22018 13.1529 6.29988C12.9482 6.37957 12.8459 6.51049 12.9027 6.66419C12.9653 6.82358 13.1301 6.85204 13.3348 6.77234ZM13.0051 7.53513L15.0914 6.7325L15.495 7.7799L15.0459 7.95067L14.7844 7.26758L13.1472 7.89944L13.0108 7.54082L13.0051 7.53513ZM15.1482 5.65663L14.7332 5.81602L15.0345 6.60157L14.5854 6.77234L13.8294 4.80847L14.2784 4.6377L14.5911 5.44602L15.0061 5.28663L15.1482 5.65663Z" fill="#333A46"/>
<path d="M17.6445 4.0624C17.8776 5.06427 17.7355 5.95797 16.7122 6.79475L16.3825 6.48167C17.1215 5.88397 17.3603 5.28627 17.258 4.54626L16.1722 4.80242L16.0869 4.42672L17.6502 4.0624H17.6445ZM18.5313 3.49316L19.2988 6.76629L18.8269 6.88014L18.0595 3.60701L18.5313 3.49316Z" fill="#333A46"/>
<path d="M21.8563 4.72923L21.879 4.94554L22.7829 4.84308L22.8795 5.70832L21.0604 5.91894L21.0832 6.10679L22.9932 5.89048L23.033 6.2491L20.6511 6.52233L20.5488 5.6457L22.3736 5.43509L22.3508 5.25293L20.5204 5.46355L20.4806 5.10493L21.3958 5.00246L21.3731 4.78615L20.1111 4.92846L20.0713 4.55276L23.0785 4.21122L23.124 4.58692L21.8563 4.72923ZM22.7601 4.10307C22.1803 4.10307 21.7426 3.93799 21.4981 3.65337C21.3219 3.98352 20.9297 4.24537 20.3669 4.3763L20.1736 4.03476C20.9126 3.87537 21.2366 3.49398 21.1969 3.1752V3.11259L21.6801 3.05566V3.11828C21.7255 3.44275 22.1235 3.73875 22.8795 3.72167L22.7601 4.09737V4.10307Z" fill="#333A46"/>
<path d="M25.8946 4.72791C25.5308 4.60837 25.275 4.37498 25.1272 4.07897C24.9851 4.42052 24.7236 4.69375 24.337 4.83037L24.0869 4.45467C24.6156 4.26113 24.8543 3.8342 24.8657 3.41296H24.2063V3.03157L26.0027 3.0145V3.40158H25.3546C25.3717 3.78297 25.6104 4.17575 26.1163 4.34083L25.889 4.71652L25.8946 4.72791ZM26.9293 5.53054C26.9293 5.94039 26.4972 6.17947 25.7923 6.18516C25.0817 6.19085 24.644 5.95747 24.6383 5.54761C24.6383 5.13776 25.0704 4.89868 25.781 4.89299C26.4915 4.8873 26.9293 5.12068 26.9293 5.53054ZM26.4461 5.53054C26.4461 5.34269 26.213 5.25161 25.781 5.2573C25.3432 5.2573 25.1158 5.35407 25.1158 5.54192C25.1158 5.72977 25.3489 5.82085 25.7866 5.81516C26.2244 5.81516 26.4517 5.71838 26.4461 5.52484M26.412 3.61789V2.80957H26.8838L26.9008 4.8076H26.4233L26.4176 4.01067H25.9174V3.62358H26.4176L26.412 3.61789Z" fill="#333A46"/>
<path d="M31.0359 5.73812L30.9961 6.1252L27.9775 5.8235L28.0173 5.43642L29.2793 5.56165L29.3419 4.94688L28.3925 4.8501L28.5687 3.10254L29.0406 3.14808L28.9894 3.66609L30.4163 3.8084L30.4674 3.29039L30.9393 3.33593L30.763 5.08349L29.8194 4.98672L29.7568 5.6015L31.0302 5.73243L31.0359 5.73812ZM28.9155 4.51995L30.3367 4.66226L30.3822 4.19548L28.9553 4.05317L28.9098 4.51995H28.9155Z" fill="#333A46"/>
<path d="M35.0366 5.7007L34.957 6.0707L32.001 5.42177L32.0806 5.05176L33.3198 5.325L33.3653 5.12007L32.4955 4.92653L32.8025 3.52051L35.0537 4.01575L34.9741 4.37437L33.1891 3.98159L33.1493 4.15236L34.8604 4.52806L34.7865 4.86961L33.0754 4.49391L33.0356 4.67037L34.8433 5.06884L34.7637 5.42746L33.8314 5.22253L33.786 5.42746L35.0309 5.7007H35.0366ZM34.4568 6.6741C34.3772 7.02133 33.9224 7.1181 33.2004 6.95872C32.4842 6.79933 32.109 6.5204 32.1886 6.17316C32.2682 5.82024 32.7229 5.72916 33.4392 5.88285C34.1612 6.04224 34.5363 6.31547 34.4568 6.6741ZM33.9849 6.57163C34.0134 6.43501 33.8144 6.33255 33.3653 6.23578C32.9162 6.13901 32.6945 6.1447 32.6604 6.28132C32.632 6.41794 32.8253 6.52609 33.2743 6.62286C33.7291 6.72533 33.9508 6.70825 33.9849 6.57163Z" fill="#333A46"/>
<path d="M38.2798 8.06886L38.1491 8.42748L35.9775 7.63624L36.3527 6.6173L36.8018 6.78238L36.5631 7.4427L38.2855 8.06886H38.2798ZM37.6204 6.78807C37.3134 6.53761 37.16 6.21883 37.1315 5.87729C36.87 6.14483 36.5346 6.30991 36.1197 6.30422L36.023 5.86021C36.6085 5.87159 36.9951 5.51297 37.1486 5.09743L37.2623 4.79004L37.7227 4.95512L37.609 5.26251C37.4556 5.67805 37.5295 6.16191 37.9785 6.51484L37.6204 6.79376V6.78807ZM38.3594 7.59639L37.9046 7.43131L38.746 5.13158L39.2008 5.29666L38.3594 7.59639Z" fill="#333A46"/>
<path d="M42.1174 9.42957L40.9975 8.79202L40.4802 9.70281L40.0652 9.46372L40.5825 8.55294L39.4854 7.92678L39.6729 7.59093L42.3106 9.08803L42.123 9.42388L42.1174 9.42957ZM42.1515 8.64402L40.1277 7.49416L40.861 6.19629L41.276 6.42968L41.0884 6.76553L42.2879 7.44862L42.4755 7.11277L42.8848 7.34615L42.1515 8.64402ZM42.1003 7.77308L40.9008 7.09L40.7303 7.39169L41.9298 8.07478L42.1003 7.77308Z" fill="#333A46"/>
<path fill-rule="evenodd" clip-rule="evenodd" d="M16.4214 21.0281H14.8297L14.6023 15.7911L11.2313 21.0281H9.63961L9.62256 12.3984H11.6122L11.4871 17.8404L14.9093 12.3984H16.3362L16.484 17.8404L19.6447 12.3984H21.6343L16.4214 21.0281Z" fill="#656F83"/>
<path fill-rule="evenodd" clip-rule="evenodd" d="M22.9327 21.0979L22.9612 19.5667H20.5565L19.7152 21.0979H17.4072L22.5973 12.4512H24.8712L25.235 21.0979H22.9271H22.9327ZM23.0805 14.9957L21.3069 18.1436H23.0408L23.0805 14.9957Z" fill="#656F83"/>
<path d="M1.59453 28.1152L0.633821 26.9198C0.611082 26.8913 0.594028 26.8629 0.582658 26.8401C0.571289 26.8173 0.571289 26.7946 0.571289 26.7718C0.571289 26.749 0.588343 26.7319 0.605397 26.7092C0.622451 26.6864 0.650875 26.6636 0.679298 26.6352L1.07154 26.3221C1.09997 26.2993 1.12839 26.2993 1.15113 26.3278L1.32167 26.5441C1.34441 26.5726 1.34441 26.601 1.3103 26.6295L1.04312 26.8401C1.04312 26.8401 1.01469 26.8799 1.03743 26.9027L1.84466 27.916C1.84466 27.916 1.86171 27.9387 1.86171 27.9558C1.86171 27.9672 1.86171 27.9843 1.83897 27.9957L1.66275 28.138C1.66275 28.138 1.62296 28.1607 1.61159 28.155C1.60022 28.1494 1.58885 28.138 1.58316 28.1266L1.59453 28.1152ZM1.46947 26.4815C1.41831 26.4132 1.37851 26.3449 1.35009 26.2709C1.32167 26.1969 1.3103 26.1229 1.3103 26.0489C1.3103 25.9749 1.32735 25.9065 1.35578 25.8439C1.3842 25.7813 1.42968 25.7244 1.48652 25.6732C1.54337 25.6276 1.6059 25.5992 1.67412 25.5821C1.74233 25.5707 1.81624 25.5707 1.88445 25.5821C1.95267 25.5992 2.02657 25.6276 2.0891 25.6675C2.15732 25.713 2.21416 25.7642 2.27101 25.8325C2.32786 25.9009 2.36197 25.9692 2.39039 26.0432C2.41881 26.1172 2.43018 26.1912 2.43018 26.2652C2.43018 26.3392 2.41313 26.4075 2.3847 26.4701C2.35628 26.5327 2.3108 26.5896 2.25396 26.6352C2.19711 26.6807 2.12889 26.7149 2.06068 26.7263C1.99246 26.7376 1.91856 26.7376 1.85034 26.7263C1.78213 26.7092 1.70823 26.6807 1.6457 26.6352C1.57748 26.5896 1.51495 26.5384 1.46379 26.4701L1.46947 26.4815ZM2.04362 26.0261C1.99246 25.9635 1.93561 25.9293 1.87308 25.9179C1.81055 25.9065 1.75939 25.9179 1.71391 25.9578C1.66843 25.9919 1.64001 26.0489 1.63433 26.1115C1.62864 26.1741 1.65138 26.2367 1.69686 26.2993C1.74802 26.3619 1.80487 26.3961 1.8674 26.4018C1.92993 26.4075 1.98678 26.3961 2.03225 26.3562C2.07773 26.3221 2.10047 26.2709 2.10615 26.2082C2.10615 26.1456 2.0891 26.083 2.03794 26.0204L2.04362 26.0261ZM2.93612 27.415L2.72579 27.1475L2.11184 27.6427C2.11184 27.6427 2.08342 27.6655 2.07205 27.6598C2.06068 27.6598 2.04931 27.6541 2.03794 27.637L1.86171 27.415C1.86171 27.415 1.84466 27.3866 1.84466 27.3752C1.84466 27.3638 1.85603 27.3524 1.87308 27.3353L3.47616 26.0489C3.50459 26.0261 3.53301 26.0261 3.55575 26.0602L3.73198 26.2822C3.73198 26.2822 3.74903 26.3335 3.72061 26.3562L2.99865 26.9369L3.20898 27.2044C3.20898 27.2044 3.22604 27.2272 3.23172 27.2386C3.23172 27.25 3.23172 27.2613 3.2033 27.2784L3.02139 27.4207C3.02139 27.4207 2.99297 27.4378 2.97591 27.4378C2.96454 27.4378 2.95317 27.4264 2.9418 27.4093L2.93612 27.415ZM2.78832 26.3449L1.8674 25.195C1.84466 25.1665 1.84466 25.1381 1.87877 25.1096L2.02088 24.9958C2.05499 24.9673 2.08342 24.973 2.10615 25.0071L3.02707 26.157C3.0555 26.1912 3.04981 26.2196 3.01571 26.2424L2.8679 26.3619C2.83379 26.3904 2.80537 26.3847 2.78263 26.3506L2.78832 26.3449ZM2.89633 25.7984L2.44155 25.2292C2.44155 25.2292 2.4245 25.2064 2.4245 25.1893C2.4245 25.1779 2.43018 25.1608 2.45292 25.1438L2.60072 25.0242C2.60072 25.0242 2.64052 25.0015 2.65189 25.0071C2.66325 25.0128 2.67462 25.0185 2.68599 25.0299L3.14077 25.5992C3.16919 25.6333 3.16351 25.6618 3.1294 25.6902L2.98728 25.8041C2.98728 25.8041 2.95317 25.8269 2.9418 25.8269C2.93043 25.8269 2.91338 25.8155 2.89633 25.7984Z" fill="#656F83"/>
<path d="M4.7591 29.2183L4.0201 28.5238L3.76428 28.797L4.11673 29.1329C4.14516 29.1613 4.1679 29.1841 4.18495 29.2069C4.20201 29.2296 4.202 29.2524 4.202 29.2752C4.202 29.2979 4.19064 29.3207 4.17358 29.3492C4.15653 29.3719 4.13379 29.4004 4.10537 29.4289L3.55395 30.0152C3.52553 30.0436 3.50279 30.0437 3.47436 30.0209L3.2754 29.833C3.24698 29.8046 3.24129 29.7761 3.2754 29.7476L3.71312 29.2809C3.71312 29.2809 3.73586 29.241 3.71312 29.2239L2.75241 28.3189C2.75241 28.3189 2.73536 28.2961 2.72967 28.2847C2.72399 28.2733 2.72967 28.2562 2.74672 28.2449L2.9059 28.0741C2.9059 28.0741 2.94 28.0456 2.95137 28.0513C2.96274 28.057 2.97411 28.0627 2.98548 28.0741L3.48005 28.5409L3.73586 28.2676L2.99685 27.5732C2.99685 27.5732 2.97411 27.5447 2.97411 27.5333C2.97411 27.5219 2.9798 27.5105 2.99685 27.4935L3.14465 27.3398C3.14465 27.3398 3.17308 27.3113 3.18445 27.3113C3.19582 27.3113 3.21287 27.3113 3.22992 27.3341L4.45782 28.4896C4.49192 28.4612 4.53172 28.4327 4.57719 28.3929C4.62267 28.353 4.66246 28.3189 4.70794 28.2847C4.74774 28.2505 4.78753 28.2164 4.82164 28.1822C4.85574 28.1538 4.87848 28.131 4.88985 28.1196C4.91259 28.0969 4.92396 28.0798 4.92396 28.0684C4.92396 28.057 4.91828 28.0342 4.88985 28.0115L3.96325 27.1405C3.96325 27.1405 3.94051 27.1178 3.93482 27.1064C3.93482 27.095 3.93482 27.0836 3.95756 27.0608L4.11673 26.8901C4.11673 26.8901 4.14516 26.8673 4.15653 26.873C4.1679 26.8787 4.17927 26.8844 4.19632 26.8958L5.31052 27.9488C5.36168 27.9944 5.38442 28.0399 5.3901 28.0855C5.3901 28.131 5.36737 28.1765 5.3162 28.2335C5.2423 28.3075 5.15703 28.3929 5.06039 28.4896C4.96375 28.5864 4.85006 28.6718 4.73637 28.7572L5.00355 29.0076C5.03197 29.0361 5.03197 29.0646 5.00355 29.093L4.85574 29.2467C4.85574 29.2467 4.82732 29.2695 4.81027 29.2695C4.79321 29.2695 4.78184 29.2581 4.77047 29.2467L4.7591 29.2183Z" fill="#656F83"/>
<path d="M5.76511 31.7723L4.62817 30.9355C4.59406 30.9071 4.56564 30.8843 4.5429 30.8615C4.52584 30.8388 4.51447 30.816 4.50879 30.7989C4.50879 30.7762 4.50879 30.7534 4.52016 30.7249C4.53153 30.6965 4.54858 30.668 4.57701 30.6281L4.99199 30.0646C5.01473 30.0361 5.03747 30.0304 5.06589 30.0532L5.29328 30.2183C5.29328 30.2183 5.3217 30.2411 5.3217 30.2524C5.3217 30.2638 5.3217 30.2809 5.30465 30.298L5.21938 30.4175L6.07776 31.0494L6.1744 30.9185C6.19714 30.8843 6.22557 30.8786 6.25399 30.9014L6.48706 31.0722C6.48706 31.0722 6.51548 31.1177 6.48706 31.1518L6.06071 31.7325C6.01523 31.7951 5.96975 31.8292 5.93565 31.8349C5.89585 31.8406 5.83901 31.8179 5.76511 31.7666V31.7723ZM5.35581 30.0931L5.14547 29.9337C5.11705 29.9109 5.11137 29.8824 5.13979 29.8483L5.33875 29.5751C5.20801 29.4897 5.08294 29.3929 4.95219 29.2904C4.93514 29.279 4.92377 29.262 4.92377 29.2506C4.92377 29.2392 4.92946 29.2221 4.94651 29.205L5.04315 29.0741C5.04315 29.0741 5.07157 29.04 5.08294 29.04C5.09431 29.04 5.10568 29.04 5.12274 29.057C5.31602 29.205 5.49793 29.336 5.66847 29.4498C5.83901 29.5637 6.00955 29.6604 6.18009 29.7572C6.20283 29.7686 6.2142 29.78 6.2142 29.7914C6.2142 29.8028 6.2142 29.8141 6.20283 29.8369L6.12324 29.9849C6.12324 29.9849 6.1005 30.0134 6.08913 30.0077C6.07776 30.0077 6.06639 30.002 6.04934 29.9906C5.98112 29.9621 5.91859 29.928 5.85606 29.8881C5.79353 29.854 5.72531 29.8141 5.66278 29.7743L5.44676 30.0646C5.41834 30.0988 5.38992 30.1044 5.36149 30.0817L5.35581 30.0931ZM5.90154 31.2942L5.04315 30.6623L4.96925 30.7648C4.96925 30.7648 4.96356 30.7932 4.97493 30.8046L5.78784 31.4023C5.78784 31.4023 5.81627 31.4137 5.82764 31.4023L5.90154 31.2998V31.2942ZM5.70257 29.3872C5.64004 29.3417 5.5832 29.2847 5.53772 29.2278C5.49224 29.1652 5.45813 29.1026 5.43539 29.04C5.41265 28.9774 5.40697 28.909 5.41265 28.8464C5.41834 28.7838 5.44108 28.7212 5.48087 28.67C5.52066 28.613 5.57183 28.5732 5.63436 28.5447C5.69689 28.5163 5.75942 28.5049 5.82764 28.5049C5.89585 28.5049 5.96407 28.5163 6.03797 28.5447C6.11187 28.5732 6.18009 28.6073 6.24262 28.6529C6.30515 28.6984 6.362 28.7553 6.40747 28.818C6.45295 28.8806 6.48706 28.9375 6.50411 29.0058C6.52685 29.0684 6.53254 29.1367 6.52117 29.1994C6.5098 29.262 6.48706 29.3246 6.44727 29.3815C6.40748 29.4384 6.35631 29.4783 6.29947 29.5011C6.24262 29.5295 6.18009 29.5409 6.11187 29.5409C6.04366 29.5409 5.97544 29.5295 5.90722 29.5011C5.83901 29.4726 5.77079 29.4384 5.70257 29.3929V29.3872ZM6.12324 30.6509L5.91291 30.4972C5.91291 30.4972 5.89017 30.4745 5.88448 30.4688C5.8788 30.4631 5.88448 30.4403 5.90154 30.4175L5.92996 30.3777L5.68552 30.1955C5.68552 30.1955 5.6571 30.1728 5.6571 30.1614C5.6571 30.15 5.6571 30.1386 5.67415 30.1158L5.77079 29.9792C5.77079 29.9792 5.79921 29.9451 5.81058 29.9508C5.82195 29.9564 5.83332 29.9621 5.84469 29.9678L6.08913 30.15L6.82246 29.1538C6.8452 29.1254 6.87362 29.1197 6.90204 29.1424L7.11238 29.2961C7.11238 29.2961 7.13512 29.3189 7.1408 29.3303C7.1408 29.3417 7.1408 29.3531 7.12375 29.3701L6.20283 30.6281C6.20283 30.6281 6.1744 30.6623 6.16303 30.6623C6.15166 30.6623 6.14029 30.6566 6.12324 30.6452V30.6509ZM6.07208 28.8863C6.00955 28.8407 5.94702 28.818 5.89585 28.8237C5.84469 28.8294 5.79921 28.8464 5.77647 28.8863C5.76511 28.9034 5.75942 28.9204 5.75374 28.9432C5.75374 28.966 5.75374 28.9944 5.75374 29.0172C5.75942 29.0457 5.77079 29.0684 5.78784 29.0969C5.8049 29.1254 5.82764 29.1481 5.86174 29.1709C5.89585 29.1937 5.92428 29.2107 5.9527 29.2221C5.98112 29.2335 6.01523 29.2335 6.03797 29.2335C6.06639 29.2335 6.08913 29.2278 6.11187 29.2164C6.13461 29.205 6.14598 29.1937 6.16303 29.1766C6.19146 29.1424 6.19714 29.0969 6.18577 29.0457C6.1744 28.9944 6.13461 28.9432 6.07208 28.892V28.8863ZM6.54959 30.9868L6.32789 30.8217C6.32789 30.8217 6.29947 30.7989 6.29947 30.7875C6.29947 30.7762 6.29947 30.7648 6.3222 30.742L7.27723 29.4384C7.27723 29.4384 7.29997 29.41 7.31134 29.41C7.32271 29.41 7.33408 29.41 7.35113 29.4271L7.57284 29.5921C7.57284 29.5921 7.59558 29.6149 7.60126 29.6263C7.60126 29.6377 7.60126 29.6491 7.58421 29.6661L6.62918 30.9697C6.62918 30.9697 6.60075 31.0038 6.58939 31.0038C6.57802 31.0038 6.56665 31.0038 6.54959 30.9868Z" fill="#656F83"/>
<path d="M8.03678 33.1136L6.96238 32.4818C6.92258 32.459 6.89416 32.4362 6.87142 32.4192C6.84868 32.4021 6.83731 32.3793 6.83163 32.3565C6.82594 32.3338 6.83163 32.311 6.83163 32.2825C6.83163 32.2541 6.85437 32.2199 6.87711 32.1858L7.32051 31.4287C7.33757 31.4002 7.3603 31.3945 7.39441 31.4116L7.63885 31.5539C7.63885 31.5539 7.66728 31.5767 7.67296 31.5824C7.67865 31.5881 7.67296 31.6051 7.66159 31.6279L7.55358 31.8158L8.33239 32.2712L8.44608 32.0719C8.44608 32.0719 8.46882 32.0435 8.48019 32.0378C8.49156 32.0378 8.50293 32.0378 8.51998 32.0491L8.77011 32.1915C8.77011 32.1915 8.79285 32.2085 8.79853 32.2199C8.79853 32.2313 8.79853 32.2484 8.78716 32.2655L8.33239 33.0396C8.29259 33.1079 8.2528 33.1478 8.21869 33.1592C8.1789 33.1705 8.12205 33.1592 8.04247 33.1079L8.03678 33.1136ZM7.12723 31.1782C7.09312 31.1782 7.07038 31.1668 7.0647 31.1554C7.05902 31.1441 7.05333 31.127 7.05333 31.1099V30.8765C7.0647 30.8367 7.08744 30.8196 7.1386 30.8196C7.24661 30.8196 7.34893 30.8196 7.45694 30.8139C7.56495 30.8025 7.66159 30.7911 7.75823 30.7684C7.84919 30.7456 7.94014 30.7228 8.01973 30.6887C8.09931 30.6602 8.16753 30.626 8.21869 30.5862C8.2528 30.5634 8.26985 30.5464 8.27554 30.535C8.27554 30.5236 8.26985 30.5065 8.24143 30.4894L7.70707 30.1763C7.70707 30.1763 7.67296 30.1479 7.67296 30.1365C7.67296 30.1251 7.67865 30.108 7.69002 30.091L7.79234 29.9145C7.81508 29.8803 7.83782 29.869 7.87193 29.8917L8.66778 30.3585C8.76442 30.4154 8.8099 30.4724 8.80421 30.535C8.79853 30.5976 8.75305 30.6602 8.67347 30.7342C8.61662 30.7797 8.55977 30.8253 8.49156 30.8708C8.42903 30.9107 8.35512 30.9505 8.28122 30.9847C8.30965 31.0871 8.34375 31.1839 8.38923 31.275C8.43471 31.3661 8.48019 31.4458 8.5143 31.5141C8.53135 31.5482 8.52567 31.571 8.49156 31.5881L8.26985 31.7019C8.26985 31.7019 8.24143 31.7133 8.23006 31.7076C8.21869 31.7076 8.20732 31.6905 8.19595 31.6734C8.1789 31.645 8.16185 31.6051 8.13911 31.5653C8.11637 31.5254 8.09931 31.4742 8.07658 31.423C8.05384 31.3718 8.03678 31.3205 8.01404 31.2636C7.9913 31.2067 7.97425 31.1497 7.96288 31.0928C7.83213 31.127 7.6957 31.1497 7.55927 31.1611C7.42284 31.1725 7.28072 31.1725 7.13292 31.1611L7.12723 31.1782ZM8.16185 32.5558L7.38304 32.1004L7.29209 32.2598C7.29209 32.2598 7.29209 32.2882 7.30346 32.2996L8.0311 32.7265C8.0311 32.7265 8.05952 32.7322 8.07089 32.7152L8.16185 32.5558ZM8.5143 31.2181C8.48019 31.201 8.4745 31.1725 8.49724 31.1384L8.60525 30.9562C8.60525 30.9562 8.63367 30.9221 8.64504 30.9221C8.65641 30.9221 8.66778 30.9277 8.68484 30.9391L9.00886 31.127L9.27604 30.6716C9.27604 30.6716 9.30447 30.6374 9.31584 30.6374C9.32721 30.6374 9.34426 30.6374 9.35563 30.6488L9.59439 30.7911C9.59439 30.7911 9.62281 30.8139 9.62281 30.8253C9.62281 30.8367 9.61713 30.8481 9.61144 30.8651L8.92359 32.0435C8.90654 32.0776 8.87812 32.0833 8.84969 32.0662L8.60525 31.9239C8.57683 31.9068 8.56546 31.8841 8.5882 31.8499L8.84969 31.4059L8.52567 31.2181H8.5143Z" fill="#656F83"/>
<path d="M10.6019 34.3445L9.16937 33.6728C9.13526 33.6557 9.10683 33.6387 9.0841 33.6216C9.06704 33.6045 9.04999 33.5874 9.0443 33.5647C9.03862 33.5419 9.03862 33.5191 9.0443 33.4907C9.04999 33.4622 9.06136 33.428 9.07841 33.3939L9.37401 32.7677C9.39107 32.7279 9.41949 32.7165 9.4536 32.7336L9.70373 32.8531C9.73783 32.8702 9.7492 32.8987 9.73215 32.9328L9.51045 33.4053C9.51045 33.4053 9.50476 33.4508 9.5275 33.4622L10.744 34.0314C10.744 34.0314 10.7668 34.0485 10.7781 34.0599C10.7838 34.0713 10.7838 34.0884 10.7781 34.1054L10.6815 34.3161C10.6815 34.3161 10.6588 34.3502 10.6474 34.3502C10.636 34.3502 10.619 34.3445 10.6076 34.3388L10.6019 34.3445ZM11.3807 33.3882L9.19779 32.3636C9.19779 32.3636 9.16368 32.3408 9.158 32.3294C9.158 32.318 9.158 32.3009 9.16937 32.2839L9.26032 32.0903C9.26032 32.0903 9.27737 32.0562 9.28874 32.0562C9.30011 32.0562 9.31717 32.0562 9.33422 32.0619L10.852 32.7734C10.8748 32.7393 10.9089 32.688 10.943 32.6254C10.9771 32.5628 11.0169 32.5002 11.051 32.4376C11.0851 32.3749 11.1192 32.318 11.142 32.2668C11.1704 32.2156 11.1874 32.1814 11.1931 32.1643C11.2045 32.1359 11.2102 32.1188 11.2102 32.1017C11.2102 32.0846 11.1931 32.0733 11.159 32.0562L10.005 31.5154C10.005 31.5154 9.97659 31.4983 9.97091 31.4926C9.96522 31.4812 9.97091 31.4699 9.97091 31.4471L10.0675 31.2365C10.0675 31.2365 10.0846 31.208 10.1017 31.208C10.113 31.208 10.1301 31.208 10.1471 31.2194L11.5342 31.8683C11.5967 31.8968 11.6365 31.9309 11.6479 31.9708C11.6649 32.0106 11.6536 32.0676 11.6252 32.1359C11.6024 32.1871 11.574 32.2383 11.5399 32.3066C11.5058 32.3749 11.4717 32.4433 11.4319 32.5116C11.3921 32.5856 11.3523 32.6539 11.3068 32.7279C11.2613 32.8019 11.2215 32.8645 11.1817 32.9271L11.5115 33.0808C11.5115 33.0808 11.5399 33.0979 11.5456 33.1093C11.5513 33.1207 11.5456 33.1377 11.5456 33.1605L11.4546 33.354C11.4376 33.3939 11.4091 33.3996 11.375 33.3882H11.3807Z" fill="#656F83"/>
<path d="M11.8264 33.6279C11.7866 33.6336 11.7581 33.6393 11.7468 33.6336C11.7354 33.6336 11.724 33.6165 11.7183 33.5881L11.6501 33.3661C11.6388 33.3262 11.6388 33.3034 11.6501 33.2977C11.6615 33.2921 11.6786 33.2807 11.707 33.275C11.8264 33.2408 11.9344 33.1953 12.0367 33.1327C12.139 33.0701 12.23 32.9961 12.3096 32.9164C12.3891 32.8367 12.463 32.7399 12.5256 32.6431C12.5881 32.5407 12.6393 32.4382 12.6791 32.33C12.6904 32.2959 12.7018 32.2788 12.7132 32.2788C12.7245 32.2788 12.7416 32.2788 12.7643 32.2902L13.0088 32.3927C13.0088 32.3927 13.0372 32.4097 13.0429 32.4211C13.0429 32.4325 13.0429 32.4439 13.0429 32.4667C12.9803 32.6317 12.9064 32.7854 12.8155 32.9221C12.8155 32.9904 12.8325 33.0644 12.8496 33.1384C12.8723 33.2124 12.8951 33.2807 12.9235 33.3433C12.9519 33.4116 12.986 33.4685 13.0201 33.5254C13.0542 33.5824 13.0884 33.6336 13.1225 33.6734C13.1395 33.7019 13.1452 33.719 13.1395 33.7304C13.1395 33.7418 13.1225 33.7588 13.0997 33.7759L12.9349 33.9125C12.9349 33.9125 12.8951 33.9353 12.8837 33.9353C12.8723 33.9353 12.8553 33.9239 12.8382 33.9011C12.8098 33.867 12.7757 33.8271 12.7473 33.7816C12.7132 33.7361 12.6847 33.6848 12.6563 33.6279C12.6279 33.571 12.5995 33.5141 12.5767 33.4514C12.554 33.3888 12.5369 33.3262 12.5199 33.2636C12.4232 33.3547 12.3152 33.4287 12.1959 33.4913C12.0822 33.5539 11.9571 33.5994 11.8207 33.6336L11.8264 33.6279ZM12.4062 35.1535C12.2925 35.1136 12.1902 35.0567 12.1049 34.9941C12.0196 34.9315 11.9514 34.8632 11.8946 34.7835C11.8377 34.7038 11.8093 34.6298 11.7922 34.5501C11.7752 34.4704 11.7809 34.385 11.815 34.3053C11.8434 34.2313 11.8889 34.163 11.9514 34.1175C12.0139 34.0662 12.0935 34.0321 12.1845 34.0093C12.2754 33.9865 12.3721 33.9808 12.4801 33.9865C12.5881 33.9922 12.6961 34.0207 12.8098 34.0605C12.9178 34.1004 13.0145 34.1516 13.1054 34.2142C13.1964 34.2768 13.2646 34.3451 13.3214 34.4248C13.3783 34.4988 13.4124 34.5785 13.4351 34.6639C13.4522 34.7436 13.4522 34.8233 13.4238 34.903C13.3953 34.9827 13.3442 35.0453 13.276 35.0965C13.2077 35.1478 13.1281 35.1819 13.0372 35.2047C12.9462 35.2275 12.8439 35.2332 12.7359 35.2275C12.6279 35.2218 12.5199 35.1933 12.4119 35.1535H12.4062ZM12.6961 34.3622C12.5654 34.311 12.4517 34.2996 12.3607 34.3224C12.2698 34.3451 12.2072 34.3907 12.1845 34.4533C12.1618 34.5159 12.1788 34.5842 12.2357 34.6582C12.2925 34.7322 12.3891 34.7948 12.5199 34.8461C12.5824 34.8688 12.6393 34.8859 12.6961 34.8916C12.753 34.8973 12.8041 34.8973 12.8496 34.8916C12.8951 34.8859 12.9349 34.8688 12.969 34.8518C13.0031 34.829 13.0258 34.8062 13.0372 34.7721C13.0486 34.7379 13.0486 34.7038 13.0372 34.6696C13.0258 34.6298 13.0031 34.5956 12.9747 34.5558C12.9462 34.5159 12.9064 34.4818 12.8553 34.4476C12.8098 34.4135 12.753 34.385 12.6904 34.3622H12.6961ZM13.1111 33.2807C13.1111 33.2807 13.0827 33.2693 13.077 33.2579C13.0713 33.2465 13.077 33.2294 13.077 33.2124L13.1509 33.0074C13.1509 33.0074 13.1736 32.9676 13.185 32.9676C13.1964 32.9676 13.2077 32.9676 13.2248 32.9733L13.6398 33.127L13.8046 32.6773C13.8046 32.6773 13.8217 32.6431 13.8387 32.6374C13.8558 32.6317 13.8672 32.6374 13.8785 32.6431L14.14 32.7399C14.14 32.7399 14.1741 32.757 14.1741 32.7684C14.1741 32.7797 14.1741 32.7911 14.1684 32.8082L13.6455 34.2313C13.6341 34.2655 13.6113 34.2768 13.5772 34.2655L13.3157 34.1687C13.2816 34.1573 13.2703 34.1345 13.2816 34.1004L13.5261 33.4344L13.1111 33.2807Z" fill="#656F83"/>
<path d="M15.82 36.1427L14.3988 35.7385C14.359 35.7272 14.3306 35.7158 14.3078 35.6987C14.2851 35.6873 14.268 35.6702 14.2623 35.6475C14.251 35.6247 14.251 35.6019 14.251 35.5735C14.251 35.545 14.2623 35.5109 14.2737 35.471L14.4556 34.8278C14.467 34.7879 14.4897 34.7708 14.5238 34.7822L14.791 34.8562C14.8251 34.8676 14.8422 34.8904 14.8308 34.9302L14.6944 35.4141C14.6887 35.4425 14.6944 35.4596 14.7228 35.471L15.9166 35.8069C15.9166 35.8069 15.945 35.8182 15.9507 35.8296C15.9621 35.841 15.9621 35.8524 15.9507 35.8752L15.8882 36.1029C15.8882 36.1029 15.8711 36.1427 15.8597 36.1427C15.8484 36.1427 15.837 36.1427 15.82 36.1427ZM14.7626 34.5602C14.666 34.5318 14.5807 34.4919 14.5068 34.435C14.4329 34.3781 14.376 34.3098 14.3362 34.2301C14.2965 34.1504 14.268 34.065 14.2623 33.9739C14.251 33.8828 14.2623 33.7861 14.2908 33.6893C14.3192 33.5982 14.359 33.5185 14.4158 33.4445C14.4727 33.3705 14.5409 33.3136 14.6148 33.268C14.6944 33.2225 14.774 33.194 14.8706 33.177C14.9672 33.1599 15.0582 33.1713 15.1548 33.1997C15.2515 33.2282 15.3424 33.2737 15.4107 33.3307C15.4846 33.3933 15.5414 33.4616 15.5812 33.5413C15.621 33.621 15.6494 33.7064 15.6608 33.7974C15.6721 33.8885 15.6608 33.9796 15.638 34.0707C15.6096 34.1674 15.5698 34.2528 15.513 34.3268C15.4561 34.4008 15.3879 34.4578 15.3083 34.5033C15.2287 34.5488 15.1435 34.5773 15.0525 34.5887C14.9616 34.6001 14.8649 34.5887 14.7626 34.5602ZM15.0525 33.5413C15.007 33.5299 14.9672 33.5242 14.9275 33.5299C14.8877 33.5356 14.8479 33.5527 14.8081 33.5754C14.774 33.5982 14.7399 33.6324 14.7114 33.6665C14.683 33.7007 14.666 33.7462 14.6489 33.7974C14.6375 33.8487 14.6319 33.8942 14.6319 33.9397C14.6319 33.9853 14.6489 34.0308 14.666 34.0707C14.683 34.1105 14.7114 34.1447 14.7455 34.1731C14.7797 34.2016 14.8138 34.2187 14.8592 34.2301C14.9502 34.2585 15.0355 34.2414 15.1094 34.1959C15.1833 34.1504 15.2401 34.0707 15.2685 33.9739C15.297 33.8771 15.2913 33.7804 15.2515 33.7007C15.2117 33.621 15.1492 33.5641 15.0582 33.5413H15.0525ZM15.9564 35.3685L15.6835 35.2888C15.6835 35.2888 15.6494 35.2775 15.6437 35.2661C15.638 35.2547 15.6437 35.2376 15.6437 35.2205L16.161 33.399C16.1724 33.3648 16.1951 33.3477 16.2292 33.3591L16.5021 33.4388C16.5362 33.4502 16.5476 33.473 16.5362 33.5071L16.0189 35.3344C16.0189 35.3344 16.0075 35.3685 15.9962 35.3742C15.9905 35.3799 15.9734 35.3799 15.9564 35.3742V35.3685Z" fill="#656F83"/>
<path d="M18.8904 35.5987L16.5255 35.1092C16.5255 35.1092 16.4858 35.0978 16.4801 35.0864C16.4744 35.075 16.4801 35.058 16.4801 35.0352L16.5255 34.8246C16.5255 34.8246 16.5369 34.7904 16.5483 34.7847C16.5597 34.779 16.571 34.7733 16.5938 34.7847L18.9586 35.2743C18.9586 35.2743 18.987 35.2857 18.9984 35.297C19.0098 35.3084 19.0098 35.3255 19.0041 35.3483L18.9586 35.5589C18.9529 35.5987 18.9245 35.6158 18.8904 35.6101V35.5987ZM17.4578 36.5665C17.3157 36.538 17.1963 36.4981 17.094 36.4469C16.9917 36.3957 16.9064 36.3388 16.8382 36.2761C16.77 36.2135 16.7245 36.1452 16.7018 36.0712C16.6733 35.9972 16.6677 35.9289 16.6847 35.8549C16.7018 35.7809 16.7359 35.7183 16.787 35.6614C16.8382 35.6044 16.9121 35.5589 16.9974 35.5304C17.0826 35.4963 17.185 35.4792 17.2987 35.4735C17.4124 35.4678 17.5431 35.4792 17.6795 35.5077C17.8217 35.5361 17.941 35.576 18.0434 35.6272C18.1457 35.6784 18.231 35.7354 18.2992 35.798C18.3617 35.8606 18.4129 35.9289 18.4356 36.0029C18.464 36.0769 18.4697 36.1509 18.4527 36.2249C18.4356 36.2989 18.4015 36.3615 18.3503 36.4184C18.2992 36.4754 18.2253 36.5152 18.14 36.5494C18.0547 36.5835 17.9524 36.6006 17.8387 36.6063C17.725 36.6063 17.5943 36.6006 17.4578 36.5721V36.5665ZM18.3958 34.466C18.3958 34.466 18.3731 34.4773 18.3617 34.483C18.3503 34.483 18.339 34.4944 18.3276 34.4944C18.3674 34.5172 18.4185 34.5457 18.464 34.5684C18.5152 34.5912 18.5607 34.6197 18.6118 34.6424C18.663 34.6652 18.7085 34.688 18.7539 34.7107C18.7994 34.7335 18.8449 34.7506 18.8904 34.7677C18.9131 34.779 18.9302 34.7847 18.9359 34.8018C18.9359 34.8132 18.9359 34.8303 18.9188 34.8587L18.8222 35.0181C18.8222 35.0181 18.7937 35.058 18.7824 35.058C18.771 35.058 18.7539 35.058 18.7312 35.0523C18.6061 35.001 18.464 34.9327 18.3162 34.8587C18.1684 34.779 18.0263 34.6993 17.8899 34.614C17.7364 34.6481 17.5715 34.6766 17.401 34.6937C17.2304 34.7107 17.0599 34.7164 16.895 34.7164C16.8666 34.7164 16.8496 34.7164 16.8382 34.705C16.8268 34.6993 16.8211 34.6823 16.8155 34.6595L16.7927 34.4603C16.7927 34.4147 16.8041 34.3863 16.8496 34.3863C17.0997 34.3863 17.3271 34.3635 17.5317 34.3293C17.7364 34.2952 17.9069 34.2553 18.049 34.2098C18.0718 34.2041 18.0831 34.1984 18.0831 34.187C18.0831 34.1756 18.0775 34.17 18.0547 34.1643L17.1509 33.9764C17.1509 33.9764 17.1168 33.965 17.1111 33.9536C17.1054 33.9423 17.1054 33.9309 17.1111 33.9081L17.1565 33.6918C17.1565 33.6918 17.1679 33.6576 17.1736 33.6519C17.185 33.6519 17.1963 33.6463 17.2191 33.6519L18.5209 33.9195C18.6118 33.9366 18.6744 33.9707 18.7085 34.0106C18.7483 34.0561 18.7596 34.096 18.7539 34.1415C18.7426 34.2041 18.7028 34.261 18.6346 34.3123C18.5663 34.3635 18.4868 34.409 18.3958 34.4489V34.466ZM17.6113 35.8207C17.4635 35.7923 17.3385 35.7866 17.2361 35.8094C17.1395 35.8321 17.0826 35.8777 17.0713 35.9346C17.0713 35.9631 17.0713 35.9915 17.0883 36.0257C17.1054 36.0598 17.1338 36.0883 17.1736 36.1168C17.2134 36.1452 17.2589 36.1737 17.3214 36.1964C17.3782 36.2192 17.4465 36.242 17.5204 36.2591C17.5943 36.2761 17.6625 36.2818 17.7307 36.2818C17.7932 36.2818 17.8501 36.2761 17.8956 36.2648C17.941 36.2534 17.9808 36.2363 18.0092 36.2135C18.0377 36.1908 18.0547 36.168 18.0604 36.1395C18.0718 36.0769 18.0377 36.02 17.9581 35.9574C17.8785 35.8948 17.7648 35.8492 17.6113 35.8207Z" fill="#656F83"/>
<path d="M20.6857 35.7945C20.572 35.7945 20.4527 35.7945 20.3276 35.7945C20.2025 35.7888 20.0718 35.7774 19.9354 35.766C19.7989 35.7546 19.6625 35.7375 19.5261 35.7205C19.3896 35.7034 19.2532 35.6806 19.1168 35.6578C19.0883 35.6578 19.077 35.6465 19.0713 35.6351C19.0713 35.6237 19.0713 35.6066 19.0713 35.5895L19.0997 35.3903C19.0997 35.3903 19.1111 35.3562 19.1168 35.3448C19.1281 35.3391 19.1395 35.3334 19.1622 35.3448C19.202 35.3505 19.2418 35.3562 19.2759 35.3618C19.3157 35.3618 19.3555 35.3732 19.3896 35.3789L19.5033 34.5251L19.31 34.4966C19.2703 34.4966 19.2532 34.4681 19.2589 34.4226L19.2873 34.2291C19.2873 34.1892 19.3157 34.1721 19.3555 34.1778L20.7142 34.36C20.754 34.36 20.7653 34.3884 20.7596 34.4283L20.7312 34.6275C20.7312 34.6674 20.7028 34.6844 20.6687 34.6788L20.5095 34.656L20.3958 35.4814C20.447 35.4814 20.4925 35.4814 20.5379 35.4871C20.5834 35.4871 20.6289 35.4871 20.6801 35.4871C20.7085 35.4871 20.7255 35.4928 20.7255 35.5212V35.7262C20.7255 35.7262 20.7255 35.7717 20.7198 35.7774C20.7142 35.7831 20.7028 35.7888 20.6857 35.7888V35.7945ZM20.2821 37.0639C20.1628 37.0468 20.0491 37.0183 19.9524 36.9785C19.8558 36.9386 19.7705 36.8874 19.7023 36.8248C19.6341 36.7622 19.5829 36.6996 19.5488 36.6256C19.5147 36.5516 19.5033 36.4719 19.5147 36.3922C19.5261 36.3125 19.5545 36.2442 19.6057 36.1815C19.6568 36.1189 19.725 36.0734 19.8046 36.0335C19.8842 35.9937 19.9808 35.9709 20.0888 35.9539C20.1969 35.9368 20.3106 35.9425 20.4299 35.9539C20.5436 35.9709 20.6516 35.9994 20.754 36.0392C20.8506 36.0791 20.9359 36.1303 21.0098 36.1929C21.0837 36.2499 21.1348 36.3182 21.1746 36.3922C21.2144 36.4662 21.2258 36.5402 21.2144 36.6199C21.203 36.6996 21.1689 36.7736 21.1121 36.8305C21.0552 36.8931 20.987 36.9443 20.9018 36.9785C20.8165 37.0126 20.7198 37.0468 20.6118 37.0582C20.5038 37.0753 20.3958 37.0696 20.2764 37.0582L20.2821 37.0639ZM20.0206 35.4529L20.1343 34.5991L19.8842 34.5649L19.7705 35.4188C19.8103 35.4245 19.8558 35.4302 19.8956 35.4358C19.9354 35.4358 19.9808 35.4472 20.0206 35.4472V35.4529ZM20.3901 36.2669C20.3219 36.2555 20.2537 36.2555 20.1969 36.2669C20.14 36.2783 20.0888 36.284 20.0491 36.3011C20.0093 36.3182 19.9752 36.3409 19.9524 36.3694C19.9297 36.3979 19.9126 36.4263 19.9069 36.4548C19.9013 36.5174 19.9297 36.5743 20.0036 36.6312C20.0775 36.6882 20.1798 36.728 20.3219 36.7451C20.3845 36.7565 20.447 36.7565 20.5038 36.7451C20.5607 36.7451 20.6118 36.728 20.6573 36.7109C20.7028 36.6939 20.7369 36.6768 20.7653 36.6483C20.7937 36.6199 20.8051 36.5971 20.8108 36.5686C20.8108 36.5402 20.8108 36.506 20.7881 36.4719C20.771 36.4377 20.7426 36.4092 20.7028 36.3808C20.663 36.3523 20.6175 36.3296 20.5664 36.3068C20.5152 36.284 20.4527 36.2726 20.3901 36.2612V36.2669ZM20.6857 35.4074C20.6857 35.4074 20.6516 35.4017 20.6459 35.3903C20.6403 35.3846 20.6346 35.3675 20.6403 35.3448L20.663 35.1683C20.663 35.1683 20.6744 35.1341 20.6801 35.1285C20.6857 35.1228 20.7028 35.1171 20.7255 35.1228L21.0041 35.1626L21.0211 35.0317L20.7426 34.9918C20.7426 34.9918 20.7085 34.9861 20.7028 34.9748C20.6971 34.9691 20.6914 34.952 20.6971 34.9292L20.7198 34.7528C20.7198 34.7528 20.7312 34.7129 20.7426 34.7072C20.754 34.7015 20.7653 34.7015 20.7881 34.7072L21.0666 34.7471L21.1235 34.3372C21.1235 34.3372 21.1348 34.2974 21.1462 34.2917C21.1576 34.286 21.1746 34.2917 21.1917 34.2917L21.4702 34.3315C21.4702 34.3315 21.51 34.3429 21.51 34.3543C21.51 34.3657 21.51 34.3771 21.51 34.3941L21.2997 35.9425C21.2997 35.9823 21.2713 35.9994 21.2372 35.9937L20.9586 35.9539C20.9245 35.9539 20.9074 35.9254 20.9131 35.8912L20.97 35.4529L20.6914 35.4131L20.6857 35.4074Z" fill="#656F83"/>
<path d="M21.868 36.6047C21.868 36.6047 21.8225 36.6275 21.8055 36.6218C21.7941 36.6218 21.7771 36.6104 21.7657 36.5876L21.6463 36.3713C21.6463 36.3713 21.6293 36.3315 21.6349 36.3144C21.6406 36.2973 21.652 36.2859 21.6691 36.2746C21.9647 36.1265 22.1977 35.9501 22.374 35.7395C22.5502 35.5288 22.6639 35.3012 22.715 35.045C22.7207 35.0051 22.715 34.9824 22.6752 34.9824L21.8908 34.9311C21.8908 34.9311 21.851 34.9255 21.8453 34.9141C21.8453 34.9027 21.8396 34.8913 21.8453 34.8685L21.8623 34.6465C21.8623 34.6465 21.868 34.6067 21.8794 34.601C21.8851 34.5953 21.9021 34.5896 21.9192 34.5953L22.9424 34.6636C23.0334 34.6693 23.0959 34.6921 23.1243 34.7376C23.1528 34.7775 23.1584 34.8458 23.1471 34.9311C23.1243 35.1076 23.0789 35.2784 23.0106 35.4435C22.9424 35.6085 22.8515 35.7622 22.7435 35.9045C22.6355 36.0469 22.5047 36.1778 22.3569 36.2973C22.2091 36.4169 22.0442 36.5193 21.868 36.6104V36.6047ZM24.1362 35.9273L23.7894 35.9045L23.6985 37.2821C23.6985 37.2821 23.6928 37.322 23.6871 37.3276C23.6814 37.3333 23.6644 37.339 23.6473 37.3333L23.3631 37.3163C23.3631 37.3163 23.329 37.3106 23.3176 37.3049C23.3119 37.2992 23.3062 37.2821 23.3062 37.2593L23.4882 34.5384C23.4882 34.5384 23.4938 34.5042 23.5052 34.4928C23.5166 34.4871 23.5279 34.4814 23.5507 34.4814L23.8349 34.4985C23.8349 34.4985 23.869 34.5042 23.8747 34.5156C23.8804 34.527 23.8804 34.5384 23.8804 34.5611L23.8122 35.5687L24.1589 35.5915C24.1589 35.5915 24.1874 35.5915 24.1987 35.6028C24.2101 35.6028 24.2101 35.6256 24.2101 35.6541L24.1931 35.8761C24.1931 35.8761 24.1874 35.9159 24.176 35.9216C24.1646 35.9273 24.1533 35.933 24.1362 35.9273Z" fill="#656F83"/>
<path d="M25.2344 36.5096H24.9672C24.9275 36.5096 24.9104 36.4868 24.9104 36.447V36.0884C24.8081 36.0884 24.7058 36.0884 24.6034 36.0884C24.5011 36.0884 24.4045 36.0884 24.3078 36.0827C24.2851 36.0827 24.268 36.0827 24.2623 36.0656C24.2567 36.0485 24.251 36.0371 24.251 36.0201V35.8208C24.251 35.8208 24.2567 35.781 24.2623 35.7696C24.268 35.7582 24.2851 35.7525 24.3021 35.7582C24.5693 35.7639 24.8365 35.7639 25.1094 35.7582C25.3822 35.7525 25.6494 35.7354 25.9109 35.7013C25.9393 35.7013 25.9564 35.7013 25.9678 35.7013C25.9734 35.7013 25.9791 35.7184 25.9848 35.7468L26.0075 35.9461C26.0075 35.9461 26.0075 35.9859 25.9962 35.9916C25.9848 35.9973 25.9734 36.003 25.9564 36.0087C25.8541 36.0258 25.7404 36.0371 25.6324 36.0428C25.5243 36.0485 25.4107 36.0599 25.297 36.0713V36.4527C25.297 36.4925 25.2742 36.5096 25.2344 36.5096ZM25.1321 35.6614C25.0355 35.6614 24.9502 35.6444 24.8706 35.6159C24.791 35.5874 24.7228 35.5476 24.666 35.5021C24.6091 35.4508 24.5636 35.3939 24.5295 35.3256C24.4954 35.2573 24.484 35.1833 24.484 35.1036C24.484 35.0296 24.5011 34.9613 24.5352 34.893C24.5693 34.8304 24.6148 34.7734 24.6773 34.7279C24.7342 34.6823 24.8081 34.6425 24.8877 34.6197C24.9672 34.5913 25.0582 34.5799 25.1492 34.5799C25.2458 34.5799 25.3311 34.597 25.4107 34.6254C25.4902 34.6539 25.5585 34.6937 25.6153 34.7393C25.6721 34.7848 25.7176 34.8417 25.7517 34.91C25.7858 34.9727 25.7972 35.0467 25.7972 35.1207C25.7972 35.2004 25.7802 35.2744 25.7461 35.3427C25.7119 35.411 25.6665 35.4679 25.6096 35.5134C25.5528 35.559 25.4789 35.5988 25.3993 35.6216C25.3197 35.6501 25.2287 35.6614 25.1378 35.6614H25.1321ZM26.4851 37.3464L24.8536 37.3293C24.8138 37.3293 24.7797 37.3293 24.7569 37.3179C24.7342 37.3122 24.7114 37.3009 24.7001 37.2838C24.6887 37.2667 24.6773 37.2439 24.6716 37.2212C24.666 37.1984 24.666 37.1585 24.666 37.1187V36.6804C24.666 36.6405 24.6887 36.6235 24.7285 36.6235H25.0014C25.0411 36.6235 25.0582 36.6462 25.0582 36.6861V36.9536C25.0582 36.9821 25.0696 36.9992 25.098 36.9992L26.4851 37.0162C26.4851 37.0162 26.5135 37.0162 26.5249 37.0276C26.5362 37.0333 26.5419 37.0504 26.5419 37.0732V37.3065C26.5419 37.3065 26.5362 37.3521 26.5249 37.3521C26.5135 37.3521 26.5021 37.3521 26.4851 37.3521V37.3464ZM25.1435 34.8987C25.0582 34.8987 24.99 34.9157 24.9331 34.9613C24.8763 35.0068 24.8479 35.0524 24.8479 35.115C24.8479 35.1833 24.8763 35.2345 24.9275 35.2801C24.9786 35.3256 25.0525 35.3427 25.1321 35.3484C25.2174 35.3484 25.2856 35.3313 25.3368 35.2857C25.3879 35.2459 25.4163 35.189 25.4163 35.1207C25.4163 35.058 25.3936 35.0068 25.3368 34.967C25.2799 34.9271 25.2174 34.9044 25.1321 34.8987H25.1435ZM26.4339 36.7487H26.1497C26.1497 36.7487 26.1156 36.743 26.1099 36.7373C26.1042 36.7316 26.0985 36.7145 26.0985 36.6918V36.4698H25.6778C25.6608 36.4698 25.6494 36.4698 25.638 36.4584C25.6267 36.4527 25.621 36.4356 25.621 36.4128V36.2079C25.621 36.2079 25.6267 36.1681 25.638 36.1624C25.6494 36.1624 25.6608 36.1567 25.6778 36.1567H26.0985L26.1156 34.597C26.1156 34.5742 26.1156 34.5628 26.1269 34.5514C26.1383 34.54 26.1497 34.54 26.1667 34.54H26.4566C26.4566 34.54 26.4907 34.5457 26.4964 34.5571C26.5021 34.5628 26.5078 34.5799 26.5078 34.6027L26.4851 36.6975C26.4851 36.6975 26.4851 36.7373 26.4737 36.743C26.468 36.7487 26.451 36.7544 26.4282 36.7544L26.4339 36.7487Z" fill="#656F83"/>
<path d="M27.842 37.0124C27.842 37.0124 27.7965 37.0124 27.7851 37.0124C27.7737 37.0124 27.7681 36.9896 27.7624 36.9611L27.7453 36.7505C27.7453 36.7505 27.7453 36.7107 27.7567 36.6936C27.7624 36.6765 27.7737 36.6594 27.7851 36.6424L28.1603 36.0959C28.2967 35.891 28.3991 35.7259 28.4559 35.6006C28.5128 35.4754 28.5412 35.3729 28.5355 35.2989C28.5298 35.2193 28.5071 35.1566 28.4616 35.1111C28.4161 35.0656 28.3593 35.0428 28.2854 35.0428C28.2115 35.0428 28.1433 35.0542 28.0693 35.0826C27.9954 35.1111 27.9215 35.1566 27.8306 35.2136C27.8079 35.2306 27.7908 35.2363 27.7794 35.2363C27.7681 35.2363 27.7624 35.2193 27.7567 35.2022L27.6885 34.946C27.6885 34.946 27.6885 34.9176 27.6885 34.9062C27.6885 34.8948 27.7055 34.8834 27.7283 34.8663C27.7624 34.8379 27.8022 34.8094 27.842 34.7866C27.8874 34.7639 27.9329 34.7411 27.9784 34.724C28.0239 34.7069 28.0693 34.6899 28.1205 34.6842C28.166 34.6728 28.2115 34.6671 28.2456 34.6671C28.3365 34.6614 28.4218 34.6671 28.5014 34.6899C28.581 34.7126 28.6549 34.7468 28.7174 34.798C28.7799 34.8492 28.8311 34.9119 28.8709 34.9916C28.9107 35.0713 28.9334 35.1623 28.9391 35.2705C28.9448 35.3616 28.9334 35.4583 28.905 35.5551C28.8766 35.6519 28.8368 35.743 28.7856 35.834C28.7401 35.9251 28.6833 36.0162 28.6264 36.0959C28.5696 36.1756 28.5184 36.2553 28.473 36.3236C28.4445 36.3691 28.4104 36.4203 28.3706 36.4716C28.3308 36.5285 28.2911 36.574 28.2626 36.6196L29.0016 36.5684C29.0016 36.5684 29.0471 36.5684 29.0528 36.5797C29.0585 36.5911 29.0642 36.6082 29.0642 36.6367L29.0812 36.8587C29.0812 36.8871 29.0812 36.9099 29.0755 36.9156C29.0699 36.9213 29.0528 36.9327 29.0244 36.9327L27.842 37.0124Z" fill="#656F83"/>
<path d="M30.0504 36.8584C29.9254 36.8698 29.8117 36.8584 29.715 36.8072C29.6184 36.756 29.5331 36.6876 29.4649 36.5966C29.3967 36.4998 29.3398 36.3803 29.2944 36.2436C29.2489 36.1013 29.2205 35.9419 29.1977 35.7655C29.192 35.6858 29.1863 35.6004 29.1807 35.515C29.1807 35.4239 29.1807 35.3385 29.192 35.2475C29.2034 35.1564 29.2205 35.071 29.2432 34.9913C29.2716 34.9059 29.3057 34.8319 29.3512 34.7636C29.3967 34.6953 29.4592 34.6441 29.5274 34.5985C29.5956 34.553 29.6866 34.5245 29.7832 34.5132C29.8856 34.5018 29.9708 34.5132 30.0504 34.5416C30.13 34.5701 30.1982 34.6099 30.2551 34.6668C30.3119 34.7238 30.3631 34.7864 30.4086 34.8661C30.4483 34.9401 30.4881 35.0255 30.5166 35.1052C30.545 35.1905 30.5677 35.2759 30.5848 35.367C30.6018 35.4524 30.6132 35.5378 30.6246 35.6118C30.6416 35.7882 30.6473 35.9476 30.6359 36.0956C30.6246 36.2436 30.5962 36.3689 30.545 36.477C30.4938 36.5852 30.4313 36.6763 30.346 36.7389C30.2608 36.8072 30.1584 36.8413 30.0334 36.8584H30.0504ZM29.8401 34.8945C29.7946 34.8945 29.7491 34.9173 29.715 34.9458C29.6752 34.9742 29.6468 35.0255 29.6241 35.0881C29.6013 35.1507 29.5843 35.2361 29.5786 35.3385C29.5729 35.441 29.5786 35.5662 29.59 35.7199C29.607 35.8736 29.6298 35.9989 29.6582 36.0956C29.6866 36.1924 29.7207 36.2721 29.7548 36.329C29.7946 36.3859 29.8344 36.4258 29.8742 36.4486C29.914 36.4713 29.9652 36.477 30.0106 36.4713C30.0561 36.4713 30.1016 36.4486 30.1357 36.4201C30.1755 36.3916 30.2039 36.3404 30.2323 36.2778C30.2551 36.2152 30.2721 36.1298 30.2778 36.0273C30.2835 35.9249 30.2778 35.7996 30.2608 35.6459C30.2437 35.4979 30.221 35.3727 30.1925 35.2759C30.1641 35.1792 30.13 35.0995 30.0959 35.0369C30.0561 34.9799 30.0163 34.9401 29.9765 34.9173C29.9367 34.8945 29.8856 34.8888 29.8401 34.8945Z" fill="#656F83"/>
<path d="M30.9255 36.721C30.9255 36.721 30.8801 36.721 30.8687 36.721C30.8573 36.721 30.846 36.6982 30.846 36.6754L30.8175 36.4648C30.8175 36.4648 30.8175 36.425 30.8232 36.4079C30.8289 36.3908 30.8403 36.3737 30.8516 36.3567L31.1813 35.7817C31.3007 35.5654 31.386 35.3946 31.4372 35.2637C31.4883 35.1328 31.5054 35.0303 31.494 34.9563C31.4826 34.8766 31.4542 34.814 31.403 34.7742C31.3576 34.7343 31.295 34.7116 31.2211 34.7172C31.1472 34.7172 31.079 34.74 31.0108 34.7742C30.9426 34.8083 30.8687 34.8596 30.7834 34.9222C30.7607 34.9392 30.7436 34.9506 30.7323 34.9449C30.7209 34.9449 30.7152 34.9336 30.7038 34.9165L30.6129 34.666C30.6129 34.666 30.6072 34.6376 30.6129 34.6262C30.6129 34.6148 30.6299 34.6034 30.647 34.5806C30.6811 34.5522 30.7152 34.5237 30.755 34.4952C30.7948 34.4668 30.8403 34.444 30.8857 34.4212C30.9312 34.3985 30.9767 34.3814 31.0222 34.37C31.0677 34.3586 31.1074 34.3472 31.1472 34.3415C31.2382 34.3302 31.3235 34.3302 31.403 34.3415C31.4826 34.3529 31.5622 34.3871 31.6248 34.4326C31.6873 34.4782 31.7441 34.5408 31.7896 34.6148C31.8351 34.6888 31.8635 34.7799 31.8806 34.888C31.8919 34.9791 31.8919 35.0759 31.8635 35.1726C31.8408 35.2694 31.8067 35.3662 31.7669 35.4629C31.7271 35.5597 31.6816 35.6508 31.6304 35.7362C31.5793 35.8273 31.5338 35.907 31.494 35.9753C31.4713 36.0208 31.4372 36.0777 31.403 36.1347C31.3689 36.1916 31.3348 36.2428 31.3064 36.294L32.0397 36.1859C32.0397 36.1859 32.0852 36.1859 32.0909 36.1916C32.0966 36.203 32.1023 36.22 32.108 36.2485L32.1421 36.4705C32.1421 36.499 32.1421 36.5217 32.1421 36.5274C32.1364 36.5388 32.1193 36.5445 32.0909 36.5502L30.9199 36.721H30.9255Z" fill="#656F83"/>
<path d="M33.6041 35.6027C33.6211 35.6995 33.6211 35.7963 33.6041 35.8873C33.587 35.9784 33.5472 36.0638 33.4961 36.1378C33.4449 36.2118 33.3653 36.2801 33.2744 36.3313C33.1834 36.3826 33.0697 36.4224 32.9447 36.4509C32.8651 36.468 32.7855 36.4736 32.6945 36.4736C32.6036 36.4736 32.524 36.4736 32.4501 36.4566C32.4217 36.4566 32.4046 36.4452 32.3989 36.4281C32.3933 36.4167 32.3876 36.3996 32.3876 36.3769L32.3705 36.1378C32.3705 36.1378 32.3705 36.0923 32.3819 36.0866C32.3933 36.0809 32.4103 36.0752 32.4444 36.0866C32.4899 36.0923 32.5467 36.0979 32.6036 36.1036C32.6661 36.1036 32.7173 36.1036 32.7628 36.1036C32.8253 36.0979 32.8878 36.0866 32.9504 36.0638C33.0129 36.0467 33.064 36.0183 33.1095 35.9784C33.155 35.9386 33.1891 35.8987 33.2118 35.8475C33.2346 35.7963 33.2403 35.7336 33.2232 35.6653C33.2175 35.6255 33.2005 35.5856 33.1721 35.5515C33.1436 35.5173 33.1095 35.4832 33.0697 35.4604C33.0243 35.4376 32.9731 35.4206 32.9162 35.4092C32.8594 35.3978 32.7912 35.4035 32.7116 35.4149L32.5638 35.4433C32.5638 35.4433 32.524 35.4433 32.5183 35.4433C32.5126 35.4433 32.5069 35.4206 32.5013 35.3978L32.4558 35.1587C32.4558 35.1587 32.4558 35.1132 32.4558 35.1075C32.4558 35.1018 32.4728 35.0904 32.5013 35.0904L32.6434 35.0619C32.6832 35.0562 32.723 35.0392 32.7684 35.0221C32.8139 34.9993 32.8537 34.9765 32.8878 34.9424C32.9219 34.9082 32.956 34.8684 32.9731 34.8285C32.9901 34.7887 33.0015 34.7375 32.9901 34.6862C32.9788 34.6122 32.939 34.5553 32.8821 34.5155C32.8253 34.4756 32.7457 34.4642 32.6434 34.4813C32.5808 34.4927 32.5126 34.5155 32.4444 34.5496C32.3762 34.5838 32.3137 34.6179 32.2568 34.6578C32.2341 34.6749 32.2113 34.6805 32.2 34.6805C32.1829 34.6805 32.1716 34.6692 32.1659 34.6407L32.092 34.4016C32.092 34.4016 32.0806 34.3675 32.092 34.3561C32.092 34.3447 32.109 34.3333 32.1374 34.3162C32.2113 34.2707 32.2852 34.2251 32.3648 34.1853C32.4444 34.1455 32.524 34.1227 32.6036 34.1056C32.6832 34.0885 32.7684 34.0885 32.8537 34.0942C32.939 34.0999 33.0186 34.1227 33.0925 34.1568C33.1664 34.191 33.2289 34.2422 33.2858 34.3105C33.3426 34.3788 33.3767 34.4642 33.3938 34.561C33.4051 34.6179 33.4051 34.6749 33.3938 34.7318C33.3824 34.7887 33.3653 34.8399 33.3426 34.8969C33.3199 34.9481 33.2858 34.9993 33.246 35.0392C33.2062 35.0847 33.1607 35.1246 33.1095 35.1587C33.2573 35.1872 33.3824 35.2441 33.4677 35.3295C33.5586 35.4149 33.6098 35.5059 33.6325 35.6027H33.6041Z" fill="#656F83"/>
<path d="M34.2381 36.3616C34.1698 36.3787 34.1015 36.3616 34.0445 36.3275C33.9876 36.2933 33.9478 36.2307 33.9307 36.1567C33.9136 36.0827 33.925 36.0144 33.9592 35.9575C33.9933 35.8948 34.0502 35.8607 34.1185 35.8436C34.1869 35.8265 34.2552 35.8436 34.3121 35.8778C34.369 35.9176 34.4089 35.9745 34.4259 36.0485C34.443 36.1225 34.4316 36.1908 34.3975 36.2478C34.3633 36.3104 34.3064 36.3445 34.2381 36.3616Z" fill="#656F83"/>
<path d="M35.2984 35.92C35.179 35.9485 35.0653 35.9485 34.963 35.92C34.8607 35.8859 34.7697 35.8289 34.6844 35.7435C34.6049 35.6582 34.531 35.55 34.4684 35.4134C34.4059 35.2768 34.3547 35.1231 34.3093 34.9523C34.2922 34.8783 34.2751 34.7929 34.2581 34.7075C34.241 34.6165 34.2354 34.5311 34.2354 34.44C34.2354 34.3489 34.2354 34.2635 34.2524 34.1781C34.2695 34.0927 34.2922 34.0131 34.3263 33.9391C34.3661 33.8651 34.4116 33.8024 34.4798 33.7512C34.5423 33.7 34.6276 33.6601 34.7242 33.6317C34.8209 33.6089 34.9118 33.6032 34.9914 33.6203C35.071 33.6374 35.1449 33.6715 35.2131 33.7171C35.2813 33.7626 35.3382 33.8195 35.3893 33.8878C35.4405 33.9561 35.486 34.0301 35.5258 34.1098C35.5656 34.1895 35.5997 34.2749 35.6281 34.3546C35.6565 34.44 35.6793 34.5197 35.702 34.5937C35.7475 34.7645 35.7702 34.9238 35.7759 35.0718C35.7816 35.2198 35.7759 35.3508 35.7418 35.4646C35.7077 35.5785 35.6565 35.6752 35.5826 35.7549C35.5087 35.8346 35.4121 35.8859 35.287 35.9143L35.2984 35.92ZM34.8152 34.0074C34.7697 34.0187 34.7299 34.0415 34.6958 34.0757C34.6617 34.1098 34.639 34.1611 34.6219 34.2294C34.6049 34.2977 34.6049 34.3831 34.6105 34.4855C34.6162 34.588 34.639 34.7132 34.6788 34.8555C34.7185 35.0035 34.7527 35.1231 34.7981 35.2198C34.8379 35.3166 34.8834 35.3849 34.9289 35.4362C34.9744 35.4874 35.0198 35.5215 35.0653 35.5386C35.1108 35.5557 35.1563 35.5557 35.2017 35.5386C35.2472 35.5272 35.287 35.5045 35.3211 35.4703C35.3552 35.4362 35.378 35.3849 35.395 35.3166C35.4121 35.2483 35.4121 35.1629 35.4064 35.0605C35.4007 34.958 35.378 34.8328 35.3382 34.6848C35.3041 34.5368 35.2643 34.4172 35.2188 34.3261C35.179 34.2294 35.1335 34.1611 35.0881 34.1041C35.0426 34.0529 34.9971 34.0187 34.9516 34.0017C34.9061 33.9846 34.8607 33.9846 34.8152 34.0017V34.0074Z" fill="#656F83"/>
<path d="M37.1467 35.1792C37.1012 35.2646 37.033 35.3329 36.9477 35.3898C36.8624 35.4468 36.7715 35.4923 36.6691 35.5208C36.635 35.5322 36.6009 35.5378 36.5554 35.5492C36.5157 35.5549 36.4702 35.5606 36.4304 35.5663C36.3906 35.5663 36.3451 35.5663 36.3053 35.5663C36.2655 35.5663 36.2314 35.5663 36.203 35.5549C36.1859 35.5549 36.1746 35.5492 36.1689 35.5435C36.1632 35.5435 36.1575 35.5265 36.1518 35.5037L36.0722 35.2361C36.0722 35.2361 36.0666 35.1963 36.0722 35.1906C36.0779 35.1849 36.0893 35.1792 36.112 35.1792C36.1405 35.1792 36.1746 35.1792 36.2144 35.1792C36.2542 35.1792 36.294 35.1792 36.3337 35.1792C36.3735 35.1792 36.419 35.1735 36.4588 35.1678C36.4986 35.1621 36.5441 35.1508 36.5782 35.1394C36.6862 35.1052 36.7601 35.0483 36.8113 34.9629C36.8567 34.8775 36.8681 34.7751 36.834 34.6612C36.7999 34.5531 36.7487 34.4734 36.6748 34.4221C36.6009 34.3709 36.4986 34.3652 36.3679 34.4051C36.3167 34.4221 36.2598 34.4449 36.1973 34.4734C36.1348 34.5018 36.0836 34.536 36.0381 34.5758C36.0268 34.5872 36.0097 34.5986 35.9927 34.61C35.9756 34.6214 35.9642 34.6271 35.9529 34.6271C35.9415 34.6271 35.9244 34.6271 35.9131 34.61C35.9017 34.5986 35.8903 34.5758 35.8847 34.5474L35.5834 33.4886C35.5777 33.4601 35.5777 33.443 35.5834 33.4317C35.5947 33.4203 35.6118 33.4089 35.6402 33.4032L36.618 33.1129C36.618 33.1129 36.6521 33.1072 36.6635 33.1129C36.6748 33.1186 36.6805 33.1357 36.6862 33.1527L36.7544 33.3861C36.7544 33.3861 36.7601 33.4203 36.7544 33.4317C36.7544 33.443 36.7374 33.4487 36.7146 33.4601L36.0154 33.6707L36.1405 34.1375C36.1405 34.1375 36.1973 34.1034 36.2314 34.092C36.2655 34.0806 36.294 34.0692 36.3281 34.0578C36.419 34.0294 36.51 34.018 36.6009 34.0237C36.6919 34.0294 36.7715 34.0521 36.8454 34.0863C36.9193 34.1261 36.9875 34.1774 37.05 34.2514C37.1125 34.3254 37.1523 34.4107 37.1864 34.5189C37.2604 34.7637 37.2433 34.9743 37.1467 35.1565V35.1792Z" fill="#656F83"/>
<path d="M37.9038 35.3512C37.8355 35.3739 37.7729 35.3682 37.7103 35.3341C37.6477 35.2999 37.6021 35.2487 37.5793 35.1747C37.5566 35.1007 37.5566 35.0381 37.5907 34.9698C37.6192 34.9072 37.6704 34.8616 37.7387 34.8389C37.807 34.8161 37.8697 34.8218 37.9323 34.8559C37.9949 34.8901 38.0404 34.9413 38.0632 35.0153C38.086 35.0893 38.086 35.1519 38.0518 35.2202C38.0234 35.2829 37.9721 35.3284 37.9038 35.3512Z" fill="#656F83"/>
<path d="M38.8973 34.7986C38.7779 34.8441 38.6699 34.8555 38.5619 34.8327C38.4539 34.8099 38.3572 34.7644 38.2663 34.6904C38.1753 34.6164 38.0901 34.5139 38.0162 34.3887C37.9423 34.2635 37.8684 34.1155 37.8115 33.9504C37.7831 33.8764 37.7604 33.7967 37.7376 33.7113C37.7149 33.6259 37.6978 33.5405 37.6865 33.4495C37.6751 33.3584 37.6694 33.273 37.6751 33.1876C37.6751 33.1022 37.6978 33.0168 37.7262 32.9428C37.7547 32.8688 37.8001 32.8005 37.857 32.7379C37.9138 32.6753 37.9934 32.6298 38.0844 32.5956C38.181 32.5615 38.2663 32.5444 38.3516 32.5558C38.4368 32.5615 38.5107 32.5899 38.5846 32.6241C38.6585 32.6639 38.7211 32.7151 38.7779 32.7778C38.8348 32.8404 38.8916 32.9087 38.9428 32.9884C38.9939 33.0681 39.0337 33.1421 39.0735 33.2218C39.1133 33.3015 39.1417 33.3812 39.1702 33.4495C39.2327 33.6145 39.2725 33.7739 39.2952 33.9162C39.318 34.0586 39.318 34.1952 39.3009 34.309C39.2838 34.4286 39.2384 34.5253 39.1758 34.6107C39.1133 34.6961 39.0224 34.7587 38.903 34.8043L38.8973 34.7986ZM38.2151 32.9485C38.1697 32.9656 38.1355 32.9941 38.1014 33.0282C38.073 33.0681 38.0503 33.1193 38.0446 33.1876C38.0389 33.2559 38.0446 33.3413 38.0616 33.4438C38.0787 33.5462 38.1128 33.6658 38.1697 33.8081C38.2208 33.9504 38.272 34.0642 38.3288 34.1553C38.38 34.2464 38.4311 34.3147 38.4823 34.3602C38.5335 34.4058 38.5789 34.4342 38.6301 34.4456C38.6756 34.457 38.7211 34.4513 38.7665 34.4342C38.812 34.4172 38.8461 34.3887 38.8746 34.3546C38.903 34.3147 38.9257 34.2635 38.9314 34.1952C38.9371 34.1269 38.9314 34.0415 38.9143 33.939C38.8973 33.8365 38.8632 33.717 38.8063 33.5747C38.7552 33.4324 38.704 33.3185 38.6528 33.2275C38.6017 33.1364 38.5505 33.0681 38.4994 33.0225C38.4482 32.977 38.397 32.9485 38.3516 32.9371C38.3061 32.9258 38.2606 32.9315 38.2151 32.9485Z" fill="#656F83"/>
<path d="M40.3579 34.2625C40.2783 34.2967 40.193 34.3138 40.1021 34.3252C40.0111 34.3365 39.9201 34.3252 39.8292 34.3024C39.7382 34.2796 39.6587 34.2341 39.5791 34.1772C39.5052 34.1145 39.4426 34.0348 39.3972 33.9267C39.3687 33.8584 39.3517 33.7958 39.3517 33.7331C39.3517 33.6705 39.3574 33.6079 39.3744 33.551C39.3915 33.4941 39.4142 33.4371 39.4483 33.3859C39.4767 33.3347 39.5109 33.2834 39.545 33.2379C39.4881 33.2265 39.4313 33.2094 39.3801 33.1867C39.3289 33.1639 39.2778 33.1411 39.2323 33.1127C39.1868 33.0842 39.1413 33.0501 39.1072 33.0102C39.0731 32.9704 39.039 32.9248 39.0163 32.8736C38.9822 32.7882 38.9651 32.7085 38.9708 32.6231C38.9708 32.5377 38.9935 32.458 39.0333 32.384C39.0674 32.31 39.1186 32.2417 39.1868 32.1848C39.255 32.1279 39.3233 32.0767 39.4085 32.0425C39.4938 32.0083 39.5791 31.9856 39.6643 31.9742C39.7496 31.9628 39.8349 31.9742 39.9088 31.997C39.9884 32.0197 40.0566 32.0596 40.1191 32.1165C40.1816 32.1734 40.2328 32.2417 40.2669 32.3328C40.3067 32.4296 40.3181 32.532 40.2897 32.6345C40.2612 32.737 40.2214 32.8508 40.1589 32.9704C40.2271 32.9817 40.2897 32.9988 40.3522 33.0159C40.4147 33.033 40.4716 33.0557 40.5227 33.0785C40.5739 33.107 40.625 33.1411 40.6648 33.181C40.7103 33.2265 40.7444 33.2778 40.7672 33.3404C40.8126 33.4485 40.8297 33.551 40.824 33.6421C40.8183 33.7388 40.7899 33.8242 40.7501 33.9039C40.7046 33.9836 40.6478 34.0576 40.5796 34.1145C40.5114 34.1715 40.4318 34.2227 40.3465 34.2568L40.3579 34.2625ZM39.5563 32.3727C39.5222 32.3897 39.4938 32.4068 39.4654 32.4353C39.4369 32.4637 39.4199 32.4922 39.4028 32.5207C39.3858 32.5548 39.3801 32.589 39.3744 32.6231C39.3744 32.6573 39.3744 32.6971 39.3915 32.7313C39.4028 32.7597 39.4256 32.7882 39.4597 32.8167C39.4938 32.8394 39.5279 32.8622 39.5677 32.8793C39.6075 32.8964 39.6473 32.9077 39.6871 32.9191C39.7269 32.9305 39.761 32.9362 39.7894 32.9362C39.8121 32.9134 39.8292 32.885 39.8519 32.8451C39.869 32.8053 39.886 32.7654 39.9031 32.7256C39.9145 32.6801 39.9258 32.6402 39.9315 32.6004C39.9315 32.5605 39.9315 32.5264 39.9201 32.5036C39.9088 32.4751 39.886 32.4467 39.8633 32.4239C39.8406 32.4011 39.8065 32.384 39.7723 32.3727C39.7382 32.3613 39.7041 32.3556 39.6643 32.3556C39.6245 32.3556 39.5904 32.367 39.5506 32.384L39.5563 32.3727ZM39.9486 33.2834C39.9201 33.3119 39.886 33.3461 39.8576 33.3802C39.8292 33.4144 39.8008 33.4542 39.7837 33.4941C39.7667 33.5339 39.7553 33.5794 39.7496 33.625C39.7496 33.6705 39.7496 33.7218 39.7723 33.7673C39.7894 33.8071 39.8121 33.8413 39.8462 33.8698C39.8804 33.8982 39.9145 33.9153 39.9599 33.9267C39.9997 33.9381 40.0452 33.9438 40.0907 33.9438C40.1362 33.9438 40.176 33.9324 40.2157 33.9153C40.2612 33.8982 40.2953 33.8755 40.3294 33.8413C40.3636 33.8128 40.392 33.7787 40.409 33.7388C40.4261 33.699 40.4375 33.6648 40.4431 33.6193C40.4431 33.5794 40.4431 33.5339 40.4204 33.4941C40.409 33.4656 40.3863 33.4371 40.3522 33.4144C40.3181 33.3859 40.284 33.3631 40.2385 33.3461C40.193 33.329 40.1475 33.3119 40.0964 33.3005C40.0452 33.2891 39.994 33.2834 39.9429 33.2834H39.9486Z" fill="#656F83"/>
<path d="M41.9633 32.1855C41.9519 32.2766 41.9292 32.362 41.8837 32.4303C41.8382 32.5043 41.7814 32.5555 41.7018 32.5953C41.6563 32.6181 41.6051 32.6352 41.5483 32.6409C41.4914 32.6466 41.4346 32.6523 41.3778 32.658C41.3209 32.658 41.2641 32.6637 41.2186 32.6693C41.1674 32.6693 41.1276 32.6864 41.0935 32.6978C41.0594 32.7149 41.0253 32.749 41.0026 32.806C40.9798 32.8629 40.9571 32.9141 40.9457 32.9767C40.9457 32.9995 40.9343 33.0109 40.923 33.0166C40.9116 33.0166 40.8946 33.0109 40.8718 32.9938L40.7013 32.88C40.7013 32.88 40.6785 32.8629 40.6729 32.8515C40.6729 32.8401 40.6729 32.8344 40.6729 32.823C40.6729 32.7263 40.707 32.6466 40.7524 32.5726C40.8036 32.5043 40.8661 32.4473 40.9571 32.4018C41.0026 32.379 41.0537 32.362 41.1106 32.3563C41.1674 32.3449 41.2243 32.3392 41.2811 32.3335C41.338 32.3278 41.3891 32.3221 41.4346 32.3164C41.4801 32.3164 41.5199 32.305 41.5426 32.2936C41.5653 32.2823 41.5824 32.2709 41.5938 32.2481C41.6108 32.2253 41.6222 32.2026 41.6336 32.1798C41.6449 32.157 41.6506 32.1286 41.662 32.1058C41.6734 32.083 41.679 32.0603 41.6847 32.0432C41.6904 32.0204 41.6961 32.009 41.7018 32.0033C41.7075 31.9976 41.7245 32.0033 41.7473 32.009L41.9405 32.1229C41.9405 32.1229 41.9633 32.14 41.969 32.1456C41.969 32.157 41.969 32.1684 41.969 32.1855H41.9633Z" fill="#656F83"/>
<path d="M42.7132 33.0683C42.7132 33.0683 42.6734 33.0854 42.662 33.0854C42.6506 33.0854 42.6336 33.074 42.6222 33.0512L42.5199 32.869C42.5199 32.869 42.5028 32.8292 42.5028 32.8121C42.5028 32.795 42.5028 32.778 42.5085 32.7552L42.6108 32.1006C42.6506 31.8558 42.6677 31.6679 42.6677 31.5256C42.6677 31.3833 42.6506 31.2866 42.6108 31.2182C42.571 31.1499 42.5199 31.0987 42.463 31.0816C42.4062 31.0589 42.3436 31.0646 42.2697 31.093C42.2015 31.1215 42.1447 31.1613 42.0935 31.2182C42.0424 31.2752 41.9912 31.3492 41.9343 31.4403C41.9173 31.4687 41.9059 31.4801 41.8946 31.4801C41.8832 31.4801 41.8718 31.4744 41.8604 31.463L41.6899 31.2581C41.6899 31.2581 41.6729 31.2353 41.6729 31.2239C41.6729 31.2126 41.6729 31.1955 41.6899 31.1727C41.707 31.1329 41.7297 31.093 41.7638 31.0532C41.7922 31.0133 41.8263 30.9735 41.8604 30.9393C41.8946 30.9052 41.9287 30.871 41.9685 30.8425C42.0082 30.8141 42.0424 30.7913 42.0708 30.7742C42.1504 30.7287 42.2299 30.7002 42.3152 30.6832C42.4005 30.6661 42.4801 30.6718 42.554 30.6889C42.6336 30.7059 42.7018 30.7458 42.7757 30.797C42.8439 30.8539 42.9064 30.9222 42.9576 31.019C43.0031 31.0987 43.0315 31.1898 43.0429 31.2922C43.0542 31.389 43.0599 31.4915 43.0542 31.5939C43.0542 31.6964 43.0372 31.7989 43.0258 31.9013C43.0088 32.0038 42.9974 32.0949 42.986 32.1746C42.9803 32.2258 42.969 32.2884 42.9576 32.3567C42.9462 32.425 42.9349 32.482 42.9235 32.5389L43.5715 32.1746C43.5715 32.1746 43.6113 32.1575 43.6227 32.1632C43.6341 32.1632 43.6454 32.186 43.6568 32.2087L43.7648 32.4023C43.7648 32.4023 43.7876 32.4478 43.7819 32.4592C43.7819 32.4706 43.7648 32.482 43.7421 32.4933L42.7075 33.074L42.7132 33.0683Z" fill="#656F83"/>
<path d="M44.6752 31.954C44.5672 32.0224 44.4648 32.0565 44.3568 32.0565C44.2488 32.0565 44.1408 32.0337 44.0385 31.9768C43.9362 31.9199 43.8281 31.8402 43.7258 31.732C43.6235 31.6239 43.5269 31.4987 43.4302 31.345C43.3904 31.2766 43.3449 31.2083 43.3052 31.1286C43.2654 31.049 43.2256 30.9693 43.1971 30.8839C43.1687 30.7985 43.146 30.7131 43.1289 30.6277C43.1176 30.5423 43.1119 30.4569 43.1289 30.3773C43.1403 30.2976 43.1687 30.2179 43.2142 30.1496C43.2597 30.0812 43.3222 30.0129 43.4075 29.9617C43.4927 29.9048 43.578 29.8763 43.6576 29.8649C43.7429 29.8535 43.8225 29.8649 43.8964 29.882C43.9759 29.9048 44.0498 29.9389 44.1181 29.9902C44.192 30.0414 44.2545 30.0983 44.3227 30.1609C44.3852 30.2236 44.4478 30.2919 44.4989 30.3602C44.5558 30.4285 44.6013 30.4968 44.6411 30.5651C44.7377 30.7131 44.8116 30.8611 44.8628 30.9977C44.9139 31.1343 44.948 31.2653 44.9537 31.3791C44.9594 31.493 44.9423 31.6068 44.8969 31.7036C44.8514 31.8004 44.7775 31.88 44.6695 31.9484L44.6752 31.954ZM43.6121 30.2919C43.5723 30.3146 43.5439 30.3488 43.5212 30.3943C43.4984 30.4399 43.4927 30.4968 43.4984 30.5651C43.5041 30.6334 43.5269 30.7188 43.5667 30.8099C43.6064 30.9066 43.669 31.0148 43.7486 31.14C43.8281 31.271 43.9077 31.3677 43.9759 31.4474C44.0442 31.5214 44.1124 31.5783 44.1692 31.6125C44.2261 31.6467 44.2829 31.6637 44.3284 31.6637C44.3796 31.6637 44.4194 31.6523 44.4591 31.6239C44.4989 31.5954 44.5274 31.5613 44.5501 31.5214C44.5728 31.4759 44.5785 31.419 44.5728 31.3506C44.5672 31.2823 44.5444 31.2026 44.5046 31.1059C44.4648 31.0091 44.4023 30.901 44.3227 30.77C44.2431 30.6448 44.1692 30.5423 44.0953 30.4683C44.0271 30.3943 43.9589 30.3374 43.902 30.3032C43.8452 30.2691 43.7884 30.252 43.7372 30.252C43.686 30.252 43.6462 30.2634 43.6064 30.2919H43.6121Z" fill="#656F83"/>
<path d="M45.4179 31.4288C45.4179 31.4288 45.3781 31.4516 45.3667 31.4573C45.3554 31.4573 45.3383 31.4459 45.3213 31.4288L45.1962 31.2581C45.1962 31.2581 45.1791 31.2239 45.1735 31.2068C45.1678 31.1898 45.1735 31.1727 45.1735 31.1499L45.1962 30.4839C45.2076 30.2391 45.1962 30.0456 45.1848 29.909C45.1678 29.7723 45.1393 29.6699 45.0939 29.613C45.0484 29.5503 44.9915 29.5048 44.929 29.4934C44.8665 29.482 44.804 29.4934 44.7414 29.5276C44.6789 29.5617 44.6277 29.613 44.5822 29.6756C44.5368 29.7382 44.4913 29.8179 44.4515 29.9147C44.4401 29.9431 44.4288 29.9602 44.4174 29.9602C44.406 29.9602 44.3947 29.9602 44.3833 29.9431L44.19 29.761C44.19 29.761 44.173 29.7382 44.1673 29.7268C44.1616 29.7154 44.1673 29.6983 44.1786 29.6699C44.19 29.63 44.2127 29.5845 44.2355 29.5447C44.2582 29.4991 44.2866 29.4593 44.3151 29.4194C44.3435 29.3796 44.3776 29.3397 44.4117 29.3113C44.4458 29.2771 44.4799 29.2486 44.5083 29.2259C44.5823 29.1746 44.6562 29.1348 44.7357 29.1063C44.8153 29.0836 44.8949 29.0722 44.9745 29.0836C45.0541 29.095 45.128 29.1234 45.2076 29.169C45.2872 29.2145 45.3497 29.2828 45.4122 29.3682C45.4691 29.4422 45.5089 29.5276 45.5316 29.6243C45.5543 29.7211 45.5714 29.8236 45.5771 29.926C45.5828 30.0285 45.5884 30.131 45.5828 30.2334C45.5828 30.3359 45.5771 30.427 45.5714 30.5124C45.5714 30.5636 45.5714 30.6262 45.5657 30.6945C45.56 30.7628 45.5543 30.8254 45.5543 30.8824L46.1512 30.4441C46.1512 30.4441 46.191 30.4213 46.2024 30.427C46.2138 30.4327 46.2251 30.4441 46.2422 30.4668L46.3729 30.649C46.3729 30.649 46.4014 30.6888 46.3957 30.7002C46.39 30.7116 46.3843 30.723 46.3616 30.7401L45.4065 31.4402L45.4179 31.4288Z" fill="#656F83"/>
<path d="M47.2481 29.3684L47.5267 29.6985C47.5267 29.6985 47.5608 29.7441 47.5608 29.7555C47.5608 29.7669 47.5494 29.7839 47.5267 29.801L47.3448 29.949C47.3448 29.949 47.305 29.9775 47.2879 29.9718C47.2709 29.9661 47.2595 29.9547 47.2425 29.9319L46.9639 29.6018L46.3045 30.1539C46.3045 30.1539 46.2704 30.1824 46.259 30.1824C46.2476 30.1824 46.2363 30.171 46.2192 30.1539L46.0828 29.9946C46.0828 29.9946 46.06 29.9604 46.06 29.9433C46.06 29.9262 46.06 29.9092 46.0544 29.8921C46.0146 29.6245 45.9748 29.3513 45.9293 29.0838C45.8838 28.8105 45.8497 28.543 45.8213 28.2754C45.8213 28.2584 45.8213 28.2413 45.8213 28.2356C45.8213 28.2242 45.8383 28.2128 45.8497 28.2014L46.0487 28.0364C46.0487 28.0364 46.0942 28.0079 46.0998 28.0193C46.1055 28.0307 46.1226 28.0421 46.1339 28.0534L47.0094 29.1008L47.1856 28.9528C47.1856 28.9528 47.2197 28.9244 47.2311 28.9244C47.2425 28.9244 47.2538 28.9358 47.2766 28.9642L47.4244 29.1407C47.4244 29.1407 47.4528 29.1862 47.4528 29.1919C47.4528 29.1976 47.4414 29.2147 47.4187 29.2318L47.2425 29.3798L47.2481 29.3684ZM46.35 29.6473L46.7365 29.3228L46.2135 28.6967L46.35 29.6416V29.6473Z" fill="#656F83"/>
<path d="M48.2049 29.4681C48.1537 29.5193 48.0911 29.5364 48.0228 29.5364C47.9545 29.5364 47.8918 29.5022 47.8406 29.4453C47.7894 29.3884 47.7666 29.3258 47.7666 29.2575C47.7666 29.1892 47.7951 29.1265 47.8463 29.081C47.8975 29.0298 47.9601 29.0127 48.0285 29.0127C48.0968 29.0127 48.1594 29.0468 48.2106 29.1038C48.2618 29.1607 48.2846 29.2233 48.2846 29.2916C48.2846 29.3599 48.2562 29.4225 48.2049 29.4681Z" fill="#656F83"/>
<path d="M48.9123 28.5097C48.827 28.6008 48.7304 28.6577 48.628 28.6862C48.5257 28.7146 48.412 28.7146 48.2983 28.6862C48.1846 28.6577 48.0653 28.6008 47.9402 28.5211C47.8151 28.4414 47.6901 28.3389 47.5593 28.2137C47.5025 28.1568 47.4456 28.0999 47.3888 28.0315C47.3319 27.9632 47.2751 27.8949 47.2296 27.8209C47.1841 27.7469 47.1387 27.6672 47.1046 27.5875C47.0704 27.5078 47.0534 27.4282 47.042 27.3428C47.0363 27.2631 47.042 27.1834 47.0704 27.098C47.0989 27.0183 47.1443 26.9386 47.2126 26.8703C47.2808 26.802 47.3547 26.7451 47.4343 26.7166C47.5139 26.6881 47.5934 26.6768 47.673 26.6768C47.7526 26.6768 47.8379 26.6995 47.9175 26.728C47.997 26.7565 48.0766 26.7963 48.1562 26.8475C48.2301 26.8931 48.304 26.9443 48.3722 27.0012C48.4405 27.0581 48.503 27.1151 48.5598 27.1663C48.6849 27.2915 48.7929 27.4111 48.8782 27.5306C48.9634 27.6502 49.0203 27.7697 49.0544 27.8835C49.0885 27.9974 49.0942 28.1055 49.0715 28.2137C49.0487 28.3162 48.9976 28.4129 48.9066 28.504L48.9123 28.5097ZM47.4911 27.1378C47.457 27.172 47.4399 27.2118 47.4286 27.2574C47.4172 27.3029 47.4286 27.3598 47.4456 27.4282C47.4627 27.4965 47.5082 27.5705 47.5707 27.6502C47.6332 27.7355 47.7185 27.8266 47.8265 27.9291C47.9345 28.0372 48.0312 28.1169 48.1164 28.1739C48.2017 28.2308 48.2756 28.2706 48.3438 28.2934C48.412 28.3162 48.4632 28.3162 48.5144 28.3048C48.5655 28.2934 48.5996 28.2706 48.6337 28.2365C48.6678 28.2023 48.6849 28.1625 48.6963 28.1169C48.7076 28.0714 48.6963 28.0145 48.6792 27.9462C48.6565 27.8835 48.6167 27.8095 48.5541 27.7242C48.4916 27.6388 48.4063 27.5477 48.2983 27.4395C48.1903 27.3371 48.0937 27.2517 48.0084 27.1948C47.9231 27.1378 47.8492 27.098 47.781 27.0752C47.7128 27.0525 47.656 27.0525 47.6105 27.0638C47.565 27.0752 47.5252 27.098 47.4911 27.1321V27.1378Z" fill="#656F83"/>
<path d="M50.0831 26.8286C50.0888 26.9254 50.0774 27.0222 50.0376 27.1189C50.0035 27.2157 49.9467 27.3011 49.8784 27.3865C49.8557 27.4149 49.833 27.4434 49.7989 27.4719C49.7704 27.5003 49.7363 27.5288 49.7022 27.5573C49.6681 27.5857 49.634 27.6085 49.5999 27.6313C49.5658 27.654 49.5374 27.6711 49.5089 27.6825C49.4919 27.6882 49.4805 27.6939 49.4748 27.6939C49.4691 27.6939 49.4578 27.6882 49.4407 27.6711L49.2247 27.4946C49.2247 27.4946 49.1963 27.4662 49.1963 27.4548C49.1963 27.4434 49.2077 27.432 49.2247 27.4263C49.2531 27.4092 49.2816 27.3922 49.3157 27.3694C49.3498 27.3466 49.3782 27.3239 49.4123 27.2954C49.4464 27.2669 49.4805 27.2442 49.5089 27.21C49.5374 27.1759 49.5658 27.1531 49.5942 27.1189C49.6624 27.0335 49.6965 26.9425 49.6852 26.84C49.6738 26.7432 49.6283 26.6579 49.5317 26.5782C49.4464 26.5099 49.3555 26.4757 49.2645 26.47C49.1735 26.47 49.0826 26.5212 48.9973 26.6294C48.9632 26.6692 48.9291 26.7205 48.895 26.7831C48.8609 26.84 48.8382 26.9026 48.8211 26.9595C48.8211 26.9766 48.8097 26.9937 48.804 27.0108C48.7984 27.0279 48.787 27.0392 48.7756 27.0449C48.7642 27.0563 48.7529 27.0563 48.7358 27.0506C48.7188 27.0506 48.7017 27.0335 48.6733 27.0165L47.832 26.3106C47.832 26.3106 47.7979 26.2765 47.7979 26.2594C47.7979 26.248 47.8092 26.2252 47.832 26.2025L48.4743 25.4112C48.4743 25.4112 48.5028 25.3828 48.5141 25.3884C48.5255 25.3884 48.5369 25.3941 48.5539 25.4112L48.7415 25.5649C48.7415 25.5649 48.7699 25.5934 48.7756 25.5991C48.7756 25.6105 48.7756 25.6218 48.7586 25.6446L48.2981 26.2138L48.6676 26.5269C48.679 26.4985 48.696 26.47 48.7188 26.4415C48.7358 26.4131 48.7586 26.3846 48.7756 26.3618C48.8382 26.2878 48.9064 26.2252 48.9803 26.1797C49.0542 26.1342 49.1394 26.1057 49.219 26.0943C49.3043 26.0829 49.3896 26.0943 49.4805 26.1171C49.5715 26.1455 49.6567 26.1911 49.742 26.2594C49.9353 26.4188 50.049 26.6009 50.066 26.8115L50.0831 26.8286Z" fill="#656F83"/>
<path d="M50.8295 26.4868C50.7896 26.5438 50.7327 26.5779 50.6644 26.5893C50.5961 26.6007 50.5278 26.5836 50.4652 26.5381C50.4026 26.4925 50.3684 26.4356 50.3513 26.3673C50.3342 26.299 50.3513 26.2364 50.3912 26.1737C50.431 26.1111 50.4879 26.0827 50.5562 26.0713C50.6246 26.0599 50.6929 26.077 50.7555 26.1225C50.8181 26.1681 50.8523 26.225 50.8693 26.2933C50.8864 26.3616 50.8693 26.4242 50.8295 26.4868Z" fill="#656F83"/>
<path d="M51.3155 25.3832C51.2529 25.4913 51.1677 25.571 51.071 25.6166C50.9744 25.6678 50.8664 25.6906 50.747 25.6849C50.6276 25.6849 50.5025 25.6564 50.3604 25.6052C50.224 25.554 50.0762 25.48 49.9227 25.3889C49.8545 25.349 49.7863 25.3035 49.7124 25.2466C49.6385 25.1953 49.5703 25.1384 49.5077 25.0758C49.4452 25.0132 49.3883 24.9449 49.3372 24.8766C49.286 24.8083 49.2519 24.7286 49.2235 24.6546C49.2007 24.5749 49.1894 24.4952 49.2007 24.4098C49.2064 24.3244 49.2405 24.239 49.2917 24.1536C49.3429 24.0682 49.4054 23.9999 49.4736 23.9544C49.5418 23.9089 49.6214 23.8804 49.701 23.8633C49.7806 23.8519 49.8659 23.8462 49.9511 23.8633C50.0364 23.8747 50.1217 23.8975 50.2069 23.9259C50.2922 23.9544 50.3718 23.9885 50.4571 24.0284C50.5367 24.0682 50.6105 24.1081 50.6731 24.1479C50.8266 24.239 50.9573 24.3358 51.0653 24.4326C51.1733 24.5293 51.2586 24.6318 51.3155 24.7399C51.3723 24.8424 51.4007 24.9506 51.4064 25.0587C51.4064 25.1669 51.378 25.2693 51.3098 25.3775L51.3155 25.3832ZM49.6328 24.3586C49.61 24.3984 49.5987 24.4439 49.5987 24.4895C49.5987 24.5407 49.6157 24.5919 49.6555 24.6489C49.6953 24.7058 49.7522 24.7684 49.8261 24.8367C49.9056 24.905 50.008 24.979 50.133 25.0587C50.2638 25.1384 50.3775 25.1953 50.4741 25.2352C50.5708 25.275 50.6503 25.2921 50.7186 25.2978C50.7868 25.2978 50.8436 25.2978 50.8834 25.275C50.9289 25.2523 50.963 25.2238 50.9857 25.184C51.0085 25.1441 51.0198 25.0986 51.0198 25.053C51.0198 25.0018 51.0028 24.9506 50.963 24.8936C50.9289 24.8367 50.872 24.7741 50.7925 24.7058C50.7129 24.6375 50.6106 24.5635 50.4798 24.4838C50.3491 24.4041 50.241 24.3472 50.1444 24.3073C50.0478 24.2675 49.9682 24.2504 49.8943 24.2447C49.8261 24.239 49.7692 24.2447 49.7237 24.2675C49.6783 24.2902 49.6442 24.3187 49.6214 24.3586H49.6328Z" fill="#656F83"/>
<path d="M50.5554 22.5251C50.6861 22.656 50.8112 22.7813 50.9362 22.9065C51.0613 23.0317 51.1693 23.1513 51.283 23.2708C51.3967 23.3903 51.5104 23.5099 51.6184 23.6294C51.7321 23.749 51.8458 23.8685 51.9652 23.9937C51.9879 24.0165 51.9993 24.0279 51.9993 24.0393C51.9993 24.0507 51.9993 24.0677 51.9879 24.0905L51.8742 24.3353C51.8629 24.3637 51.8458 24.3808 51.8344 24.3808C51.8231 24.3808 51.8003 24.3694 51.7719 24.341L50.4246 22.9463L50.0722 23.692C50.0722 23.692 50.0494 23.7262 50.0381 23.7319C50.0267 23.7319 50.004 23.7319 49.9812 23.7205L49.7652 23.618C49.7368 23.6066 49.7197 23.5896 49.7197 23.5839C49.7197 23.5725 49.7197 23.5554 49.7311 23.5326L50.237 22.4568C50.2484 22.4283 50.2655 22.4112 50.2768 22.4056C50.2882 22.3999 50.3109 22.4056 50.3394 22.4169L50.527 22.508C50.527 22.508 50.5497 22.5194 50.5554 22.5308V22.5251Z" fill="#656F83"/>
<path d="M17.2725 29.1396L15.8854 31.5019L15.4932 31.3881L15.5955 28.1377L15.9479 28.2402L15.8342 31.0067L17.2327 28.6159L17.5965 28.7183L17.4999 31.5133L18.8812 29.0883L19.2166 29.1851L17.5794 31.9914L17.1758 31.8719L17.2668 29.1282L17.2725 29.1396Z" fill="#333A46"/>
<path d="M17.1815 31.8776L17.5851 31.9971L19.2166 29.1908L18.8869 29.094L17.4999 31.519L17.5965 28.7183L17.2327 28.6159L15.8286 31.0067L15.9423 28.2402L15.5898 28.1377L15.4932 31.3881L15.8854 31.5019L17.2725 29.1396L17.1815 31.8776Z" stroke="#333A46" stroke-width="0.249659" stroke-linecap="round" stroke-linejoin="round"/>
<path d="M20.938 32.6462L19.0166 32.3161L19.551 29.208L21.4724 29.5382L21.4212 29.8456L19.8636 29.578L19.6988 30.5286L21.1484 30.7791L21.0972 31.0808L19.6476 30.8303L19.4373 32.0599L20.9949 32.3274L20.938 32.6462Z" fill="#333A46"/>
<path d="M20.9949 32.3331L19.4316 32.0656L19.6419 30.8303L21.0915 31.0808L21.1427 30.7791L19.6988 30.5286L19.8579 29.578L21.4212 29.8456L21.4724 29.5382L19.551 29.208L19.0166 32.3161L20.938 32.6462L20.9949 32.3331Z" stroke="#333A46" stroke-width="0.249659" stroke-linecap="round" stroke-linejoin="round"/>
<path d="M22.6833 32.8085L21.626 32.7117L21.9045 29.5752L22.9505 29.6663C23.0983 29.6777 23.2234 29.7118 23.3314 29.7574C23.4394 29.8029 23.5303 29.8655 23.6042 29.9338C23.6781 30.0021 23.7293 30.0818 23.7577 30.1729C23.7862 30.264 23.7975 30.3551 23.7918 30.4518C23.7748 30.6283 23.7123 30.7706 23.6042 30.8901C23.4962 31.0097 23.3484 31.0837 23.1722 31.1178C23.2802 31.152 23.3712 31.1861 23.4564 31.2374C23.5417 31.2886 23.6099 31.3512 23.6668 31.4252C23.7236 31.4992 23.7634 31.5846 23.7918 31.6757C23.8203 31.7725 23.826 31.8692 23.8203 31.9774C23.8089 32.0912 23.7805 32.1994 23.7293 32.3075C23.6781 32.4157 23.6042 32.5068 23.5133 32.5865C23.4167 32.6662 23.303 32.7231 23.1665 32.7686C23.0301 32.8085 22.8766 32.8199 22.7004 32.8085H22.6833ZM22.7004 31.2545L22.1262 31.2032L22.0182 32.4385L22.6663 32.4954C22.888 32.5125 23.0642 32.4726 23.1893 32.3759C23.3143 32.2734 23.3882 32.1311 23.4053 31.9432C23.4223 31.744 23.3769 31.5846 23.2575 31.4651C23.1438 31.3455 22.9562 31.2772 22.6947 31.2545H22.7004ZM22.8254 29.9737L22.2399 29.9224L22.1547 30.9072L22.7004 30.9584C22.8993 30.9755 23.0642 30.9528 23.1893 30.8844C23.3143 30.8161 23.3825 30.6909 23.3996 30.4974C23.4167 30.3323 23.3712 30.2071 23.2802 30.1274C23.1836 30.0477 23.0358 29.9964 22.8311 29.9794L22.8254 29.9737Z" fill="#333A46"/>
<path d="M23.1473 32.7864C23.2838 32.7465 23.3975 32.6839 23.4941 32.6099C23.5908 32.5302 23.6647 32.4391 23.7101 32.331C23.7613 32.2228 23.7897 32.1147 23.8011 32.0008C23.8125 31.8927 23.8011 31.7902 23.7783 31.6991C23.7499 31.6024 23.7101 31.5227 23.6533 31.4487C23.5964 31.3747 23.5282 31.312 23.4429 31.2608C23.3577 31.2096 23.2667 31.1697 23.1587 31.147C23.3349 31.1071 23.4827 31.0274 23.5907 30.9136C23.7044 30.794 23.767 30.6517 23.7783 30.4753C23.7897 30.3785 23.7783 30.2874 23.7442 30.1963C23.7158 30.1053 23.6647 30.0256 23.5907 29.9573C23.5168 29.8889 23.4316 29.8263 23.3236 29.7808C23.2156 29.7353 23.0905 29.7011 22.9427 29.6897L21.8967 29.5986L21.6182 32.7351L22.6755 32.8319C22.8517 32.849 23.0052 32.8319 23.1417 32.7921L23.1473 32.7864ZM23.2554 31.4828C23.369 31.6024 23.4202 31.7617 23.4032 31.961C23.3861 32.1488 23.3122 32.2911 23.1871 32.3936C23.0621 32.4904 22.8858 32.5359 22.6641 32.5131L22.0161 32.4562L22.1241 31.221L22.6983 31.2722C22.9597 31.295 23.1417 31.369 23.261 31.4885L23.2554 31.4828ZM23.2724 30.1337C23.369 30.2134 23.4088 30.3386 23.3918 30.5037C23.3747 30.6916 23.3065 30.8225 23.1815 30.8908C23.0564 30.9591 22.8972 30.9819 22.6926 30.9648L22.1468 30.9136L22.2321 29.9345L22.8176 29.9857C23.0223 30.0028 23.1701 30.054 23.2667 30.1337H23.2724Z" stroke="#333A46" stroke-width="0.249659" stroke-linecap="round" stroke-linejoin="round"/>
<path d="M26.4555 30.8833C26.5067 30.9402 26.5635 30.9972 26.6261 31.0484C26.6943 31.0996 26.7625 31.1509 26.8307 31.2021C26.9046 31.2476 26.9728 31.2932 27.0467 31.333C27.1206 31.3729 27.1888 31.407 27.2571 31.4355L27.0638 31.6802C26.9217 31.6119 26.7796 31.5266 26.6431 31.4298C26.5067 31.333 26.3816 31.2249 26.2679 31.111C26.1144 31.2761 25.9496 31.4184 25.7677 31.5379C25.5858 31.6575 25.4152 31.7486 25.2617 31.8112L25.04 31.5892C25.2049 31.5266 25.3584 31.4469 25.5119 31.3501C25.6597 31.2533 25.7961 31.1509 25.9212 31.0313C26.0405 30.9175 26.1429 30.7922 26.2281 30.667C26.3134 30.5418 26.3703 30.4108 26.3987 30.2799C26.2679 30.2913 26.1372 30.297 26.0008 30.3027C25.8643 30.3027 25.7279 30.3141 25.5915 30.3141L25.2504 30.3255V30.0465L25.8188 30.0295C25.978 30.0295 26.1372 30.0181 26.2964 30.0181C26.4555 30.0124 26.6261 30.0067 26.8023 29.9953C26.7909 30.1604 26.7511 30.3198 26.6886 30.4678C26.6261 30.6158 26.5465 30.7581 26.4498 30.889L26.4555 30.8833ZM27.9563 33.1944L25.8018 33.257L25.762 31.9421L26.0803 31.9307V32.2267L27.6038 32.1812L27.5925 31.8624L27.9108 31.851L27.9506 33.183L27.9563 33.1944ZM27.6266 32.9212L27.6152 32.4544L26.1031 32.5L26.1201 32.9667L27.6323 32.9212H27.6266ZM26.9558 30.889V30.5987L27.5527 30.5816L27.5299 29.8131L27.854 29.8018L27.9108 31.6632L27.5868 31.6746L27.564 30.8719L26.9558 30.889Z" fill="#333A46"/>
<path d="M26.1187 32.9667L26.1016 32.5L27.6138 32.4544L27.6251 32.9212L26.113 32.9667H26.1187ZM27.9207 31.8624L27.6024 31.8738L27.6138 32.1926L26.1016 32.2381L26.0903 31.9421L25.7719 31.9535L25.8117 33.2684L27.9662 33.2058L27.9264 31.8738L27.9207 31.8624ZM27.5683 30.8719L27.591 31.6746L27.9151 31.6632L27.8582 29.8018L27.5342 29.8131L27.5569 30.5816L26.9487 30.5987L26.96 30.889L27.5683 30.8719ZM26.6985 30.4564C26.7611 30.3084 26.7952 30.149 26.8122 29.9839C26.636 29.9953 26.4712 30.001 26.3063 30.0067C26.1471 30.0067 25.988 30.0181 25.8288 30.0238L25.2546 30.0408V30.3198L25.6071 30.3084C25.7435 30.3084 25.8799 30.297 26.0164 30.297C26.1528 30.297 26.2836 30.2856 26.4143 30.2742C26.3802 30.4052 26.3233 30.5304 26.2438 30.6613C26.1585 30.7922 26.0562 30.9118 25.9368 31.0256C25.8174 31.1395 25.681 31.2476 25.5275 31.3444C25.3797 31.4412 25.2205 31.5209 25.0557 31.5835L25.2774 31.8055C25.4309 31.7429 25.6014 31.6518 25.7833 31.5322C25.9652 31.4127 26.1301 31.2704 26.2836 31.1053C26.3973 31.2249 26.5223 31.333 26.6587 31.4241C26.7952 31.5209 26.9373 31.6006 27.0794 31.6746L27.2727 31.4298C27.2045 31.4013 27.1363 31.3672 27.0624 31.3273C26.9885 31.2875 26.9202 31.2476 26.8463 31.1964C26.7724 31.1509 26.7042 31.0996 26.6417 31.0484C26.5735 30.9972 26.5166 30.9402 26.4712 30.8833C26.5678 30.7524 26.6474 30.6101 26.7099 30.4621L26.6985 30.4564Z" stroke="#333A46" stroke-width="0.249659" stroke-linecap="round" stroke-linejoin="round"/>
<path d="M30.7017 31.0297C30.7017 30.8418 30.6903 30.6426 30.6847 30.449C30.6733 30.2498 30.6562 30.0563 30.6335 29.8684L28.7405 30.1246L28.7007 29.8456L30.9234 29.5439C30.9405 29.6749 30.9518 29.8058 30.9632 29.9424C30.9746 30.0733 30.9859 30.2043 30.9916 30.3295C30.9973 30.4547 31.0087 30.5743 31.0087 30.6824C31.0087 30.7963 31.0201 30.8987 31.0201 30.9898L31.6511 30.9044L31.6908 31.1834L28.4392 31.6217L28.3994 31.3427L30.696 31.0297H30.7017ZM31.435 32.7772L29.1782 33.0846L29.0247 31.9518L29.3431 31.9063L29.4568 32.7601L31.3952 32.4983L31.435 32.7772Z" fill="#333A46"/>
<path d="M31.4031 32.4983L29.4646 32.7601L29.3509 31.9063L29.0269 31.9518L29.1803 33.0846L31.4372 32.7772L31.3974 32.4983H31.4031ZM28.4072 31.3427L28.447 31.6217L31.6987 31.1834L31.6589 30.9044L31.0279 30.9898C31.0279 30.8987 31.0222 30.7963 31.0165 30.6824C31.0165 30.5686 31.0051 30.449 30.9994 30.3295C30.9938 30.2043 30.9824 30.0733 30.971 29.9424C30.9597 29.8115 30.9483 29.6749 30.9312 29.5439L28.7085 29.8456L28.7483 30.1246L30.6413 29.8684C30.664 30.0563 30.6811 30.2498 30.6925 30.449C30.7038 30.6483 30.7095 30.8418 30.7095 31.0297L28.4129 31.3427H28.4072Z" stroke="#333A46" stroke-width="0.249659" stroke-linecap="round" stroke-linejoin="round"/>
<path d="M32.7116 29.1276C32.74 29.2357 32.7628 29.3439 32.7742 29.4463C32.7855 29.5488 32.7912 29.6513 32.7912 29.748C32.939 29.9131 33.1039 30.0497 33.2801 30.1522C33.4563 30.2547 33.661 30.3344 33.894 30.3856L33.7576 30.6588C33.5586 30.6133 33.3767 30.545 33.2062 30.4482C33.0357 30.3514 32.8879 30.2376 32.7514 30.1067C32.7116 30.3116 32.6377 30.5051 32.5354 30.6816C32.4331 30.8581 32.3023 31.0231 32.1432 31.1711L31.876 31.0175C32.1488 30.7613 32.3251 30.4824 32.416 30.1864C32.507 29.8904 32.4956 29.5659 32.3819 29.2016L32.7059 29.1219L32.7116 29.1276ZM34.9287 31.3704C34.9514 31.4615 34.9514 31.5525 34.9287 31.6436C34.9002 31.7347 34.8491 31.8201 34.7752 31.8998C34.6956 31.9795 34.5933 32.0535 34.4625 32.1218C34.3318 32.1901 34.1783 32.247 33.9964 32.2925C33.8145 32.3381 33.6496 32.3609 33.5018 32.3609C33.354 32.3609 33.2289 32.3438 33.1209 32.3096C33.0129 32.2755 32.9276 32.2242 32.8594 32.1559C32.7912 32.0876 32.7514 32.0079 32.723 31.9168C32.7003 31.8258 32.7003 31.7347 32.723 31.6436C32.7514 31.5525 32.8026 31.4671 32.8822 31.3875C32.9618 31.3078 33.0641 31.2281 33.1948 31.1655C33.3256 31.0971 33.4791 31.0402 33.661 30.9947C33.8429 30.9491 34.0077 30.9264 34.1555 30.9207C34.3033 30.9207 34.4284 30.9321 34.5364 30.9719C34.6444 31.0061 34.7297 31.0573 34.7979 31.1256C34.8661 31.1939 34.9116 31.2736 34.9343 31.3704H34.9287ZM34.5989 31.4501C34.5876 31.3988 34.5592 31.3533 34.5137 31.3135C34.4739 31.2736 34.4113 31.2451 34.3374 31.2281C34.2635 31.2053 34.1726 31.1996 34.0703 31.1996C33.9679 31.1996 33.8486 31.2224 33.7121 31.2565C33.5814 31.2907 33.4677 31.3305 33.3767 31.3761C33.2858 31.4216 33.2119 31.4728 33.155 31.5241C33.0982 31.5753 33.0641 31.6322 33.0413 31.6835C33.0243 31.7347 33.0186 31.7916 33.03 31.8428C33.0413 31.8941 33.0698 31.9339 33.1096 31.9738C33.1493 32.0136 33.2119 32.0421 33.2801 32.0592C33.354 32.0762 33.4393 32.0876 33.5416 32.0819C33.6439 32.0819 33.7633 32.0592 33.894 32.025C34.0305 31.9909 34.1442 31.951 34.2351 31.9055C34.3261 31.8599 34.4 31.8087 34.4568 31.7575C34.5137 31.7062 34.5478 31.655 34.5705 31.5981C34.5876 31.5412 34.5933 31.4899 34.5819 31.4444L34.5989 31.4501ZM33.4734 29.896L33.4052 29.6114L34.0816 29.4407L33.9054 28.7291L34.2181 28.6494L34.724 30.6531L34.4113 30.7328L34.1555 29.7253L33.4791 29.896H33.4734Z" fill="#333A46"/>
<path d="M34.584 31.6116C34.567 31.6628 34.5272 31.7197 34.4703 31.771C34.4135 31.8222 34.3396 31.8677 34.2486 31.919C34.1577 31.9645 34.044 32.0044 33.9075 32.0385C33.7768 32.0727 33.6574 32.0897 33.5551 32.0954C33.4528 32.0954 33.3675 32.0954 33.2936 32.0727C33.2197 32.0556 33.1628 32.0214 33.1231 31.9873C33.0776 31.9474 33.0548 31.9076 33.0435 31.8564C33.0321 31.8051 33.0321 31.7539 33.0548 31.697C33.0719 31.64 33.1117 31.5888 33.1685 31.5376C33.2254 31.4863 33.2993 31.4351 33.3902 31.3896C33.4812 31.344 33.5949 31.3042 33.7256 31.27C33.8621 31.2359 33.9758 31.2188 34.0838 31.2131C34.1861 31.2131 34.277 31.2131 34.3509 31.2416C34.4248 31.2587 34.4817 31.2928 34.5272 31.327C34.567 31.3668 34.5954 31.4123 34.6124 31.4636C34.6238 31.5148 34.6181 31.566 34.6011 31.6173L34.584 31.6116ZM34.7887 31.1334C34.7204 31.0651 34.6352 31.0139 34.5272 30.9797C34.4192 30.9456 34.2941 30.9285 34.1463 30.9285C33.9985 30.9285 33.8336 30.9513 33.6517 31.0025C33.4698 31.048 33.3106 31.105 33.1856 31.1733C33.0548 31.2416 32.9525 31.3156 32.8729 31.3953C32.7933 31.475 32.7422 31.5604 32.7138 31.6514C32.6853 31.7425 32.6853 31.8336 32.7138 31.9247C32.7365 32.0157 32.782 32.0954 32.8502 32.1637C32.9184 32.2321 33.0037 32.2833 33.1117 32.3174C33.2197 32.3516 33.3448 32.3687 33.4926 32.3687C33.6404 32.3687 33.8052 32.3459 33.9871 32.3004C34.169 32.2548 34.3225 32.1979 34.4533 32.1296C34.584 32.0613 34.6863 31.9873 34.7659 31.9076C34.8455 31.8279 34.8967 31.7425 34.9194 31.6514C34.9478 31.5604 34.9478 31.4693 34.9194 31.3782C34.8967 31.2871 34.8512 31.2074 34.783 31.1334H34.7887ZM34.1463 29.7331L34.4021 30.7406L34.7148 30.661L34.2088 28.6572L33.8962 28.7369L34.0724 29.4485L33.3959 29.6192L33.4641 29.9039L34.1406 29.7331H34.1463ZM32.3897 29.2094C32.5034 29.5737 32.5091 29.8982 32.4238 30.1942C32.3329 30.4902 32.1567 30.7634 31.8838 31.0253L32.151 31.179C32.3101 31.031 32.4409 30.8659 32.5432 30.6894C32.6455 30.5129 32.7194 30.3194 32.7592 30.1145C32.89 30.2511 33.0435 30.3649 33.214 30.456C33.3845 30.5528 33.5665 30.6211 33.7654 30.6666L33.9019 30.3934C33.6688 30.3422 33.4641 30.2625 33.2879 30.16C33.1117 30.0576 32.9468 29.9209 32.799 29.7559C32.799 29.6591 32.7933 29.5566 32.782 29.4542C32.7706 29.3517 32.7479 29.2435 32.7194 29.1354L32.3954 29.2151L32.3897 29.2094Z" stroke="#333A46" stroke-width="0.249659" stroke-linecap="round" stroke-linejoin="round"/>
</g>
</svg>
