<svg width="56" height="57" viewBox="0 0 56 57" fill="none" xmlns="http://www.w3.org/2000/svg">
<g clip-path="url(#clip0_5920_59772)">
<g filter="url(#filter0_i_5920_59772)">
<path fill-rule="evenodd" clip-rule="evenodd" d="M44.7004 13.2354C44.6228 13.1365 44.5384 13.0411 44.4472 12.9499C44.4052 12.9079 44.3623 12.8673 44.3185 12.8282C44.215 12.7205 44.1105 12.6138 44.0048 12.5082L43.9611 12.5518C42.741 11.7417 41.0797 11.8744 40.0042 12.9499C38.7772 14.1769 38.7772 16.1661 40.0042 17.393C40.116 17.5049 40.2342 17.6065 40.3576 17.698C41.5334 19.0416 42.4836 20.5701 43.1687 22.2241C43.9933 24.2148 44.4177 26.3484 44.4177 28.5032C44.4177 30.6579 43.9933 32.7915 43.1687 34.7822C42.3442 36.7729 41.1356 38.5817 39.6119 40.1053C38.0883 41.6289 36.2795 42.8376 34.2888 43.6621C32.2981 44.4867 30.1645 44.9111 28.0098 44.9111C25.855 44.9111 23.7214 44.4867 21.7307 43.6621C19.74 42.8375 17.9312 41.6289 16.4076 40.1053L12.0148 44.4982C14.1153 46.5987 16.6089 48.2649 19.3533 49.4016C22.0978 50.5384 25.0392 51.1235 28.0098 51.1235C30.9803 51.1235 33.9218 50.5384 36.6662 49.4016C39.4106 48.2649 41.9043 46.5987 44.0048 44.4982C46.1053 42.3977 47.7715 39.904 48.9082 37.1596C50.045 34.4152 50.6301 31.4737 50.6301 28.5032C50.6301 25.5326 50.045 22.5912 48.9082 19.8467C47.9 17.4126 46.4752 15.1757 44.7004 13.2354Z" fill="url(#paint0_linear_5920_59772)"/>
</g>
<path fill-rule="evenodd" clip-rule="evenodd" d="M43.2637 11.8122C43.3619 11.8893 43.4564 11.9731 43.5469 12.0635C43.5886 12.1052 43.6289 12.1478 43.6677 12.1912C43.7745 12.2939 43.8803 12.3976 43.9851 12.5024L43.9421 12.5454C44.7554 13.7658 44.6237 15.4298 43.5469 16.5066C42.32 17.7335 40.3307 17.7335 39.1038 16.5066C38.9916 16.3943 38.8896 16.2757 38.7979 16.1519C37.4536 14.975 35.9243 14.024 34.2691 13.3384C32.2784 12.5139 30.1448 12.0895 27.9901 12.0895C25.8354 12.0895 23.7017 12.5139 21.711 13.3384C19.7203 14.163 17.9115 15.3716 16.3879 16.8952C14.8643 18.4189 13.6557 20.2277 12.8311 22.2184C12.0066 24.2091 11.5821 26.3427 11.5821 28.4974C11.5821 30.6521 12.0066 32.7858 12.8311 34.7765C13.5144 36.4261 14.4615 37.9509 15.6329 39.2919C15.7605 39.3856 15.8825 39.49 15.9978 39.6054C17.2248 40.8323 17.2248 42.8215 15.9978 44.0484C14.9223 45.1239 13.261 45.2567 12.0409 44.4466L11.9951 44.4924C11.8789 44.3763 11.7641 44.2589 11.6507 44.1404C11.6182 44.1105 11.5863 44.0799 11.5548 44.0484C11.4742 43.9679 11.399 43.8841 11.329 43.7974C9.54044 41.8497 8.10547 39.6015 7.09162 37.1538C5.95484 34.4094 5.36975 31.468 5.36974 28.4974C5.36974 25.5269 5.95484 22.5854 7.09162 19.841C8.22839 17.0965 9.8946 14.6029 11.9951 12.5024C14.0956 10.4019 16.5892 8.73571 19.3337 7.59893C22.0781 6.46215 25.0195 5.87706 27.9901 5.87706C30.9606 5.87706 33.9021 6.46215 36.6465 7.59893C39.0832 8.60822 41.3221 10.0348 43.2637 11.8122Z" fill="#457DFF"/>
<path fill-rule="evenodd" clip-rule="evenodd" d="M43.2637 11.8122C43.3619 11.8893 43.4564 11.9731 43.5469 12.0635C43.5886 12.1052 43.6289 12.1478 43.6677 12.1912C43.7745 12.2939 43.8803 12.3976 43.9851 12.5024L43.9421 12.5454C44.7554 13.7658 44.6237 15.4298 43.5469 16.5066C42.32 17.7335 40.3307 17.7335 39.1038 16.5066C38.9916 16.3943 38.8896 16.2757 38.7979 16.1519C37.4536 14.975 35.9243 14.024 34.2691 13.3384C32.2784 12.5139 30.1448 12.0895 27.9901 12.0895C25.8354 12.0895 23.7017 12.5139 21.711 13.3384C19.7203 14.163 17.9115 15.3716 16.3879 16.8952C14.8643 18.4189 13.6557 20.2277 12.8311 22.2184C12.0066 24.2091 11.5821 26.3427 11.5821 28.4974C11.5821 30.6521 12.0066 32.7858 12.8311 34.7765C13.5144 36.4261 14.4615 37.9509 15.6329 39.2919C15.7605 39.3856 15.8825 39.49 15.9978 39.6054C17.2248 40.8323 17.2248 42.8215 15.9978 44.0484C14.9223 45.1239 13.261 45.2567 12.0409 44.4466L11.9951 44.4924C11.8789 44.3763 11.7641 44.2589 11.6507 44.1404C11.6182 44.1105 11.5863 44.0799 11.5548 44.0484C11.4742 43.9679 11.399 43.8841 11.329 43.7974C9.54044 41.8497 8.10547 39.6015 7.09162 37.1538C5.95484 34.4094 5.36975 31.468 5.36974 28.4974C5.36974 25.5269 5.95484 22.5854 7.09162 19.841C8.22839 17.0965 9.8946 14.6029 11.9951 12.5024C14.0956 10.4019 16.5892 8.73571 19.3337 7.59893C22.0781 6.46215 25.0195 5.87706 27.9901 5.87706C30.9606 5.87706 33.9021 6.46215 36.6465 7.59893C39.0832 8.60822 41.3221 10.0348 43.2637 11.8122Z" fill="url(#paint1_linear_5920_59772)"/>
<path d="M16.8909 40.4953C18.1178 41.7222 18.1178 43.7114 16.8909 44.9383C15.664 46.1652 13.6748 46.1652 12.4478 44.9383C11.2209 43.7114 11.2209 41.7222 12.4478 40.4953C13.6748 39.2684 15.664 39.2684 16.8909 40.4953Z" fill="url(#paint2_linear_5920_59772)"/>
<path fill-rule="evenodd" clip-rule="evenodd" d="M27.9996 17.9004C29.0928 17.9004 29.9791 18.7866 29.9791 19.8799V35.2348C29.9791 36.3281 29.0928 37.2143 27.9996 37.2143C26.9063 37.2143 26.0201 36.3281 26.0201 35.2348V19.8799C26.0201 18.7866 26.9063 17.9004 27.9996 17.9004ZM20.9624 23.1955C22.0557 23.1955 22.9419 24.0817 22.9419 25.175V35.2348C22.9419 36.3281 22.0557 37.2143 20.9624 37.2143C19.8692 37.2143 18.9829 36.3281 18.9829 35.2348V25.175C18.9829 24.0817 19.8692 23.1955 20.9624 23.1955ZM35.038 25.5781C36.1313 25.5781 37.0175 26.4644 37.0175 27.5576V35.2351C37.0175 36.3284 36.1313 37.2146 35.038 37.2146C33.9448 37.2146 33.0585 36.3284 33.0585 35.2351V27.5576C33.0585 26.4644 33.9448 25.5781 35.038 25.5781Z" fill="#457DFF"/>
<path fill-rule="evenodd" clip-rule="evenodd" d="M27.9996 17.9004C29.0928 17.9004 29.9791 18.7866 29.9791 19.8799V35.2348C29.9791 36.3281 29.0928 37.2143 27.9996 37.2143C26.9063 37.2143 26.0201 36.3281 26.0201 35.2348V19.8799C26.0201 18.7866 26.9063 17.9004 27.9996 17.9004ZM20.9624 23.1955C22.0557 23.1955 22.9419 24.0817 22.9419 25.175V35.2348C22.9419 36.3281 22.0557 37.2143 20.9624 37.2143C19.8692 37.2143 18.9829 36.3281 18.9829 35.2348V25.175C18.9829 24.0817 19.8692 23.1955 20.9624 23.1955ZM35.038 25.5781C36.1313 25.5781 37.0175 26.4644 37.0175 27.5576V35.2351C37.0175 36.3284 36.1313 37.2146 35.038 37.2146C33.9448 37.2146 33.0585 36.3284 33.0585 35.2351V27.5576C33.0585 26.4644 33.9448 25.5781 35.038 25.5781Z" fill="url(#paint3_linear_5920_59772)"/>
</g>
<defs>
<filter id="filter0_i_5920_59772" x="12.0146" y="10.1435" width="40.5012" height="40.9795" filterUnits="userSpaceOnUse" color-interpolation-filters="sRGB">
<feFlood flood-opacity="0" result="BackgroundImageFix"/>
<feBlend mode="normal" in="SourceGraphic" in2="BackgroundImageFix" result="shape"/>
<feColorMatrix in="SourceAlpha" type="matrix" values="0 0 0 0 0 0 0 0 0 0 0 0 0 0 0 0 0 0 127 0" result="hardAlpha"/>
<feOffset dx="1.88577" dy="-1.88577"/>
<feGaussianBlur stdDeviation="4.71442"/>
<feComposite in2="hardAlpha" operator="arithmetic" k2="-1" k3="1"/>
<feColorMatrix type="matrix" values="0 0 0 0 0.82703 0 0 0 0 0.853975 0 0 0 0 0.921338 0 0 0 0.8 0"/>
<feBlend mode="normal" in2="shape" result="effect1_innerShadow_5920_59772"/>
</filter>
<linearGradient id="paint0_linear_5920_59772" x1="30.5144" y1="54.9735" x2="22.0425" y2="23.4733" gradientUnits="userSpaceOnUse">
<stop offset="0.009" stop-color="#F8FAFF"/>
<stop offset="0.989" stop-color="#F5F7F9"/>
</linearGradient>
<linearGradient id="paint1_linear_5920_59772" x1="35.2949" y1="15.1091" x2="12.1635" y2="15.993" gradientUnits="userSpaceOnUse">
<stop stop-color="#78C4FF"/>
<stop offset="1" stop-color="#5188FD"/>
</linearGradient>
<linearGradient id="paint2_linear_5920_59772" x1="17.8232" y1="42.0713" x2="12.2909" y2="44.5301" gradientUnits="userSpaceOnUse">
<stop stop-color="#E5E9F4"/>
<stop offset="1" stop-color="#DFE4F1"/>
</linearGradient>
<linearGradient id="paint3_linear_5920_59772" x1="32.5526" y1="24.0471" x2="24.5233" y2="27.8363" gradientUnits="userSpaceOnUse">
<stop stop-color="#78C4FF"/>
<stop offset="1" stop-color="#5188FD"/>
</linearGradient>
<clipPath id="clip0_5920_59772">
<rect width="56" height="56" fill="white" transform="translate(0 0.5)"/>
</clipPath>
</defs>
</svg>
