<svg width="56" height="57" viewBox="0 0 56 57" fill="none" xmlns="http://www.w3.org/2000/svg">
<path d="M4 18.9C4 16.4699 5.96995 14.5 8.4 14.5H45.6C48.0301 14.5 50 16.4699 50 18.9V43.1C50 45.5301 48.0301 47.5 45.6 47.5H8.4C5.96995 47.5 4 45.5301 4 43.1V18.9Z" fill="url(#paint0_linear_5920_59769)"/>
<g filter="url(#filter0_i_5920_59769)">
<path d="M4 15.1667C4 12.5893 5.96995 10.5 8.4 10.5H45.6C48.0301 10.5 50 12.5893 50 15.1667V41.8333C50 44.4107 48.0301 46.5 45.6 46.5H8.4C5.96995 46.5 4 44.4107 4 41.8333V15.1667Z" fill="url(#paint1_linear_5920_59769)"/>
</g>
<path d="M4 15.1667C4 12.5893 5.96995 10.5 8.4 10.5H45.6C48.0301 10.5 50 12.5893 50 15.1667V18.5H4V15.1667Z" fill="url(#paint2_linear_5920_59769)"/>
<path d="M42.9986 51.498C49.0745 51.498 54 46.5732 54 40.498C54 34.4229 49.0745 29.498 42.9986 29.498C36.9226 29.498 31.9971 34.4229 31.9971 40.498C31.9971 46.5732 36.9226 51.498 42.9986 51.498Z" fill="#457DFF"/>
<path d="M42.9986 51.498C49.0745 51.498 54 46.5732 54 40.498C54 34.4229 49.0745 29.498 42.9986 29.498C36.9226 29.498 31.9971 34.4229 31.9971 40.498C31.9971 46.5732 36.9226 51.498 42.9986 51.498Z" fill="url(#paint3_linear_5920_59769)"/>
<path fill-rule="evenodd" clip-rule="evenodd" d="M42.9985 35.498C43.5641 35.498 44.0227 35.9566 44.0227 36.5222V39.4739H46.9744C47.54 39.4739 47.9985 39.9324 47.9985 40.498C47.9985 41.0637 47.54 41.5222 46.9744 41.5222H44.0227V44.4739C44.0227 45.0395 43.5641 45.498 42.9985 45.498C42.4329 45.498 41.9744 45.0395 41.9744 44.4739L41.9744 41.5222H39.0227C38.4571 41.5222 37.9985 41.0637 37.9985 40.498C37.9985 39.9324 38.4571 39.4739 39.0227 39.4739H41.9744L41.9744 36.5222C41.9744 35.9566 42.4329 35.498 42.9985 35.498Z" fill="white"/>
<defs>
<filter id="filter0_i_5920_59769" x="4" y="6.5" width="50" height="40" filterUnits="userSpaceOnUse" color-interpolation-filters="sRGB">
<feFlood flood-opacity="0" result="BackgroundImageFix"/>
<feBlend mode="normal" in="SourceGraphic" in2="BackgroundImageFix" result="shape"/>
<feColorMatrix in="SourceAlpha" type="matrix" values="0 0 0 0 0 0 0 0 0 0 0 0 0 0 0 0 0 0 127 0" result="hardAlpha"/>
<feOffset dx="4" dy="-4"/>
<feGaussianBlur stdDeviation="5"/>
<feComposite in2="hardAlpha" operator="arithmetic" k2="-1" k3="1"/>
<feColorMatrix type="matrix" values="0 0 0 0 0.82703 0 0 0 0 0.853975 0 0 0 0 0.921338 0 0 0 1 0"/>
<feBlend mode="normal" in2="shape" result="effect1_innerShadow_5920_59769"/>
</filter>
<linearGradient id="paint0_linear_5920_59769" x1="9.5184" y1="44.7011" x2="33.4679" y2="13.9041" gradientUnits="userSpaceOnUse">
<stop offset="0.009" stop-color="#F2F4FC"/>
<stop offset="0.989" stop-color="#F5F7F9"/>
</linearGradient>
<linearGradient id="paint1_linear_5920_59769" x1="9.76924" y1="42.5315" x2="35.258" y2="10.2234" gradientUnits="userSpaceOnUse">
<stop offset="0.009" stop-color="#F8FAFF"/>
<stop offset="0.989" stop-color="#F5F7F9"/>
</linearGradient>
<linearGradient id="paint2_linear_5920_59769" x1="40.2306" y1="12.3997" x2="37.5554" y2="21.0566" gradientUnits="userSpaceOnUse">
<stop stop-color="#78C4FF"/>
<stop offset="1" stop-color="#5188FD"/>
</linearGradient>
<linearGradient id="paint3_linear_5920_59769" x1="50.1148" y1="35.4686" x2="37.9842" y2="41.7145" gradientUnits="userSpaceOnUse">
<stop stop-color="#78C4FF"/>
<stop offset="1" stop-color="#5188FD"/>
</linearGradient>
</defs>
</svg>
