<svg width="88" height="88" viewBox="0 0 88 88" fill="none" xmlns="http://www.w3.org/2000/svg">
<g filter="url(#filter0_i_8667_115499)">
<path d="M34.3384 30.6767C36.7702 34.7559 42.6778 34.7559 45.1096 30.6767L56.8067 11.0559C58.3982 8.38628 56.4746 5 53.3665 5H26.0815C22.9735 5 21.0499 8.38628 22.6414 11.0559L34.3384 30.6767Z" fill="url(#paint0_linear_8667_115499)"/>
</g>
<g filter="url(#filter1_i_8667_115499)">
<path d="M4.85795 49.7726C5.49747 32.9594 18.2357 19.6865 33.7323 19.6865H45.7032C61.1998 19.6865 73.938 32.9594 74.5775 49.7726L75.4271 72.1081C75.6531 78.0495 71.2784 83.0001 65.8023 83.0001H13.6331C8.15703 83.0001 3.78239 78.0495 4.00838 72.1081L4.85795 49.7726Z" fill="url(#paint1_linear_8667_115499)"/>
</g>
<g filter="url(#filter2_di_8667_115499)">
<path fill-rule="evenodd" clip-rule="evenodd" d="M27.0332 43.1505C28.5624 42.6602 30.2325 43.4074 30.7635 44.8192L33.8567 53.0439L36.9499 44.8192C37.3593 43.7306 38.4706 43.0007 39.7188 43.0007C40.9669 43.0007 42.0782 43.7306 42.4876 44.8192L45.5808 53.0439L48.674 44.8192C49.205 43.4074 50.8751 42.6602 52.4043 43.1505C53.9335 43.6407 54.7427 45.1826 54.2118 46.5945L52.6323 50.7943H53.7877C55.4065 50.7943 56.7188 52.0058 56.7188 53.5004C56.7188 54.9949 55.4065 56.2065 53.7877 56.2065H50.5968L48.3497 62.1815C47.9403 63.2702 46.829 64 45.5808 64C44.3326 64 43.2214 63.2702 42.812 62.1815L39.7188 53.9568L36.6256 62.1815C36.2161 63.2702 35.1049 64 33.8567 64C32.6085 64 31.4972 63.2702 31.0878 62.1815L28.8407 56.2065H25.6498C24.031 56.2065 22.7188 54.9949 22.7188 53.5004C22.7188 52.0058 24.031 50.7943 25.6498 50.7943H26.8052L25.2257 46.5945C24.6948 45.1826 25.504 43.6407 27.0332 43.1505Z" fill="url(#paint2_linear_8667_115499)"/>
</g>
<g filter="url(#filter3_i_8667_115499)">
<path fill-rule="evenodd" clip-rule="evenodd" d="M53.6244 19.7501C53.8821 21.1271 52.9747 22.4523 51.5977 22.7099L51.1311 20.2166C51.5977 22.7099 51.598 22.7099 51.5977 22.7099L51.5896 22.7114L51.5744 22.7142L51.5227 22.7236L51.3368 22.7562C51.1772 22.7836 50.9471 22.8218 50.6539 22.8671C50.0677 22.9577 49.2277 23.0769 48.1924 23.1954C46.1257 23.4318 43.26 23.6673 40.0684 23.6604C36.8869 23.6534 33.8537 23.4188 31.6256 23.1883C30.5084 23.0727 29.5864 22.9574 28.9403 22.8704C28.6172 22.8269 28.3626 22.7904 28.1868 22.7645L27.9832 22.734L27.928 22.7255L27.9125 22.723L27.9077 22.7223C27.9075 22.7223 27.9051 22.7219 28.3025 20.2166L27.9077 22.7223C26.5241 22.5028 25.5778 21.2028 25.7973 19.8192C26.0167 18.4358 27.316 17.4922 28.6993 17.7113C28.6994 17.7113 28.6993 17.7113 28.6993 17.7113L28.7097 17.7129L28.7513 17.7193L28.9263 17.7456C29.0826 17.7686 29.3162 17.8021 29.6171 17.8426C30.2192 17.9236 31.0892 18.0326 32.1477 18.1421C34.271 18.3618 37.1234 18.5808 40.0795 18.5872C43.0254 18.5936 45.6882 18.3756 47.6158 18.1551C48.5776 18.0451 49.3511 17.935 49.8792 17.8534C50.1431 17.8127 50.3453 17.779 50.4787 17.7561L50.6261 17.7303L50.6593 17.7243L50.6646 17.7233C50.6648 17.7233 50.6644 17.7234 50.6646 17.7233M53.6244 19.7501C53.3668 18.3733 52.0414 17.466 50.6646 17.7233Z" fill="url(#paint3_linear_8667_115499)"/>
</g>
<path d="M67 76C67 75.4477 67.4477 75 68 75H74C74.5523 75 75 75.4477 75 76V84H67V76Z" fill="white"/>
<path d="M72.406 59.0165C71.5668 58.4099 70.4332 58.4099 69.594 59.0165L59.994 65.956C59.3697 66.4073 59 67.1308 59 67.9011V81.8001C59 82.4629 59.5373 83.0001 60.2 83.0001H66.8C67.4627 83.0001 68 82.4629 68 81.8001V77.2001C68 76.5374 68.5373 76.0001 69.2 76.0001H72.8C73.4627 76.0001 74 76.5374 74 77.2001V81.8001C74 82.4629 74.5373 83.0001 75.2 83.0001H81.8C82.4627 83.0001 83 82.4629 83 81.8001V67.9011C83 67.1308 82.6303 66.4073 82.006 65.956L72.406 59.0165Z" fill="url(#paint4_linear_8667_115499)"/>
<defs>
<filter id="filter0_i_8667_115499" x="22.0703" y="0.924011" width="39.3826" height="32.8123" filterUnits="userSpaceOnUse" color-interpolation-filters="sRGB">
<feFlood flood-opacity="0" result="BackgroundImageFix"/>
<feBlend mode="normal" in="SourceGraphic" in2="BackgroundImageFix" result="shape"/>
<feColorMatrix in="SourceAlpha" type="matrix" values="0 0 0 0 0 0 0 0 0 0 0 0 0 0 0 0 0 0 127 0" result="hardAlpha"/>
<feOffset dx="4.07599" dy="-4.07599"/>
<feGaussianBlur stdDeviation="5.09499"/>
<feComposite in2="hardAlpha" operator="arithmetic" k2="-1" k3="1"/>
<feColorMatrix type="matrix" values="0 0 0 0 0.82703 0 0 0 0 0.853975 0 0 0 0 0.921338 0 0 0 1 0"/>
<feBlend mode="normal" in2="shape" result="effect1_innerShadow_8667_115499"/>
</filter>
<filter id="filter1_i_8667_115499" x="4" y="15.6105" width="75.5115" height="67.3895" filterUnits="userSpaceOnUse" color-interpolation-filters="sRGB">
<feFlood flood-opacity="0" result="BackgroundImageFix"/>
<feBlend mode="normal" in="SourceGraphic" in2="BackgroundImageFix" result="shape"/>
<feColorMatrix in="SourceAlpha" type="matrix" values="0 0 0 0 0 0 0 0 0 0 0 0 0 0 0 0 0 0 127 0" result="hardAlpha"/>
<feOffset dx="4.07599" dy="-4.07599"/>
<feGaussianBlur stdDeviation="5.09499"/>
<feComposite in2="hardAlpha" operator="arithmetic" k2="-1" k3="1"/>
<feColorMatrix type="matrix" values="0 0 0 0 0.82703 0 0 0 0 0.853975 0 0 0 0 0.921338 0 0 0 1 0"/>
<feBlend mode="normal" in2="shape" result="effect1_innerShadow_8667_115499"/>
</filter>
<filter id="filter2_di_8667_115499" x="18.9854" y="41.1333" width="41.4667" height="30.3333" filterUnits="userSpaceOnUse" color-interpolation-filters="sRGB">
<feFlood flood-opacity="0" result="BackgroundImageFix"/>
<feColorMatrix in="SourceAlpha" type="matrix" values="0 0 0 0 0 0 0 0 0 0 0 0 0 0 0 0 0 0 127 0" result="hardAlpha"/>
<feOffset dy="3.73333"/>
<feGaussianBlur stdDeviation="1.86667"/>
<feComposite in2="hardAlpha" operator="out"/>
<feColorMatrix type="matrix" values="0 0 0 0 0.313726 0 0 0 0 0.54902 0 0 0 0 0.956863 0 0 0 0.2 0"/>
<feBlend mode="normal" in2="BackgroundImageFix" result="effect1_dropShadow_8667_115499"/>
<feBlend mode="normal" in="SourceGraphic" in2="effect1_dropShadow_8667_115499" result="shape"/>
<feColorMatrix in="SourceAlpha" type="matrix" values="0 0 0 0 0 0 0 0 0 0 0 0 0 0 0 0 0 0 127 0" result="hardAlpha"/>
<feOffset dx="1.86667" dy="-1.86667"/>
<feGaussianBlur stdDeviation="0.933333"/>
<feComposite in2="hardAlpha" operator="arithmetic" k2="-1" k3="1"/>
<feColorMatrix type="matrix" values="0 0 0 0 0.305882 0 0 0 0 0.509804 0 0 0 0 0.964706 0 0 0 1 0"/>
<feBlend mode="normal" in2="shape" result="effect2_innerShadow_8667_115499"/>
</filter>
<filter id="filter3_i_8667_115499" x="25.7656" y="12.331" width="33.251" height="11.3296" filterUnits="userSpaceOnUse" color-interpolation-filters="sRGB">
<feFlood flood-opacity="0" result="BackgroundImageFix"/>
<feBlend mode="normal" in="SourceGraphic" in2="BackgroundImageFix" result="shape"/>
<feColorMatrix in="SourceAlpha" type="matrix" values="0 0 0 0 0 0 0 0 0 0 0 0 0 0 0 0 0 0 127 0" result="hardAlpha"/>
<feOffset dx="5.34865" dy="-5.34865"/>
<feGaussianBlur stdDeviation="2.67433"/>
<feComposite in2="hardAlpha" operator="arithmetic" k2="-1" k3="1"/>
<feColorMatrix type="matrix" values="0 0 0 0 0.305882 0 0 0 0 0.509804 0 0 0 0 0.964706 0 0 0 1 0"/>
<feBlend mode="normal" in2="shape" result="effect1_innerShadow_8667_115499"/>
</filter>
<linearGradient id="paint0_linear_8667_115499" x1="26.1815" y1="35.1583" x2="52.504" y2="12.4952" gradientUnits="userSpaceOnUse">
<stop offset="0.009" stop-color="#F2F4FC"/>
<stop offset="0.989" stop-color="#F5F7F9"/>
</linearGradient>
<linearGradient id="paint1_linear_8667_115499" x1="12.318" y1="74.6965" x2="60.8187" y2="28.378" gradientUnits="userSpaceOnUse">
<stop offset="0.009" stop-color="#F2F4FC"/>
<stop offset="0.989" stop-color="#F5F7F9"/>
</linearGradient>
<linearGradient id="paint2_linear_8667_115499" x1="49.0819" y1="46.1595" x2="39.3983" y2="64.5415" gradientUnits="userSpaceOnUse">
<stop stop-color="#78C4FF"/>
<stop offset="1" stop-color="#5188FD"/>
</linearGradient>
<linearGradient id="paint3_linear_8667_115499" x1="48.7412" y1="19.3028" x2="45.866" y2="26.2085" gradientUnits="userSpaceOnUse">
<stop stop-color="#78C4FF"/>
<stop offset="1" stop-color="#5188FD"/>
</linearGradient>
<linearGradient id="paint4_linear_8667_115499" x1="78.8099" y1="58.2463" x2="62.5243" y2="74.9881" gradientUnits="userSpaceOnUse">
<stop stop-color="#83D5FF"/>
<stop offset="1" stop-color="#3ABDFF"/>
</linearGradient>
</defs>
</svg>
