<svg width="133" height="23" viewBox="0 0 133 23" fill="none" xmlns="http://www.w3.org/2000/svg">
<path d="M23.6239 11.5039C23.6239 17.5822 18.5547 22.5039 12.3199 22.5039C6.08519 22.5039 1 17.5822 1 11.5039C1 5.42557 6.06124 0.503906 12.3199 0.503906C18.5786 0.503906 23.6239 5.43333 23.6239 11.5039Z" fill="white" stroke="white" stroke-width="0.5"/>
<path d="M12.328 21.9916C18.2754 21.9916 23.0971 17.295 23.0971 11.5117C23.0971 5.72835 18.2674 1.02405 12.32 1.02405C6.3727 1.02405 1.54297 5.72059 1.54297 11.5117C1.54297 17.3028 6.36471 21.9916 12.32 21.9916H12.328Z" fill="#0083CA"/>
<mask id="mask0_25_17790" style="mask-type:luminance" maskUnits="userSpaceOnUse" x="1" y="1" width="23" height="21">
<path d="M12.328 21.9916C18.2754 21.9916 23.0971 17.295 23.0971 11.5117C23.0971 5.72834 18.2674 1.0318 12.32 1.0318C6.3727 1.0318 1.54297 5.72058 1.54297 11.5117C1.54297 17.3028 6.36471 21.9916 12.32 21.9916H12.328Z" fill="white"/>
</mask>
<g mask="url(#mask0_25_17790)">
<path d="M12.4161 16.5653C17.158 16.5653 21.2134 17.854 22.9616 19.6782C23.5364 18.3818 23.8557 16.9379 23.8557 15.4397C23.8557 9.42348 18.7306 4.55615 12.4161 4.55615C6.10149 4.55615 0.984375 9.42348 0.984375 15.4397C0.984375 16.9379 1.31168 18.3741 1.88646 19.6782C3.62676 17.854 7.69011 16.5653 12.424 16.5653H12.4161Z" fill="#0083CA"/>
<path d="M12.4164 16.5731C17.1423 16.5731 21.1897 17.854 22.93 19.655C23.5048 18.3663 23.8241 16.938 23.8241 15.4475C23.8241 9.47783 18.715 4.63379 12.4164 4.63379C6.11775 4.63379 1.0166 9.49335 1.0166 15.463C1.0166 16.9535 1.33592 18.3741 1.9107 19.6627C3.64302 17.854 7.69839 16.5809 12.4164 16.5809V16.5731Z" fill="#0085CC"/>
<path d="M12.4158 16.5886C17.1338 16.5886 21.1652 17.8539 22.9055 19.6472C23.4803 18.3741 23.7996 16.9535 23.7996 15.4785C23.7996 9.55543 18.6985 4.73468 12.4158 4.73468C6.13321 4.73468 1.04004 9.55543 1.04004 15.4785C1.04004 16.9535 1.35936 18.3663 1.93414 19.6472C3.66645 17.8539 7.70586 16.5886 12.4158 16.5886Z" fill="#0087CD"/>
<path d="M12.4163 16.5964C17.1183 16.5964 21.1497 17.854 22.8741 19.6317C23.4488 18.3663 23.7682 16.9613 23.7682 15.4941C23.7682 9.62534 18.683 4.82788 12.4163 4.82788C6.14964 4.82788 1.06445 9.62534 1.06445 15.5018C1.06445 16.969 1.38377 18.3663 1.95855 19.6395C3.68288 17.8618 7.71431 16.6042 12.4083 16.6042L12.4163 16.5964Z" fill="#0088CE"/>
<path d="M12.4156 16.6119C17.1096 16.6119 21.1251 17.8617 22.8494 19.6239C23.4242 18.3663 23.7356 16.9768 23.7356 15.5174C23.7356 9.69519 18.6663 4.92102 12.4156 4.92102C6.16492 4.92102 1.0957 9.69519 1.0957 15.5174C1.0957 16.969 1.41502 18.3586 1.9898 19.6162C3.71413 17.854 7.7296 16.6042 12.4156 16.6042V16.6119Z" fill="#008ACF"/>
<path d="M12.4081 16.6274C17.0862 16.6274 21.0936 17.8617 22.818 19.6084C23.3848 18.3663 23.7041 16.9845 23.7041 15.5406C23.7041 9.76504 18.6429 5.01416 12.4081 5.01416C6.17337 5.01416 1.12012 9.76504 1.12012 15.5406C1.12012 16.9845 1.43944 18.3585 2.00623 19.6084C3.72258 17.8617 7.73006 16.6274 12.4081 16.6274Z" fill="#008CD0"/>
<path d="M12.4084 16.6352C17.0785 16.6352 21.07 17.8617 22.7863 19.5928C23.3531 18.3585 23.6725 16.9845 23.6725 15.5561C23.6725 9.82713 18.6272 5.1073 12.4084 5.1073C6.18963 5.1073 1.15234 9.83489 1.15234 15.5639C1.15234 16.9923 1.47166 18.3585 2.03846 19.5928C3.75481 17.8617 7.74632 16.6352 12.4084 16.6352Z" fill="#008ED2"/>
<path d="M12.4079 16.643C17.062 16.643 21.0455 17.854 22.7619 19.5774C23.3287 18.3508 23.648 16.9923 23.648 15.5795C23.648 9.89704 18.6187 5.2005 12.4159 5.2005C6.21307 5.2005 1.17578 9.90481 1.17578 15.5795C1.17578 17.0001 1.4951 18.3508 2.0619 19.5774C3.77026 17.8618 7.76178 16.643 12.4079 16.643Z" fill="#0090D3"/>
<path d="M12.4082 16.6585C17.0543 16.6585 21.0219 17.8617 22.7302 19.5696C23.297 18.3586 23.6084 17.0078 23.6084 15.6027C23.6084 9.97466 18.5871 5.29364 12.4002 5.29364C6.21336 5.29364 1.20801 9.97466 1.20801 15.6027C1.20801 17.0078 1.52733 18.3508 2.09412 19.5696C3.80249 17.8617 7.77804 16.6585 12.4082 16.6585Z" fill="#0091D4"/>
<path d="M12.4077 16.674C17.0378 16.674 21.0054 17.8695 22.7058 19.554C23.2726 18.3508 23.5839 17.0156 23.5839 15.6183C23.5839 10.0367 18.5786 5.38678 12.4077 5.38678C6.2368 5.38678 1.23145 10.0445 1.23145 15.626C1.23145 17.0233 1.55077 18.3508 2.10958 19.554C3.80996 17.8617 7.77752 16.674 12.3997 16.674H12.4077Z" fill="#0093D5"/>
<path d="M12.408 16.6818C17.0301 16.6818 20.9817 17.8617 22.6821 19.5385C23.2489 18.3508 23.5603 17.0233 23.5603 15.6415C23.5603 10.1066 18.5709 5.47992 12.416 5.47992C6.26104 5.47992 1.26367 10.1066 1.26367 15.6415C1.26367 17.0233 1.58299 18.343 2.1418 19.5385C3.83421 17.8617 7.79378 16.6818 12.408 16.6818Z" fill="#0095D7"/>
<path d="M12.4005 16.6895C17.0067 16.6895 20.9503 17.8617 22.6427 19.523C23.2095 18.343 23.5208 17.0311 23.5208 15.657C23.5208 10.1765 18.5394 5.56531 12.4005 5.56531C6.26151 5.56531 1.28809 10.1765 1.28809 15.6648C1.28809 17.0388 1.59942 18.3508 2.16622 19.5307C3.85862 17.8695 7.80223 16.6973 12.4005 16.6973V16.6895Z" fill="#0097D8"/>
<path d="M12.3998 16.7051C16.998 16.7051 20.9256 17.8695 22.618 19.5152C23.1769 18.343 23.4882 17.0389 23.4882 15.6804C23.4882 10.2464 18.5228 5.66626 12.3998 5.66626C6.27679 5.66626 1.31934 10.2464 1.31934 15.6804C1.31934 17.0389 1.63067 18.343 2.19747 19.5075C3.88189 17.8617 7.81752 16.6973 12.4078 16.6973L12.3998 16.7051Z" fill="#0099D9"/>
<path d="M12.4002 16.7206C16.9825 16.7206 20.9101 17.8695 22.5866 19.4997C23.1454 18.343 23.4567 17.0466 23.4567 15.7036C23.4567 10.3162 18.5072 5.7594 12.4002 5.7594C6.29322 5.7594 1.34375 10.3162 1.34375 15.7036C1.34375 17.0544 1.65509 18.343 2.2139 19.4997C3.89832 17.8695 7.81798 16.7206 12.3923 16.7206H12.4002Z" fill="#009BDA"/>
<path d="M12.4005 16.7283C16.9748 16.7283 20.8865 17.8695 22.5629 19.4842C23.1217 18.3353 23.4331 17.0544 23.4331 15.7192C23.4331 10.3783 18.4916 5.84479 12.4005 5.84479C6.30948 5.84479 1.37598 10.3861 1.37598 15.7269C1.37598 17.0621 1.68731 18.343 2.24613 19.4919C3.92256 17.8772 7.84223 16.7361 12.4005 16.7361V16.7283Z" fill="#009DDC"/>
<path d="M12.4 16.7439C16.9583 16.7439 20.862 17.8773 22.5385 19.4764C23.0973 18.3353 23.4086 17.0699 23.4086 15.7502C23.4086 10.456 18.4831 5.95349 12.408 5.95349C6.33292 5.95349 1.39941 10.456 1.39941 15.7425C1.39941 17.0699 1.71075 18.3353 2.26956 19.4687C3.946 17.8695 7.8497 16.7361 12.4 16.7361V16.7439Z" fill="#009FDD"/>
<path d="M12.3923 16.7517C16.9427 16.7517 20.8304 17.8695 22.4988 19.4609C23.0577 18.3353 23.361 17.0777 23.361 15.7658C23.361 10.5258 18.4435 6.03888 12.3843 6.03888C6.32523 6.03888 1.43164 10.5258 1.43164 15.7658C1.43164 17.0777 1.74298 18.3353 2.30179 19.4609C3.97024 17.8773 7.86596 16.7517 12.4003 16.7517H12.3923Z" fill="#00A1DE"/>
<path d="M12.3918 16.7672C16.9262 16.7672 20.8059 17.8773 22.4744 19.4454C23.0332 18.3275 23.3365 17.0855 23.3365 15.7813C23.3365 10.5879 18.435 6.12427 12.3918 6.12427C6.34867 6.12427 1.45508 10.5957 1.45508 15.7891C1.45508 17.0855 1.76642 18.3353 2.31724 19.4531C3.97771 17.8773 7.86545 16.7749 12.3918 16.7749V16.7672Z" fill="#00A3DF"/>
<path d="M12.3921 16.7749C16.9105 16.7749 20.7823 17.8695 22.4427 19.4298C23.0016 18.3197 23.3049 17.0854 23.3049 15.8046C23.3049 10.6578 18.4193 6.22516 12.3921 6.22516C6.36493 6.22516 1.4873 10.6655 1.4873 15.8046C1.4873 17.0932 1.79864 18.3275 2.34947 19.4298C4.00994 17.8695 7.88171 16.7749 12.3921 16.7749Z" fill="#00A5E1"/>
<path d="M12.3926 16.7904C16.903 16.7904 20.7668 17.8772 22.4193 19.422C22.9701 18.3275 23.2814 17.1009 23.2814 15.8278C23.2814 10.7276 18.4038 6.3183 12.3926 6.3183C6.38136 6.3183 1.51172 10.7276 1.51172 15.8278C1.51172 17.1009 1.81507 18.3275 2.37389 19.422C4.02637 17.8772 7.89015 16.7904 12.3926 16.7904Z" fill="#00A7E2"/>
<path d="M12.3919 16.7982C16.8863 16.7982 20.7421 17.8773 22.3946 19.4066C22.9455 18.3198 23.2488 17.1088 23.2488 15.8434C23.2488 10.7975 18.3871 6.40375 12.3919 6.40375C6.39665 6.40375 1.54297 10.7975 1.54297 15.8434C1.54297 17.1088 1.84632 18.3198 2.39715 19.4066C4.04964 17.8773 7.89745 16.7982 12.3919 16.7982Z" fill="#00A9E3"/>
<path d="M12.3844 16.8137C16.8708 16.8137 20.7107 17.8773 22.3552 19.391C22.906 18.312 23.2094 17.1165 23.2094 15.8667C23.2094 10.8674 18.3637 6.50464 12.3844 6.50464C6.40509 6.50464 1.56738 10.8674 1.56738 15.8667C1.56738 17.1165 1.87074 18.3197 2.42157 19.391C4.06607 17.8773 7.91389 16.8137 12.3844 16.8137Z" fill="#00ABE5"/>
<path d="M12.3837 16.8215C16.8542 16.8215 20.686 17.8773 22.3305 19.3755C22.8814 18.312 23.1847 17.1243 23.1847 15.8822C23.1847 10.9295 18.347 6.59003 12.3837 6.59003C6.42038 6.59003 1.59863 10.9372 1.59863 15.89C1.59863 17.132 1.90199 18.3197 2.45282 19.3833C4.09732 17.885 7.92917 16.8293 12.3917 16.8293L12.3837 16.8215Z" fill="#00ADE6"/>
<path d="M12.3842 16.837C16.8467 16.837 20.6626 17.885 22.2991 19.3677C22.8499 18.3119 23.1533 17.1398 23.1533 15.9132C23.1533 11.0071 18.3315 6.69092 12.3842 6.69092C6.43681 6.69092 1.62305 11.0071 1.62305 15.9055C1.62305 17.132 1.9264 18.3119 2.47723 19.3599C4.11375 17.8772 7.93762 16.8292 12.3842 16.8292V16.837Z" fill="#00B0E7"/>
<path d="M12.3837 16.8448C16.8302 16.8448 20.6461 17.8773 22.2746 19.3522C22.8254 18.3042 23.1208 17.1476 23.1208 15.9288C23.1208 11.077 18.315 6.78412 12.3837 6.78412C6.45226 6.78412 1.64648 11.077 1.64648 15.9288C1.64648 17.1476 1.94984 18.312 2.49268 19.3522C4.12122 17.885 7.93711 16.8448 12.3757 16.8448H12.3837Z" fill="#00B2E9"/>
<path d="M12.3839 16.8603C16.8225 16.8603 20.6224 17.885 22.251 19.3367C22.8018 18.3042 23.0972 17.1476 23.0972 15.9443C23.0972 11.1391 18.2994 6.86951 12.3839 6.86951C6.46852 6.86951 1.67871 11.1469 1.67871 15.9443C1.67871 17.1476 1.98207 18.3042 2.52491 19.3367C4.15345 17.8773 7.95337 16.8603 12.3839 16.8603Z" fill="#00B4EA"/>
<path d="M12.3764 16.8681C16.799 16.8681 20.591 17.885 22.2115 19.3211C22.7623 18.2964 23.0577 17.1553 23.0577 15.9676C23.0577 11.2089 18.2759 6.96265 12.3764 6.96265C6.47697 6.96265 1.70312 11.2167 1.70312 15.9676C1.70312 17.1631 2.00648 18.3042 2.54933 19.3211C4.16988 17.8773 7.96182 16.8681 12.3764 16.8681Z" fill="#00B6EB"/>
<path d="M12.3757 16.8836C16.7904 16.8836 20.5663 17.885 22.1869 19.3134C22.7297 18.3042 23.0331 17.1708 23.0331 15.9908C23.0331 11.2788 18.2672 7.06354 12.3837 7.06354C6.50024 7.06354 1.73438 11.2788 1.73438 15.9908C1.73438 17.1708 2.03773 18.3042 2.58058 19.3134C4.20113 17.885 7.9771 16.8836 12.3837 16.8836H12.3757Z" fill="#00B9ED"/>
<path d="M12.3762 16.8914C16.7749 16.8914 20.5428 17.885 22.1554 19.2979C22.6983 18.2965 22.9936 17.1786 22.9936 16.0142C22.9936 11.3565 18.2357 7.15674 12.3682 7.15674C6.50071 7.15674 1.75879 11.3487 1.75879 16.0064C1.75879 17.1786 2.06214 18.2965 2.59701 19.2979C4.20958 17.885 7.98555 16.8914 12.3682 16.8914H12.3762Z" fill="#03BBEE"/>
<path d="M12.3765 16.9069C16.7672 16.9069 20.5272 17.8928 22.1318 19.2824C22.6746 18.2887 22.97 17.1864 22.97 16.0297C22.97 11.4186 18.2281 7.24213 12.3765 7.24213C6.52495 7.24213 1.79102 11.4186 1.79102 16.0297C1.79102 17.1864 2.08639 18.2965 2.62923 19.2824C4.2418 17.885 8.00181 16.9069 12.3765 16.9069Z" fill="#12BDF0"/>
<path d="M12.376 16.9147C16.7507 16.9147 20.5027 17.885 22.1073 19.2668C22.6501 18.2887 22.9455 17.1941 22.9455 16.0452C22.9455 11.4806 18.2196 7.33527 12.384 7.33527C6.54839 7.33527 1.81445 11.4884 1.81445 16.053C1.81445 17.2019 2.10982 18.2965 2.65267 19.2746C4.25726 17.8928 8.00928 16.9224 12.376 16.9224V16.9147Z" fill="#1BC0F1"/>
<path d="M12.3763 16.9302C16.743 16.9302 20.4791 17.8928 22.0757 19.259C22.6185 18.2887 22.9139 17.2019 22.9139 16.0762C22.9139 11.5582 18.1959 7.43616 12.3763 7.43616C6.55666 7.43616 1.84668 11.5582 1.84668 16.0685C1.84668 17.2019 2.14205 18.2887 2.6849 19.259C4.28948 17.8928 8.02554 16.9302 12.3763 16.9302Z" fill="#20C4F4"/>
<path d="M12.3759 16.9535C16.7347 16.9535 20.4707 17.9083 22.0594 19.2668C22.6022 18.3042 22.8896 17.2252 22.8896 16.0995C22.8896 11.6126 18.1796 7.51379 12.368 7.51379C6.55632 7.51379 1.8623 11.6204 1.8623 16.0995C1.8623 17.2252 2.15768 18.3042 2.69254 19.2668C4.28914 17.9083 8.0252 16.9535 12.3759 16.9535Z" fill="#32C5F4"/>
<path d="M12.3758 16.9845C16.7265 16.9845 20.4546 17.9316 22.0512 19.2823C22.594 18.3275 22.8814 17.2562 22.8814 16.1383C22.8814 11.6824 18.1794 7.60693 12.3758 7.60693C6.57212 7.60693 1.87012 11.6824 1.87012 16.1383C1.87012 17.2562 2.16549 18.3275 2.70035 19.2823C4.29696 17.9316 8.02503 16.9845 12.3678 16.9845H12.3758Z" fill="#40C7F4"/>
<path d="M12.3764 17.0078C16.7192 17.0078 20.4472 17.9471 22.0359 19.2901C22.5787 18.3353 22.8661 17.2795 22.8661 16.1694C22.8661 11.7446 18.1721 7.69238 12.3764 7.69238C6.58074 7.69238 1.88672 11.7446 1.88672 16.1694C1.88672 17.2795 2.18209 18.3431 2.71695 19.2979C4.31356 17.9549 8.03365 17.0156 12.3684 17.0156L12.3764 17.0078Z" fill="#4AC9F5"/>
<path d="M12.3761 17.0388C16.7188 17.0388 20.4389 17.9781 22.0275 19.3056C22.5624 18.3585 22.8578 17.3028 22.8578 16.2004C22.8578 11.7989 18.1638 7.76996 12.3761 7.76996C6.58838 7.76996 1.90234 11.8067 1.90234 16.2004C1.90234 17.3028 2.19772 18.3585 2.73258 19.3056C4.3212 17.9704 8.04129 17.0388 12.3761 17.0388Z" fill="#54CAF5"/>
<path d="M12.3757 17.0621C16.7105 17.0621 20.4226 17.9937 22.0112 19.3134C22.5461 18.374 22.8415 17.3261 22.8415 16.2315C22.8415 11.861 18.1554 7.85535 12.3757 7.85535C6.59602 7.85535 1.91797 11.8688 1.91797 16.2315C1.91797 17.3261 2.21334 18.374 2.7482 19.3134C4.33682 17.9937 8.04893 17.0621 12.3757 17.0621Z" fill="#5DCCF5"/>
<path d="M12.3765 17.0855C16.7033 17.0855 20.4154 18.0092 21.9961 19.3212C22.5309 18.3896 22.8263 17.3494 22.8263 16.2626C22.8263 11.9232 18.1483 7.9408 12.3765 7.9408C6.60481 7.9408 1.92676 11.9309 1.92676 16.2626C1.92676 17.3494 2.22213 18.3896 2.75699 19.3289C4.34561 18.017 8.05772 17.0932 12.3686 17.0932L12.3765 17.0855Z" fill="#65CDF6"/>
<path d="M12.3762 17.1165C16.695 17.1165 20.3991 18.0325 21.9878 19.3367C22.5226 18.4129 22.818 17.3805 22.818 16.2937C22.818 11.9853 18.1479 8.02618 12.3842 8.02618C6.62043 8.02618 1.94238 11.9853 1.94238 16.2937C1.94238 17.3727 2.23775 18.4129 2.76463 19.3367C4.35326 18.0325 8.05738 17.1165 12.3682 17.1165H12.3762Z" fill="#6CCFF6"/>
<path d="M12.3759 17.1398C16.6947 17.1398 20.3908 18.0481 21.9714 19.3445C22.5063 18.4207 22.8017 17.396 22.8017 16.3247C22.8017 12.0396 18.1396 8.11157 12.3838 8.11157C6.62808 8.11157 1.95801 12.0474 1.95801 16.3325C1.95801 17.4115 2.25338 18.4362 2.78026 19.3522C4.3609 18.0558 8.06502 17.1476 12.3679 17.1476L12.3759 17.1398Z" fill="#73D1F6"/>
<path d="M12.3765 17.1708C16.6873 17.1708 20.3835 18.0791 21.9561 19.36C22.491 18.444 22.7784 17.427 22.7784 16.3635C22.7784 12.1094 18.1163 8.20471 12.3685 8.20471C6.62073 8.20471 1.97461 12.1094 1.97461 16.3635C1.97461 17.4348 2.26998 18.4517 2.79686 19.3677C4.3775 18.0791 8.07364 17.1708 12.3765 17.1708Z" fill="#7AD2F7"/>
<path d="M12.3761 17.1941C16.679 17.1941 20.3672 18.0946 21.9478 19.3755C22.4827 18.4672 22.77 17.4581 22.77 16.3946C22.77 12.1715 18.1159 8.28235 12.3761 8.28235C6.63635 8.28235 1.99023 12.1715 1.99023 16.3946C1.99023 17.4581 2.28561 18.4672 2.81249 19.3755C4.39312 18.0946 8.08128 17.1941 12.3761 17.1941Z" fill="#81D4F7"/>
<path d="M12.376 17.2252C16.6708 17.2252 20.359 18.1179 21.9317 19.391C22.4665 18.4905 22.7539 17.4891 22.7539 16.4334C22.7539 12.2414 18.1078 8.37549 12.376 8.37549C6.64417 8.37549 1.99805 12.2336 1.99805 16.4256C1.99805 17.4813 2.29342 18.4828 2.8203 19.3833C4.39295 18.1101 8.08111 17.2174 12.368 17.2174L12.376 17.2252Z" fill="#88D6F8"/>
<path d="M12.3766 17.2485C16.6715 17.2485 20.3517 18.1334 21.9163 19.3988C22.4432 18.506 22.7386 17.5046 22.7386 16.4644C22.7386 12.2957 18.1004 8.46088 12.3766 8.46088C6.65279 8.46088 2.01465 12.2957 2.01465 16.4566C2.01465 17.5046 2.31002 18.4983 2.8369 19.3988C4.40956 18.1412 8.08973 17.2485 12.3766 17.2485Z" fill="#8ED8F8"/>
<path d="M12.3763 17.2795C16.6632 17.2795 20.3353 18.1645 21.908 19.4143C22.4349 18.5216 22.7303 17.5357 22.7303 16.5032C22.7303 12.3656 18.0921 8.55402 12.3843 8.55402C6.67639 8.55402 2.03027 12.3578 2.03027 16.4877C2.03027 17.5279 2.32565 18.5138 2.85252 19.4065C4.42518 18.1567 8.09737 17.2717 12.3763 17.2717V17.2795Z" fill="#94DAF8"/>
<path d="M12.3759 17.3028C16.6548 17.3028 20.327 18.18 21.8917 19.4221C22.4186 18.5371 22.7139 17.559 22.7139 16.5265C22.7139 12.4199 18.0838 8.63165 12.3759 8.63165C6.66807 8.63165 2.0459 12.4199 2.0459 16.5265C2.0459 17.559 2.34127 18.5371 2.86017 19.4221C4.42484 18.18 8.09703 17.3028 12.3679 17.3028H12.3759Z" fill="#9BDCF9"/>
<path d="M12.3766 17.3261C16.6555 17.3261 20.3197 18.1955 21.8764 19.4298C22.4032 18.5526 22.6986 17.5822 22.6986 16.5575C22.6986 12.482 18.0764 8.71704 12.3766 8.71704C6.67669 8.71704 2.0625 12.482 2.0625 16.5575C2.0625 17.5822 2.35787 18.5526 2.87677 19.4298C4.44144 18.1955 8.11363 17.3261 12.3766 17.3261Z" fill="#A1DDF9"/>
<path d="M12.3764 17.3571C16.6473 17.3571 20.3035 18.2188 21.8682 19.4453C22.3951 18.5759 22.6825 17.6055 22.6825 16.5964C22.6825 12.5441 18.0683 8.80243 12.3764 8.80243C6.6845 8.80243 2.07031 12.5441 2.07031 16.5886C2.07031 17.6055 2.3577 18.5759 2.88458 19.4453C4.44925 18.2188 8.11346 17.3571 12.3684 17.3571H12.3764Z" fill="#A7DFF9"/>
<path d="M12.3761 17.3804C16.639 17.3804 20.2952 18.2343 21.8519 19.4531C22.3788 18.5837 22.6662 17.6288 22.6662 16.6197C22.6662 12.5985 18.06 8.88007 12.3761 8.88007C6.69214 8.88007 2.08594 12.6062 2.08594 16.6197C2.08594 17.6288 2.37333 18.5914 2.90021 19.4531C4.46488 18.2343 8.1211 17.3804 12.3761 17.3804Z" fill="#ADE1FA"/>
<path d="M12.3757 17.4115C16.6307 17.4115 20.2789 18.2654 21.8356 19.4686C22.3625 18.6069 22.6499 17.6599 22.6499 16.6585C22.6499 12.6683 18.0437 8.97321 12.3757 8.97321C6.70777 8.97321 2.10156 12.6683 2.10156 16.6507C2.10156 17.6521 2.38895 18.6069 2.91583 19.4609C4.47252 18.2498 8.12874 17.4037 12.3757 17.4037V17.4115Z" fill="#B3E3FA"/>
<path d="M12.3763 17.4347C16.6313 17.4347 20.2716 18.2809 21.8282 19.4764C22.3551 18.6225 22.6425 17.6754 22.6425 16.6895C22.6425 12.7304 18.0443 9.05859 12.3763 9.05859C6.7084 9.05859 2.11816 12.7304 2.11816 16.6817C2.11816 17.6754 2.40555 18.6225 2.93243 19.4764C4.48912 18.2809 8.13736 17.4347 12.3763 17.4347Z" fill="#B9E5FA"/>
<path d="M12.376 17.4659C16.623 17.4659 20.2632 18.3042 21.8119 19.492C22.3308 18.6458 22.6262 17.7065 22.6262 16.7206C22.6262 12.7848 18.036 9.14404 12.376 9.14404C6.71604 9.14404 2.13379 12.7926 2.13379 16.7206C2.13379 17.7065 2.42118 18.6458 2.94007 19.492C4.49676 18.3042 8.13702 17.4659 12.376 17.4659Z" fill="#BEE7FB"/>
<path d="M12.3758 17.4891C16.6148 17.4891 20.2471 18.3198 21.7958 19.4997C22.3147 18.6613 22.6101 17.7298 22.6101 16.7517C22.6101 12.8469 18.0278 9.22943 12.3758 9.22943C6.72386 9.22943 2.1416 12.8469 2.1416 16.7517C2.1416 17.7298 2.42899 18.6613 2.94789 19.4997C4.49659 18.3198 8.13685 17.4891 12.3679 17.4891H12.3758Z" fill="#C4E9FB"/>
<path d="M12.3765 17.5124C16.6075 17.5124 20.2398 18.3352 21.7885 19.5074C22.3074 18.669 22.6027 17.753 22.6027 16.7827C22.6027 12.909 18.0205 9.30701 12.3845 9.30701C6.74844 9.30701 2.1582 12.909 2.1582 16.7827C2.1582 17.753 2.44559 18.6768 2.96449 19.5152C4.51319 18.343 8.14547 17.5201 12.3685 17.5201L12.3765 17.5124Z" fill="#CAEBFC"/>
<path d="M12.3761 17.5435C16.6071 17.5435 20.2314 18.3663 21.7722 19.523C22.291 18.6924 22.5784 17.7764 22.5784 16.8138C22.5784 12.9711 18.0042 9.39246 12.3681 9.39246C6.73213 9.39246 2.17383 12.9711 2.17383 16.8138C2.17383 17.7841 2.46122 18.6924 2.98011 19.523C4.52882 18.3586 8.15311 17.5435 12.3761 17.5435Z" fill="#CFEDFC"/>
<path d="M12.3758 17.5668C16.5988 17.5668 20.2151 18.3819 21.7558 19.5308C22.2747 18.7079 22.5621 17.7997 22.5621 16.8448C22.5621 13.0255 17.9958 9.47784 12.3678 9.47784C6.73978 9.47784 2.18945 13.0332 2.18945 16.8448C2.18945 17.8074 2.47684 18.7079 2.99574 19.5308C4.54445 18.3741 8.16075 17.5668 12.3758 17.5668Z" fill="#D5EFFC"/>
<path d="M12.3766 17.5978C16.5916 17.5978 20.2079 18.4051 21.7487 19.5463C22.2676 18.7312 22.555 17.8307 22.555 16.8836C22.555 13.0953 17.9966 9.57098 12.3766 9.57098C6.75655 9.57098 2.19824 13.0953 2.19824 16.8836C2.19824 17.8385 2.48563 18.7312 3.00453 19.554C4.54525 18.4129 8.16954 17.6056 12.3766 17.5978Z" fill="#DBF1FD"/>
<path d="M12.3763 17.6211C16.5833 17.6211 20.1996 18.4207 21.7324 19.5541C22.2513 18.7467 22.5386 17.854 22.5386 16.9069C22.5386 13.1497 17.9883 9.64862 12.3763 9.64862C6.76419 9.64862 2.21387 13.1574 2.21387 16.9147C2.21387 17.8617 2.50126 18.7545 3.01217 19.5618C4.55289 18.4284 8.1692 17.6289 12.3683 17.6211H12.3763Z" fill="#E0F3FD"/>
<path d="M12.3759 17.6521C16.583 17.6521 20.1833 18.4439 21.7161 19.5696C22.235 18.7622 22.5223 17.8773 22.5223 16.9457C22.5223 13.2195 17.972 9.74176 12.3759 9.74176C6.77982 9.74176 2.22949 13.2195 2.22949 16.9457C2.22949 17.885 2.51688 18.77 3.02779 19.5696C4.56852 18.4439 8.17685 17.6521 12.3679 17.6444L12.3759 17.6521Z" fill="#E6F5FD"/>
<path d="M12.3766 17.6754C16.5756 17.6754 20.176 18.4672 21.7087 19.5773C22.2196 18.7777 22.515 17.9005 22.515 16.9768C22.515 13.2816 17.9726 9.82715 12.3766 9.82715C6.78045 9.82715 2.24609 13.2816 2.24609 16.9768C2.24609 17.9083 2.53348 18.7855 3.0444 19.5851C4.57714 18.4672 8.18546 17.6832 12.3766 17.6754Z" fill="#EBF7FE"/>
<path d="M12.3762 17.7065C16.5673 17.7065 20.1676 18.4905 21.6924 19.5929C22.2033 18.801 22.4987 17.9316 22.4987 17.0078C22.4987 13.336 17.9643 9.90479 12.3762 9.90479C6.78809 9.90479 2.26172 13.3437 2.26172 17.0078C2.26172 17.9316 2.54911 18.801 3.06002 19.5929C4.59276 18.4828 8.1931 17.6987 12.3762 17.6987V17.7065Z" fill="#F1FAFE"/>
<path d="M12.376 17.7298C16.5591 17.7298 20.1515 18.5061 21.6842 19.6006C22.1952 18.8166 22.4825 17.9549 22.4825 17.0389C22.4825 13.3981 17.9562 9.99017 12.376 9.99017C6.79591 9.99017 2.26953 13.4058 2.26953 17.0389C2.26953 17.9549 2.55692 18.8166 3.06783 19.6006C4.60057 18.4983 8.19294 17.7298 12.3681 17.722L12.376 17.7298Z" fill="#F7FCFE"/>
<path d="M12.3757 17.753C16.5588 17.753 20.1432 18.5216 21.6679 19.6161C22.1789 18.8398 22.4662 17.9782 22.4662 17.0777C22.4662 13.4679 17.9399 10.0833 12.3757 10.0833C6.81153 10.0833 2.28516 13.4679 2.28516 17.0777C2.28516 17.9859 2.57255 18.8398 3.08346 19.6239C4.6162 18.5293 8.20058 17.7608 12.3757 17.7608V17.753Z" fill="white"/>
</g>
<path d="M12.3198 14.1511C8.66358 14.1511 5.27079 14.7566 2.46875 15.7813C4.15317 19.4376 7.92115 21.9916 12.3198 21.9916C16.7184 21.9916 20.4785 19.4376 22.1629 15.7813C19.3608 14.7566 15.968 14.1511 12.3198 14.1511Z" fill="#0083CA"/>
<path d="M26.5625 14.7798H33.6913V20.7495H36.4774V14.7798H43.6063V13.0953H26.5625V14.7798Z" fill="white"/>
<path d="M30.7301 10.2774C31.2809 10.6888 31.9435 11.0226 32.678 11.2632C33.4124 11.5039 34.2267 11.6281 35.0809 11.6281C35.935 11.6281 36.7254 11.5039 37.4598 11.2632C38.2022 11.0226 38.8568 10.6888 39.4077 10.2774C39.9665 9.8504 40.4135 9.34581 40.7328 8.77912C41.0601 8.21243 41.2278 7.59916 41.2278 6.94708C41.2278 6.295 41.0601 5.69726 40.7328 5.13057C40.4055 4.56388 39.9585 4.05929 39.3997 3.63233C38.8488 3.2209 38.1863 2.87933 37.4518 2.63092C36.7174 2.38251 35.9111 2.2583 35.0649 2.2583C34.2187 2.2583 33.3964 2.38251 32.662 2.63092C31.9276 2.87933 31.265 3.21313 30.7141 3.63233C30.1553 4.05929 29.7163 4.56388 29.3969 5.13057C29.0776 5.69726 28.918 6.31052 28.918 6.94708C28.918 7.58364 29.0776 8.21243 29.3969 8.77912C29.7163 9.34581 30.1553 9.8504 30.7141 10.2774H30.7301ZM31.72 6.93932C31.72 6.54341 31.8078 6.16303 31.9834 5.79817C32.1591 5.43332 32.4065 5.11504 32.7099 4.84334C33.0133 4.56388 33.3725 4.33875 33.7716 4.17573C34.1788 4.01271 34.6178 3.93508 35.0888 3.93508C35.5598 3.93508 35.975 4.01271 36.3821 4.17573C36.7892 4.33875 37.1485 4.55611 37.4518 4.84334C37.7552 5.10728 38.0026 5.43332 38.1863 5.79817C38.3699 6.16303 38.4577 6.54341 38.4577 6.93155C38.4577 7.3197 38.3619 7.72337 38.1863 8.08822C38.0026 8.45308 37.7552 8.77136 37.4518 9.04306C37.1485 9.32252 36.7892 9.53988 36.3901 9.69514C35.5678 10.0057 34.5779 9.99789 33.7796 9.69514C33.3725 9.53988 33.0212 9.32252 32.7179 9.04306C32.4145 8.77136 32.175 8.45308 31.9994 8.08822C31.8238 7.72337 31.736 7.33522 31.736 6.93155L31.72 6.93932Z" fill="white"/>
<path d="M58.7658 2.5766H56.5944L56.7301 2.73962C56.786 2.80172 56.8179 2.87159 56.8259 2.95698C56.8897 3.21316 56.9217 3.61682 56.9217 4.16799V12.583C56.9217 13.1108 56.6024 13.4602 55.9557 13.662C55.7402 13.7241 55.3969 13.7707 54.9499 13.794H49.0344C48.7231 13.794 48.6193 13.7241 48.5874 13.6853C48.5235 13.6076 48.4916 13.4757 48.4916 13.2971V9.94357H53.6007C53.9041 9.94357 54.1116 9.88923 54.2314 9.76503C54.3511 9.64858 54.407 9.47004 54.407 9.22939V3.83419C54.407 3.6013 54.3432 3.41499 54.2234 3.29855C54.0957 3.1821 53.8881 3.12 53.5848 3.12H45.6097V4.80455H51.6209V8.25903H45.4102L45.5938 8.62388C45.6656 8.84124 45.7055 9.09742 45.7055 9.40793V14.252C45.7055 14.5547 45.8173 14.8187 46.0248 15.036C46.3202 15.331 46.7912 15.4863 47.4299 15.4863H54.407L55.5087 15.4475C56.1713 15.3776 56.6343 15.2689 56.9217 15.0904V20.5632H59.7077V3.31407C59.7077 2.98803 59.5481 2.59989 58.7658 2.5766Z" fill="white"/>
<path d="M64.0193 13.8871C64.1071 13.9958 64.155 14.089 64.179 14.1588C64.2748 14.3995 64.3307 14.679 64.3307 14.9972V18.9874C64.3307 19.3522 64.4664 19.6782 64.7298 19.9499C65.0651 20.2838 65.584 20.4545 66.2705 20.4545H77.1833V13.7241H63.8916L64.0113 13.8794L64.0193 13.8871ZM67.1167 18.2887V15.4164H74.3973V18.77H67.6436C67.452 18.77 67.3163 18.7234 67.2365 18.6458C67.1567 18.5604 67.1167 18.444 67.1167 18.2965V18.2887Z" fill="white"/>
<path d="M77.1665 8.94993L77.1825 8.4531V3.53144C77.1825 3.29855 77.0867 3.08119 76.9111 2.89488C76.7275 2.70857 76.48 2.61542 76.1607 2.61542H64.1303V4.29996H74.3964V8.83348C74.3725 9.06637 74.3405 9.22939 74.3086 9.32254C74.1889 9.60977 73.9973 9.75727 73.7019 9.75727H62.2383V11.4418H79.29V9.75727H76.943C77.0548 9.52438 77.1266 9.26044 77.1745 8.94993H77.1665Z" fill="white"/>
<path d="M84.6473 8.65493C85.2061 9.00426 85.8607 9.28373 86.6031 9.4778C87.3455 9.67963 88.1598 9.78055 89.014 9.78055C89.8682 9.78055 90.6585 9.67963 91.4009 9.4778C92.1433 9.27596 92.8059 9.00426 93.3807 8.65493C93.9395 8.3056 94.3866 7.88641 94.7139 7.41287C95.0412 6.93933 95.2088 6.41922 95.2088 5.86806C95.2088 5.31689 95.0412 4.82007 94.7139 4.34653C94.3866 3.873 93.9395 3.4538 93.3807 3.10447C92.8139 2.75514 92.1513 2.47568 91.4089 2.26608C90.6665 2.05648 89.8602 1.95557 89.022 1.95557C88.1838 1.95557 87.3535 2.05648 86.6111 2.26608C85.8687 2.47568 85.2061 2.75514 84.6553 3.10447C84.0805 3.4538 83.6334 3.873 83.3141 4.34653C82.9868 4.82007 82.8271 5.34018 82.8271 5.86806C82.8271 6.39593 82.9948 6.93157 83.3141 7.41287C83.6334 7.88641 84.0885 8.3056 84.6553 8.65493H84.6473ZM85.6292 5.86806C85.6292 5.57307 85.717 5.28584 85.8846 5.02967C86.0603 4.76573 86.2998 4.52508 86.6031 4.32324C86.9065 4.12141 87.2657 3.95839 87.6808 3.83418C88.0959 3.70998 88.543 3.64787 89.014 3.64787C89.485 3.64787 89.9161 3.70998 90.3232 3.83418C90.7383 3.95839 91.0976 4.12141 91.4009 4.32324C91.7043 4.52508 91.9438 4.76573 92.1274 5.02967C92.303 5.28584 92.3908 5.57307 92.3908 5.86806C92.3908 6.16305 92.303 6.45027 92.1274 6.71421C91.9438 6.98591 91.7043 7.22656 91.4009 7.4284C91.0976 7.63023 90.7383 7.79325 90.3232 7.9097C89.485 8.14258 88.4951 8.13482 87.6808 7.9097C87.2657 7.79325 86.9065 7.63023 86.6031 7.4284C86.2998 7.22656 86.0603 6.98591 85.8846 6.71421C85.709 6.45027 85.6292 6.16305 85.6292 5.8603V5.86806Z" fill="white"/>
<path d="M80.4883 12.1249H84.368V14.3761C83.8651 14.71 83.458 15.0981 83.1546 15.5328C82.8193 16.0141 82.6437 16.542 82.6437 17.0854C82.6437 17.6288 82.8113 18.1722 83.1546 18.6613C83.4899 19.1426 83.9449 19.5618 84.5197 19.9111C85.0945 20.2682 85.781 20.5554 86.5474 20.7572C87.3058 20.9591 88.144 21.06 89.0221 21.06C89.9003 21.06 90.7145 20.9591 91.4809 20.7572C92.2473 20.5554 92.9258 20.2759 93.5086 19.9111C94.0834 19.5618 94.5384 19.1426 94.8817 18.6613C95.2249 18.18 95.4006 17.6443 95.4006 17.0854C95.4006 16.5265 95.2249 16.0141 94.8817 15.5328C94.5783 15.1059 94.1712 14.7177 93.6762 14.3917V12.1249H97.556V10.4404H80.5043V12.1249H80.4883ZM87.1541 12.1249H90.8662V13.2893C90.2755 13.1729 89.6528 13.1186 89.0062 13.1186C88.3595 13.1186 87.7369 13.1729 87.1461 13.2893V12.1249H87.1541ZM85.7172 16.2315C85.9008 15.9598 86.1562 15.7114 86.4835 15.494C86.8029 15.2922 87.1781 15.1214 87.6091 14.9894C88.0402 14.8652 88.5112 14.7953 89.0062 14.7953C89.5011 14.7953 89.9482 14.8574 90.3872 14.9894C90.8183 15.1136 91.1935 15.2844 91.5128 15.494C91.8401 15.7114 92.1036 15.9598 92.2872 16.2315C92.4708 16.5032 92.5666 16.7826 92.5666 17.0776C92.5666 17.3726 92.4708 17.6754 92.2872 17.9471C92.0956 18.2188 91.8401 18.4672 91.5128 18.6845C91.1935 18.8864 90.8183 19.0572 90.3872 19.1814C89.5091 19.4298 88.4553 19.422 87.6012 19.1814C87.1701 19.0572 86.7869 18.8941 86.4755 18.6923C86.1482 18.4749 85.8928 18.2265 85.7092 17.9548C85.5336 17.6909 85.4457 17.3959 85.4457 17.0854C85.4457 16.7749 85.5336 16.5032 85.7092 16.2392L85.7172 16.2315Z" fill="white"/>
<path d="M112.748 15.9908L112.764 15.494V4.42414C112.764 4.19125 112.668 3.97389 112.492 3.78758C112.309 3.60127 112.061 3.50812 111.742 3.50812H99.7113V5.19266H109.977V15.8744C109.954 16.1073 109.922 16.2703 109.89 16.3634C109.778 16.6507 109.578 16.7982 109.283 16.7982H97.8193V18.4827H114.871V16.7982H112.524C112.636 16.5653 112.708 16.3013 112.756 15.9908H112.748Z" fill="white"/>
<path d="M117.761 5.65068L117.921 5.92239C118.008 6.13198 118.048 6.42697 118.048 6.79959V9.06635C118.048 9.3691 118.16 9.63304 118.368 9.8504C118.663 10.1454 119.134 10.3006 119.773 10.3006H130.997V8.6161H121.377C121.082 8.6161 120.97 8.554 120.93 8.50742C120.866 8.4298 120.834 8.29783 120.834 8.11928V7.34299H130.095C130.398 7.34299 130.606 7.28865 130.725 7.16445C130.837 7.048 130.901 6.86946 130.901 6.62881V3.3684C130.901 3.12775 130.845 2.95697 130.733 2.84052C130.622 2.72408 130.414 2.66974 130.095 2.66974H117.945V4.35428H128.107V5.64292H117.753L117.761 5.65068Z" fill="white"/>
<path d="M130.254 14.0035H127.627L127.859 14.1821C127.947 14.252 128.002 14.3373 128.042 14.4616C128.082 14.5935 128.106 14.7565 128.114 14.9584V15.8123H120.834V14.7643C120.834 14.1433 120.466 14.0113 120.163 14.0113H117.601L117.824 14.1898C117.92 14.2675 117.976 14.3684 118 14.5159C118.024 14.6711 118.04 14.8264 118.04 14.9661V19.228C118.04 19.5307 118.151 19.7946 118.359 20.012C118.654 20.307 119.125 20.4623 119.764 20.4623H130.892V14.7643C130.892 14.5469 130.836 14.3684 130.733 14.2287C130.621 14.0889 130.453 14.0113 130.238 14.0113L130.254 14.0035ZM120.834 18.2886V17.4968H128.114V18.7622H121.361C120.969 18.7622 120.906 18.6768 120.898 18.6457C120.858 18.5371 120.834 18.4206 120.834 18.2809V18.2886Z" fill="white"/>
<path d="M115.948 11.3642V13.0565H123.077V15.0205H125.871V13.0565H133V11.3642H115.948Z" fill="white"/>
</svg>
