<svg width="88" height="88" viewBox="0 0 88 88" fill="none" xmlns="http://www.w3.org/2000/svg">
<g filter="url(#filter0_i_8667_115506)">
<path d="M22.2858 35.605C31.8889 35.605 39.6685 43.3847 39.6685 52.9877V57.3334C39.6685 58.4243 38.7842 59.3087 37.6932 59.3087H33.3476C23.7445 59.3087 15.9648 51.529 15.9648 41.926V37.5803C15.9648 36.4894 16.8492 35.605 17.9402 35.605H22.2858Z" fill="url(#paint0_linear_8667_115506)"/>
</g>
<g filter="url(#filter1_i_8667_115506)">
<path d="M57.0521 35.605C47.449 35.605 39.6693 43.3847 39.6693 52.9877L39.6693 57.3334C39.6693 58.4243 40.5537 59.3087 41.6447 59.3087L45.9903 59.3087C55.5934 59.3087 63.373 51.529 63.373 41.926L63.373 37.5803C63.373 36.4894 62.4887 35.605 61.3977 35.605L57.0521 35.605Z" fill="url(#paint1_linear_8667_115506)"/>
</g>
<g filter="url(#filter2_i_8667_115506)">
<path d="M36.7051 28.6915C36.7051 27.0551 38.0316 25.7285 39.668 25.7285V25.7285C41.3044 25.7285 42.631 27.0551 42.631 28.6915V58.3211C42.631 59.9575 41.3044 61.2841 39.668 61.2841V61.2841C38.0316 61.2841 36.7051 59.9575 36.7051 58.3211V28.6915Z" fill="url(#paint2_linear_8667_115506)"/>
</g>
<g filter="url(#filter3_i_8667_115506)">
<path d="M39.669 37.5802C48.942 37.5802 56.4592 30.0631 56.4592 20.7901C56.4592 11.5172 48.942 4 39.669 4C30.3961 4 22.8789 11.5172 22.8789 20.7901C22.8789 30.0631 30.3961 37.5802 39.669 37.5802Z" fill="url(#paint3_linear_8667_115506)"/>
</g>
<g filter="url(#filter4_i_8667_115506)">
<path fill-rule="evenodd" clip-rule="evenodd" d="M33.0352 15.4357C33.8348 15.1821 34.7081 15.5687 34.9857 16.2991L36.6031 20.5541L38.2204 16.2991C38.4345 15.7359 39.0155 15.3583 39.6682 15.3583C40.3208 15.3583 40.9019 15.7359 41.116 16.2991L42.7333 20.5541L44.3507 16.2991C44.6283 15.5687 45.5016 15.1821 46.3012 15.4357C47.1007 15.6894 47.5239 16.4871 47.2462 17.2175L46.4204 19.3902H47.0245C47.8709 19.3902 48.5571 20.017 48.5571 20.7902C48.5571 21.5634 47.8709 22.1902 47.0245 22.1902H45.3561L44.1811 25.2813C43.967 25.8445 43.386 26.2221 42.7333 26.2221C42.0807 26.2221 41.4996 25.8445 41.2855 25.2813L39.6682 21.0263L38.0508 25.2813C37.8368 25.8445 37.2557 26.2221 36.6031 26.2221C35.9504 26.2221 35.3694 25.8445 35.1553 25.2813L33.9803 22.1902H32.3119C31.4655 22.1902 30.7793 21.5634 30.7793 20.7902C30.7793 20.017 31.4655 19.3902 32.3119 19.3902H32.916L32.0901 17.2175C31.8125 16.4871 32.2356 15.6894 33.0352 15.4357Z" fill="white"/>
</g>
<g filter="url(#filter5_i_8667_115506)">
<path d="M14.9766 55.3579H63.3716L58.614 79.2321C58.0617 82.0039 55.6287 83.9999 52.8024 83.9999H25.5458C22.7195 83.9999 20.2865 82.0039 19.7342 79.2321L14.9766 55.3579Z" fill="url(#paint4_linear_8667_115506)"/>
</g>
<g filter="url(#filter6_i_8667_115506)">
<path d="M13.002 52.3951C13.002 50.7587 14.3285 49.4321 15.9649 49.4321H63.3723C65.0087 49.4321 66.3353 50.7587 66.3353 52.3951V53.3827C66.3353 55.0191 65.0087 56.3457 63.3723 56.3457H15.9649C14.3285 56.3457 13.002 55.0191 13.002 53.3827V52.3951Z" fill="url(#paint5_linear_8667_115506)"/>
</g>
<g filter="url(#filter7_i_8667_115506)">
<path d="M51.5195 77.0866C51.5195 75.9957 52.4039 75.1113 53.4948 75.1113H55.4701C56.5611 75.1113 57.4455 75.9957 57.4455 77.0866V82.0249C57.4455 83.1158 56.5611 84.0002 55.4701 84.0002H53.4948C52.4039 84.0002 51.5195 83.1158 51.5195 82.0249V77.0866Z" fill="url(#paint6_linear_8667_115506)"/>
</g>
<g filter="url(#filter8_i_8667_115506)">
<path d="M60.4102 67.2097C60.4102 66.1188 61.2945 65.2344 62.3855 65.2344H64.3608C65.4517 65.2344 66.3361 66.1188 66.3361 67.2097V82.0245C66.3361 83.1154 65.4517 83.9998 64.3608 83.9998H62.3855C61.2945 83.9998 60.4102 83.1154 60.4102 82.0245V67.2097Z" fill="url(#paint7_linear_8667_115506)"/>
</g>
<g filter="url(#filter9_i_8667_115506)">
<path d="M69.2988 72.1482C69.2988 71.0572 70.1832 70.1729 71.2741 70.1729H73.2494C74.3404 70.1729 75.2248 71.0572 75.2248 72.1482V82.0247C75.2248 83.1156 74.3404 84 73.2494 84H71.2741C70.1832 84 69.2988 83.1156 69.2988 82.0247V72.1482Z" fill="url(#paint8_linear_8667_115506)"/>
</g>
<defs>
<filter id="filter0_i_8667_115506" x="15.9648" y="31.7527" width="27.5554" height="27.5559" filterUnits="userSpaceOnUse" color-interpolation-filters="sRGB">
<feFlood flood-opacity="0" result="BackgroundImageFix"/>
<feBlend mode="normal" in="SourceGraphic" in2="BackgroundImageFix" result="shape"/>
<feColorMatrix in="SourceAlpha" type="matrix" values="0 0 0 0 0 0 0 0 0 0 0 0 0 0 0 0 0 0 127 0" result="hardAlpha"/>
<feOffset dx="3.8523" dy="-3.8523"/>
<feGaussianBlur stdDeviation="4.81537"/>
<feComposite in2="hardAlpha" operator="arithmetic" k2="-1" k3="1"/>
<feColorMatrix type="matrix" values="0 0 0 0 0.82703 0 0 0 0 0.853975 0 0 0 0 0.921338 0 0 0 1 0"/>
<feBlend mode="normal" in2="shape" result="effect1_innerShadow_8667_115506"/>
</filter>
<filter id="filter1_i_8667_115506" x="39.6699" y="31.7527" width="27.5554" height="27.5559" filterUnits="userSpaceOnUse" color-interpolation-filters="sRGB">
<feFlood flood-opacity="0" result="BackgroundImageFix"/>
<feBlend mode="normal" in="SourceGraphic" in2="BackgroundImageFix" result="shape"/>
<feColorMatrix in="SourceAlpha" type="matrix" values="0 0 0 0 0 0 0 0 0 0 0 0 0 0 0 0 0 0 127 0" result="hardAlpha"/>
<feOffset dx="3.8523" dy="-3.8523"/>
<feGaussianBlur stdDeviation="4.81537"/>
<feComposite in2="hardAlpha" operator="arithmetic" k2="-1" k3="1"/>
<feColorMatrix type="matrix" values="0 0 0 0 0.82703 0 0 0 0 0.853975 0 0 0 0 0.921338 0 0 0 1 0"/>
<feBlend mode="normal" in2="shape" result="effect1_innerShadow_8667_115506"/>
</filter>
<filter id="filter2_i_8667_115506" x="36.7051" y="21.8762" width="9.77808" height="39.408" filterUnits="userSpaceOnUse" color-interpolation-filters="sRGB">
<feFlood flood-opacity="0" result="BackgroundImageFix"/>
<feBlend mode="normal" in="SourceGraphic" in2="BackgroundImageFix" result="shape"/>
<feColorMatrix in="SourceAlpha" type="matrix" values="0 0 0 0 0 0 0 0 0 0 0 0 0 0 0 0 0 0 127 0" result="hardAlpha"/>
<feOffset dx="3.8523" dy="-3.8523"/>
<feGaussianBlur stdDeviation="4.81537"/>
<feComposite in2="hardAlpha" operator="arithmetic" k2="-1" k3="1"/>
<feColorMatrix type="matrix" values="0 0 0 0 0.82703 0 0 0 0 0.853975 0 0 0 0 0.921338 0 0 0 1 0"/>
<feBlend mode="normal" in2="shape" result="effect1_innerShadow_8667_115506"/>
</filter>
<filter id="filter3_i_8667_115506" x="22.8789" y="1.82716" width="35.7529" height="35.7529" filterUnits="userSpaceOnUse" color-interpolation-filters="sRGB">
<feFlood flood-opacity="0" result="BackgroundImageFix"/>
<feBlend mode="normal" in="SourceGraphic" in2="BackgroundImageFix" result="shape"/>
<feColorMatrix in="SourceAlpha" type="matrix" values="0 0 0 0 0 0 0 0 0 0 0 0 0 0 0 0 0 0 127 0" result="hardAlpha"/>
<feOffset dx="2.17284" dy="-2.17284"/>
<feGaussianBlur stdDeviation="1.08642"/>
<feComposite in2="hardAlpha" operator="arithmetic" k2="-1" k3="1"/>
<feColorMatrix type="matrix" values="0 0 0 0 0.305882 0 0 0 0 0.509804 0 0 0 0 0.964706 0 0 0 1 0"/>
<feBlend mode="normal" in2="shape" result="effect1_innerShadow_8667_115506"/>
</filter>
<filter id="filter4_i_8667_115506" x="30.7793" y="15.3579" width="18.765" height="10.8643" filterUnits="userSpaceOnUse" color-interpolation-filters="sRGB">
<feFlood flood-opacity="0" result="BackgroundImageFix"/>
<feBlend mode="normal" in="SourceGraphic" in2="BackgroundImageFix" result="shape"/>
<feColorMatrix in="SourceAlpha" type="matrix" values="0 0 0 0 0 0 0 0 0 0 0 0 0 0 0 0 0 0 127 0" result="hardAlpha"/>
<feOffset dx="0.987654"/>
<feGaussianBlur stdDeviation="0.869136"/>
<feComposite in2="hardAlpha" operator="arithmetic" k2="-1" k3="1"/>
<feColorMatrix type="matrix" values="0 0 0 0 0.89646 0 0 0 0 0.89646 0 0 0 0 0.89646 0 0 0 1 0"/>
<feBlend mode="normal" in2="shape" result="effect1_innerShadow_8667_115506"/>
</filter>
<filter id="filter5_i_8667_115506" x="14.9766" y="51.7365" width="52.0159" height="32.2635" filterUnits="userSpaceOnUse" color-interpolation-filters="sRGB">
<feFlood flood-opacity="0" result="BackgroundImageFix"/>
<feBlend mode="normal" in="SourceGraphic" in2="BackgroundImageFix" result="shape"/>
<feColorMatrix in="SourceAlpha" type="matrix" values="0 0 0 0 0 0 0 0 0 0 0 0 0 0 0 0 0 0 127 0" result="hardAlpha"/>
<feOffset dx="3.6214" dy="-3.6214"/>
<feGaussianBlur stdDeviation="4.52675"/>
<feComposite in2="hardAlpha" operator="arithmetic" k2="-1" k3="1"/>
<feColorMatrix type="matrix" values="0 0 0 0 0.82703 0 0 0 0 0.853975 0 0 0 0 0.921338 0 0 0 1 0"/>
<feBlend mode="normal" in2="shape" result="effect1_innerShadow_8667_115506"/>
</filter>
<filter id="filter6_i_8667_115506" x="13.002" y="47.2593" width="55.5068" height="9.08641" filterUnits="userSpaceOnUse" color-interpolation-filters="sRGB">
<feFlood flood-opacity="0" result="BackgroundImageFix"/>
<feBlend mode="normal" in="SourceGraphic" in2="BackgroundImageFix" result="shape"/>
<feColorMatrix in="SourceAlpha" type="matrix" values="0 0 0 0 0 0 0 0 0 0 0 0 0 0 0 0 0 0 127 0" result="hardAlpha"/>
<feOffset dx="2.17284" dy="-2.17284"/>
<feGaussianBlur stdDeviation="1.08642"/>
<feComposite in2="hardAlpha" operator="arithmetic" k2="-1" k3="1"/>
<feColorMatrix type="matrix" values="0 0 0 0 0.305882 0 0 0 0 0.509804 0 0 0 0 0.964706 0 0 0 1 0"/>
<feBlend mode="normal" in2="shape" result="effect1_innerShadow_8667_115506"/>
</filter>
<filter id="filter7_i_8667_115506" x="51.5195" y="73.136" width="7.90109" height="10.864" filterUnits="userSpaceOnUse" color-interpolation-filters="sRGB">
<feFlood flood-opacity="0" result="BackgroundImageFix"/>
<feBlend mode="normal" in="SourceGraphic" in2="BackgroundImageFix" result="shape"/>
<feColorMatrix in="SourceAlpha" type="matrix" values="0 0 0 0 0 0 0 0 0 0 0 0 0 0 0 0 0 0 127 0" result="hardAlpha"/>
<feOffset dx="1.97531" dy="-1.97531"/>
<feGaussianBlur stdDeviation="0.987654"/>
<feComposite in2="hardAlpha" operator="arithmetic" k2="-1" k3="1"/>
<feColorMatrix type="matrix" values="0 0 0 0 0.473658 0 0 0 0 0.492626 0 0 0 0 1 0 0 0 1 0"/>
<feBlend mode="normal" in2="shape" result="effect1_innerShadow_8667_115506"/>
</filter>
<filter id="filter8_i_8667_115506" x="60.4102" y="63.2591" width="7.90109" height="20.7409" filterUnits="userSpaceOnUse" color-interpolation-filters="sRGB">
<feFlood flood-opacity="0" result="BackgroundImageFix"/>
<feBlend mode="normal" in="SourceGraphic" in2="BackgroundImageFix" result="shape"/>
<feColorMatrix in="SourceAlpha" type="matrix" values="0 0 0 0 0 0 0 0 0 0 0 0 0 0 0 0 0 0 127 0" result="hardAlpha"/>
<feOffset dx="1.97531" dy="-1.97531"/>
<feGaussianBlur stdDeviation="0.987654"/>
<feComposite in2="hardAlpha" operator="arithmetic" k2="-1" k3="1"/>
<feColorMatrix type="matrix" values="0 0 0 0 0.473658 0 0 0 0 0.492626 0 0 0 0 1 0 0 0 1 0"/>
<feBlend mode="normal" in2="shape" result="effect1_innerShadow_8667_115506"/>
</filter>
<filter id="filter9_i_8667_115506" x="69.2988" y="68.1975" width="7.90109" height="15.8025" filterUnits="userSpaceOnUse" color-interpolation-filters="sRGB">
<feFlood flood-opacity="0" result="BackgroundImageFix"/>
<feBlend mode="normal" in="SourceGraphic" in2="BackgroundImageFix" result="shape"/>
<feColorMatrix in="SourceAlpha" type="matrix" values="0 0 0 0 0 0 0 0 0 0 0 0 0 0 0 0 0 0 127 0" result="hardAlpha"/>
<feOffset dx="1.97531" dy="-1.97531"/>
<feGaussianBlur stdDeviation="0.987654"/>
<feComposite in2="hardAlpha" operator="arithmetic" k2="-1" k3="1"/>
<feColorMatrix type="matrix" values="0 0 0 0 0.473658 0 0 0 0 0.492626 0 0 0 0 1 0 0 0 1 0"/>
<feBlend mode="normal" in2="shape" result="effect1_innerShadow_8667_115506"/>
</filter>
<linearGradient id="paint0_linear_8667_115506" x1="22.1078" y1="56.1999" x2="37.1634" y2="27.8375" gradientUnits="userSpaceOnUse">
<stop offset="0.009" stop-color="#F2F4FC"/>
<stop offset="0.989" stop-color="#F5F7F9"/>
</linearGradient>
<linearGradient id="paint1_linear_8667_115506" x1="57.2301" y1="56.1999" x2="42.1745" y2="27.8375" gradientUnits="userSpaceOnUse">
<stop offset="0.009" stop-color="#F2F4FC"/>
<stop offset="0.989" stop-color="#F5F7F9"/>
</linearGradient>
<linearGradient id="paint2_linear_8667_115506" x1="37.3951" y1="56.6209" x2="44.9378" y2="55.5569" gradientUnits="userSpaceOnUse">
<stop offset="0.009" stop-color="#F2F4FC"/>
<stop offset="0.989" stop-color="#F5F7F9"/>
</linearGradient>
<linearGradient id="paint3_linear_8667_115506" x1="50.5296" y1="13.1133" x2="32.0152" y2="22.6449" gradientUnits="userSpaceOnUse">
<stop stop-color="#78C4FF"/>
<stop offset="1" stop-color="#5188FD"/>
</linearGradient>
<linearGradient id="paint4_linear_8667_115506" x1="23.6359" y1="81.5706" x2="43.9392" y2="53.2116" gradientUnits="userSpaceOnUse">
<stop offset="0.009" stop-color="#F2F4FC"/>
<stop offset="0.989" stop-color="#F5F7F9"/>
</linearGradient>
<linearGradient id="paint5_linear_8667_115506" x1="56.9178" y1="51.3084" x2="54.7" y2="60.1164" gradientUnits="userSpaceOnUse">
<stop stop-color="#78C4FF"/>
<stop offset="1" stop-color="#5188FD"/>
</linearGradient>
<linearGradient id="paint6_linear_8667_115506" x1="56.4109" y1="75.7622" x2="51.182" y2="79.7504" gradientUnits="userSpaceOnUse">
<stop stop-color="#A6A9FF"/>
<stop offset="1" stop-color="#5E64FF"/>
</linearGradient>
<linearGradient id="paint7_linear_8667_115506" x1="65.3015" y1="66.6084" x2="57.9857" y2="69.2515" gradientUnits="userSpaceOnUse">
<stop stop-color="#A6A9FF"/>
<stop offset="1" stop-color="#5E64FF"/>
</linearGradient>
<linearGradient id="paint8_linear_8667_115506" x1="74.1902" y1="71.1853" x2="67.5225" y2="74.4546" gradientUnits="userSpaceOnUse">
<stop stop-color="#A6A9FF"/>
<stop offset="1" stop-color="#5E64FF"/>
</linearGradient>
</defs>
</svg>
