<svg width="60" height="58" viewBox="0 0 60 58" fill="none" xmlns="http://www.w3.org/2000/svg">
<path d="M2.5 2.77167H12.5L19.2 36.407C19.4286 37.5635 20.0548 38.6024 20.9689 39.3417C21.883 40.0811 23.0267 40.4739 24.2 40.4513H48.5C49.6733 40.4739 50.817 40.0811 51.7311 39.3417C52.6452 38.6024 53.2714 37.5635 53.5 36.407L57.5 15.3315H15M25 53.0112C25 54.3985 23.8807 55.5231 22.5 55.5231C21.1193 55.5231 20 54.3985 20 53.0112C20 51.6238 21.1193 50.4992 22.5 50.4992C23.8807 50.4992 25 51.6238 25 53.0112ZM52.5 53.0112C52.5 54.3985 51.3807 55.5231 50 55.5231C48.6193 55.5231 47.5 54.3985 47.5 53.0112C47.5 51.6238 48.6193 50.4992 50 50.4992C51.3807 50.4992 52.5 51.6238 52.5 53.0112Z" stroke="#D17B49" stroke-width="4" stroke-linecap="round" stroke-linejoin="round"/>
</svg>
