<svg width="50" height="55" viewBox="0 0 50 55" fill="none" xmlns="http://www.w3.org/2000/svg">
<path d="M47.5 9.81958C47.5 13.9816 37.4264 17.3555 25 17.3555C12.5736 17.3555 2.5 13.9816 2.5 9.81958M47.5 9.81958C47.5 5.65761 37.4264 2.28366 25 2.28366C12.5736 2.28366 2.5 5.65761 2.5 9.81958M47.5 9.81958V44.9872C47.5 49.1571 37.5 52.5232 25 52.5232C12.5 52.5232 2.5 49.1571 2.5 44.9872V9.81958M47.5 27.4034C47.5 31.5733 37.5 34.9393 25 34.9393C12.5 34.9393 2.5 31.5733 2.5 27.4034" stroke="#D17B49" stroke-width="4" stroke-linecap="round" stroke-linejoin="round"/>
</svg>
