<svg width="55" height="51" viewBox="0 0 55 51" fill="none" xmlns="http://www.w3.org/2000/svg">
<path d="M52.4999 5.30761V20.3795M52.4999 20.3795H37.4999M52.4999 20.3795L40.925 9.42725C37.4765 5.96007 32.9999 3.71297 28.1698 3.02459C23.3398 2.3362 18.4179 3.24381 14.1458 5.61065C9.87379 7.9775 6.48306 11.6753 4.4846 16.147C2.48614 20.6186 1.98821 25.6217 3.06586 30.4024C4.1435 35.1831 6.73833 39.4823 10.4593 42.6523C14.1803 45.8223 18.8259 47.6912 23.696 47.9775C28.5661 48.2638 33.3969 46.9519 37.4603 44.2395C41.5238 41.5271 44.5999 37.5612 46.2249 32.9393" stroke="#D17B49" stroke-width="4" stroke-linecap="round" stroke-linejoin="round"/>
</svg>
