<svg width="21" height="22" viewBox="0 0 21 22" fill="none" xmlns="http://www.w3.org/2000/svg">
<path d="M12.4608 20C12.2884 20.3031 12.041 20.5547 11.7433 20.7295C11.4457 20.9044 11.1082 20.9965 10.7647 20.9965C10.4212 20.9965 10.0837 20.9044 9.78604 20.7295C9.48837 20.5547 9.24098 20.3031 9.06861 20M16.647 7C16.647 5.4087 16.0273 3.88258 14.9241 2.75736C13.821 1.63214 12.3248 1 10.7647 1C9.20459 1 7.70839 1.63214 6.60524 2.75736C5.50208 3.88258 4.88234 5.4087 4.88234 7C4.88234 14 1.94116 16 1.94116 16H19.5882C19.5882 16 16.647 14 16.647 7Z" stroke="white" stroke-width="2" stroke-linecap="round" stroke-linejoin="round"/>
</svg>
