<svg width="24" height="23" viewBox="0 0 24 23" fill="none" xmlns="http://www.w3.org/2000/svg">
<path d="M0.980377 1H4.90195L7.5294 14.39C7.61905 14.8504 7.8646 15.264 8.22307 15.5583C8.58154 15.8526 9.03008 16.009 9.49018 16H19.0196C19.4797 16.009 19.9282 15.8526 20.2867 15.5583C20.6452 15.264 20.8907 14.8504 20.9804 14.39L22.549 6H5.88234M9.80391 21C9.80391 21.5523 9.36497 22 8.82351 22C8.28206 22 7.84312 21.5523 7.84312 21C7.84312 20.4477 8.28206 20 8.82351 20C9.36497 20 9.80391 20.4477 9.80391 21ZM20.5882 21C20.5882 21.5523 20.1493 22 19.6078 22C19.0664 22 18.6274 21.5523 18.6274 21C18.6274 20.4477 19.0664 20 19.6078 20C20.1493 20 20.5882 20.4477 20.5882 21Z" stroke="white" stroke-width="2" stroke-linecap="round" stroke-linejoin="round"/>
</svg>
