<svg width="24" height="24" viewBox="0 0 24 24" fill="none" xmlns="http://www.w3.org/2000/svg">
<path d="M8.82351 1V4M14.7059 1V4M8.82351 20V23M14.7059 20V23M19.6078 9H22.549M19.6078 14H22.549M0.980377 9H3.92155M0.980377 14H3.92155M5.88234 4H17.647C18.73 4 19.6078 4.89543 19.6078 6V18C19.6078 19.1046 18.73 20 17.647 20H5.88234C4.79943 20 3.92155 19.1046 3.92155 18V6C3.92155 4.89543 4.79943 4 5.88234 4ZM8.82351 9H14.7059V15H8.82351V9Z" stroke="white" stroke-width="2" stroke-linecap="round" stroke-linejoin="round"/>
</svg>
