<svg width="23" height="23" viewBox="0 0 23 23" fill="none" xmlns="http://www.w3.org/2000/svg">
<path d="M10.7843 3.99998H3.92157C3.40154 3.99998 2.9028 4.2107 2.53509 4.58577C2.16737 4.96084 1.96078 5.46955 1.96078 5.99998V20C1.96078 20.5304 2.16737 21.0391 2.53509 21.4142C2.9028 21.7893 3.40154 22 3.92157 22H17.6471C18.1671 22 18.6658 21.7893 19.0335 21.4142C19.4013 21.0391 19.6078 20.5304 19.6078 20V13M18.1373 2.49998C18.5273 2.10216 19.0563 1.87866 19.6078 1.87866C20.1594 1.87866 20.6884 2.10216 21.0784 2.49998C21.4685 2.89781 21.6876 3.43737 21.6876 3.99998C21.6876 4.56259 21.4685 5.10216 21.0784 5.49998L11.7647 15L7.84314 16L8.82353 12L18.1373 2.49998Z" stroke="white" stroke-width="2" stroke-linecap="round" stroke-linejoin="round"/>
</svg>
