<svg width="23" height="22" viewBox="0 0 23 22" fill="none" xmlns="http://www.w3.org/2000/svg">
<path d="M19.6078 11V21H3.92157V11M11.7647 21V6M11.7647 6H7.35294C6.7029 6 6.07948 5.73661 5.61984 5.26777C5.16019 4.79893 4.90196 4.16304 4.90196 3.5C4.90196 2.83696 5.16019 2.20107 5.61984 1.73223C6.07948 1.26339 6.7029 1 7.35294 1C10.7843 1 11.7647 6 11.7647 6ZM11.7647 6H16.1765C16.8265 6 17.4499 5.73661 17.9096 5.26777C18.3692 4.79893 18.6275 4.16304 18.6275 3.5C18.6275 2.83696 18.3692 2.20107 17.9096 1.73223C17.4499 1.26339 16.8265 1 16.1765 1C12.7451 1 11.7647 6 11.7647 6ZM1.96078 6H21.5686V11H1.96078V6Z" stroke="white" stroke-width="2" stroke-linecap="round" stroke-linejoin="round"/>
</svg>
