<svg width="21" height="20" viewBox="0 0 21 20" fill="none" xmlns="http://www.w3.org/2000/svg">
<path d="M1.94116 16V10C1.94116 7.61305 2.87078 5.32387 4.52551 3.63604C6.18025 1.94821 8.42455 1 10.7647 1C13.1048 1 15.3491 1.94821 17.0039 3.63604C18.6586 5.32387 19.5882 7.61305 19.5882 10V16M19.5882 17C19.5882 17.5304 19.3816 18.0391 19.0139 18.4142C18.6462 18.7893 18.1475 19 17.6274 19H16.647C16.127 19 15.6283 18.7893 15.2606 18.4142C14.8928 18.0391 14.6863 17.5304 14.6863 17V14C14.6863 13.4696 14.8928 12.9609 15.2606 12.5858C15.6283 12.2107 16.127 12 16.647 12H19.5882V17ZM1.94116 17C1.94116 17.5304 2.14774 18.0391 2.51546 18.4142C2.88318 18.7893 3.38191 19 3.90195 19H4.88234C5.40237 19 5.9011 18.7893 6.26882 18.4142C6.63654 18.0391 6.84312 17.5304 6.84312 17V14C6.84312 13.4696 6.63654 12.9609 6.26882 12.5858C5.9011 12.2107 5.40237 12 4.88234 12H1.94116V17Z" stroke="white" stroke-width="2" stroke-linecap="round" stroke-linejoin="round"/>
</svg>
