<svg width="21" height="22" viewBox="0 0 21 22" fill="none" xmlns="http://www.w3.org/2000/svg">
<path d="M5.86273 10V6C5.86273 4.67392 6.37919 3.40215 7.29848 2.46447C8.21778 1.52678 9.46461 1 10.7647 1C12.0648 1 13.3116 1.52678 14.2309 2.46447C15.1502 3.40215 15.6667 4.67392 15.6667 6V10M3.90195 10H17.6274C18.7103 10 19.5882 10.8954 19.5882 12V19C19.5882 20.1046 18.7103 21 17.6274 21H3.90195C2.81903 21 1.94116 20.1046 1.94116 19V12C1.94116 10.8954 2.81903 10 3.90195 10Z" stroke="white" stroke-width="2" stroke-linecap="round" stroke-linejoin="round"/>
</svg>
