<svg width="24" height="26" viewBox="0 0 24 26" fill="none" xmlns="http://www.w3.org/2000/svg">
<path d="M14.0759 23.8C13.865 24.1637 13.5622 24.4656 13.1978 24.6754C12.8335 24.8853 12.4204 24.9957 12 24.9957C11.5795 24.9957 11.1664 24.8853 10.8021 24.6754C10.4377 24.4656 10.1349 24.1637 9.92395 23.8M19.2 8.2C19.2 6.29044 18.4414 4.45909 17.0911 3.10883C15.7409 1.75857 13.9095 1 12 1C10.0904 1 8.25904 1.75857 6.90878 3.10883C5.55852 4.45909 4.79995 6.29044 4.79995 8.2C4.79995 16.6 1.19995 19 1.19995 19H22.7999C22.7999 19 19.2 16.6 19.2 8.2Z" stroke="#757575" stroke-width="2" stroke-linecap="round" stroke-linejoin="round"/>
</svg>
