<svg width="24" height="24" viewBox="0 0 24 24" fill="none" xmlns="http://www.w3.org/2000/svg">
<path d="M11.7647 15C13.3891 15 14.7059 13.6569 14.7059 12C14.7059 10.3431 13.3891 9 11.7647 9C10.1403 9 8.82351 10.3431 8.82351 12C8.82351 13.6569 10.1403 15 11.7647 15Z" stroke="white" stroke-width="2" stroke-linecap="round" stroke-linejoin="round"/>
<path d="M19.0196 15C18.8891 15.3016 18.8502 15.6362 18.9078 15.9606C18.9655 16.285 19.1171 16.5843 19.3431 16.82L19.4019 16.88C19.5843 17.0657 19.7289 17.2863 19.8276 17.5291C19.9262 17.7719 19.977 18.0322 19.977 18.295C19.977 18.5578 19.9262 18.8181 19.8276 19.0609C19.7289 19.3037 19.5843 19.5243 19.4019 19.71C19.2198 19.896 19.0036 20.0435 18.7656 20.1441C18.5275 20.2448 18.2724 20.2966 18.0147 20.2966C17.757 20.2966 17.5019 20.2448 17.2638 20.1441C17.0258 20.0435 16.8095 19.896 16.6274 19.71L16.5686 19.65C16.3376 19.4195 16.0441 19.2648 15.7261 19.206C15.408 19.1472 15.08 19.1869 14.7843 19.32C14.4943 19.4468 14.247 19.6572 14.0728 19.9255C13.8986 20.1938 13.8052 20.5082 13.8039 20.83V21C13.8039 21.5304 13.5973 22.0391 13.2296 22.4142C12.8619 22.7893 12.3632 23 11.8431 23C11.3231 23 10.8244 22.7893 10.4566 22.4142C10.0889 22.0391 9.88234 21.5304 9.88234 21V20.91C9.87475 20.579 9.76971 20.258 9.58088 19.9887C9.39205 19.7194 9.12816 19.5143 8.82351 19.4C8.52781 19.2669 8.1998 19.2272 7.88176 19.286C7.56373 19.3448 7.27026 19.4995 7.0392 19.73L6.98038 19.79C6.79827 19.976 6.58202 20.1235 6.34399 20.2241C6.10595 20.3248 5.8508 20.3766 5.59312 20.3766C5.33544 20.3766 5.08029 20.3248 4.84226 20.2241C4.60422 20.1235 4.38797 19.976 4.20587 19.79C4.02356 19.6043 3.87893 19.3837 3.78026 19.1409C3.68158 18.8981 3.6308 18.6378 3.6308 18.375C3.6308 18.1122 3.68158 17.8519 3.78026 17.6091C3.87893 17.3663 4.02356 17.1457 4.20587 16.96L4.26469 16.9C4.49071 16.6643 4.64232 16.365 4.69999 16.0406C4.75765 15.7162 4.71873 15.3816 4.58822 15.08C4.46394 14.7842 4.25759 14.532 3.99456 14.3543C3.73153 14.1766 3.42331 14.0813 3.10783 14.08H2.94116C2.42113 14.08 1.9224 13.8693 1.55468 13.4942C1.18696 13.1191 0.980377 12.6104 0.980377 12.08C0.980377 11.5496 1.18696 11.0409 1.55468 10.6658C1.9224 10.2907 2.42113 10.08 2.94116 10.08H3.0294C3.3539 10.0723 3.66862 9.96512 3.93263 9.77251C4.19665 9.5799 4.39775 9.31074 4.50979 9C4.64029 8.69838 4.67922 8.36381 4.62156 8.03941C4.56389 7.71502 4.41228 7.41568 4.18626 7.18L4.12744 7.12C3.94513 6.93425 3.8005 6.71368 3.70183 6.47088C3.60315 6.22808 3.55236 5.96783 3.55236 5.705C3.55236 5.44217 3.60315 5.18192 3.70183 4.93912C3.8005 4.69632 3.94513 4.47575 4.12744 4.29C4.30954 4.10405 4.52579 3.95653 4.76383 3.85588C5.00186 3.75523 5.25701 3.70343 5.51469 3.70343C5.77237 3.70343 6.02752 3.75523 6.26555 3.85588C6.50359 3.95653 6.71984 4.10405 6.90195 4.29L6.96077 4.35C7.19183 4.58054 7.48529 4.73519 7.80333 4.794C8.12136 4.85282 8.44938 4.81312 8.74508 4.68H8.82351C9.11348 4.55324 9.36079 4.34276 9.53498 4.07447C9.70917 3.80618 9.80265 3.49179 9.80391 3.17V3C9.80391 2.46957 10.0105 1.96086 10.3782 1.58579C10.7459 1.21071 11.2447 1 11.7647 1C12.2847 1 12.7835 1.21071 13.1512 1.58579C13.5189 1.96086 13.7255 2.46957 13.7255 3V3.09C13.7267 3.41179 13.8202 3.72618 13.9944 3.99447C14.1686 4.26276 14.4159 4.47324 14.7059 4.6C15.0016 4.73312 15.3296 4.77282 15.6476 4.714C15.9657 4.65519 16.2591 4.50054 16.4902 4.27L16.549 4.21C16.7311 4.02405 16.9474 3.87653 17.1854 3.77588C17.4234 3.67523 17.6786 3.62343 17.9363 3.62343C18.1939 3.62343 18.4491 3.67523 18.6871 3.77588C18.9252 3.87653 19.1414 4.02405 19.3235 4.21C19.5058 4.39575 19.6504 4.61632 19.7491 4.85912C19.8478 5.10192 19.8986 5.36217 19.8986 5.625C19.8986 5.88783 19.8478 6.14808 19.7491 6.39088C19.6504 6.63368 19.5058 6.85425 19.3235 7.04L19.2647 7.1C19.0387 7.33568 18.8871 7.63502 18.8294 7.95941C18.7717 8.28381 18.8107 8.61838 18.9412 8.92V9C19.0654 9.29577 19.2718 9.54802 19.5348 9.72569C19.7979 9.90337 20.1061 9.99872 20.4216 10H20.5882C21.1083 10 21.607 10.2107 21.9747 10.5858C22.3424 10.9609 22.549 11.4696 22.549 12C22.549 12.5304 22.3424 13.0391 21.9747 13.4142C21.607 13.7893 21.1083 14 20.5882 14H20.5C20.1845 14.0013 19.8763 14.0966 19.6133 14.2743C19.3502 14.452 19.1439 14.7042 19.0196 15Z" stroke="white" stroke-width="2" stroke-linecap="round" stroke-linejoin="round"/>
</svg>
