<svg width="21" height="22" viewBox="0 0 21 22" fill="none" xmlns="http://www.w3.org/2000/svg">
<path d="M1.94116 5L4.88234 1H16.647L19.5882 5M1.94116 5V19C1.94116 19.5304 2.14774 20.0391 2.51546 20.4142C2.88318 20.7893 3.38191 21 3.90195 21H17.6274C18.1475 21 18.6462 20.7893 19.0139 20.4142C19.3816 20.0391 19.5882 19.5304 19.5882 19V5M1.94116 5H19.5882M14.6863 9C14.6863 10.0609 14.2731 11.0783 13.5377 11.8284C12.8022 12.5786 11.8048 13 10.7647 13C9.72463 13 8.72716 12.5786 7.99172 11.8284C7.25629 11.0783 6.84312 10.0609 6.84312 9" stroke="white" stroke-width="2" stroke-linecap="round" stroke-linejoin="round"/>
</svg>
