<svg width="24" height="20" viewBox="0 0 24 20" fill="none" xmlns="http://www.w3.org/2000/svg">
<path d="M16.6667 19V17C16.6667 15.9391 16.2535 14.9217 15.5181 14.1716C14.7826 13.4214 13.7851 13 12.7451 13H4.90195C3.86188 13 2.86441 13.4214 2.12898 14.1716C1.39354 14.9217 0.980377 15.9391 0.980377 17V19M22.549 19V17C22.5484 16.1137 22.2592 15.2528 21.7268 14.5523C21.1945 13.8519 20.4491 13.3516 19.6078 13.13M15.6863 1.13C16.5298 1.3503 17.2775 1.8507 17.8114 2.55231C18.3453 3.25392 18.6351 4.11683 18.6351 5.005C18.6351 5.89317 18.3453 6.75608 17.8114 7.45769C17.2775 8.1593 16.5298 8.6597 15.6863 8.88M12.7451 5C12.7451 7.20914 10.9893 9 8.82351 9C6.65769 9 4.90195 7.20914 4.90195 5C4.90195 2.79086 6.65769 1 8.82351 1C10.9893 1 12.7451 2.79086 12.7451 5Z" stroke="white" stroke-width="2" stroke-linecap="round" stroke-linejoin="round"/>
</svg>
