<svg width="17" height="16" viewBox="0 0 17 16" fill="none" xmlns="http://www.w3.org/2000/svg">
<mask id="mask0_7276_18134" style="mask-type:alpha" maskUnits="userSpaceOnUse" x="0" y="-1" width="17" height="18">
<path fill-rule="evenodd" clip-rule="evenodd" d="M9.6115 3.33333C9.24331 3.33333 8.94484 3.03486 8.94484 2.66667C8.94484 2.29848 9.24331 2 9.6115 2H13.9336C14.3018 2 14.6003 2.29848 14.6003 2.66667V6.98875C14.6003 7.35694 14.3018 7.65541 13.9336 7.65541C13.5654 7.65541 13.2669 7.35694 13.2669 6.98875V4.27614L8.5868 8.95625C8.32645 9.2166 7.90434 9.2166 7.64399 8.95625C7.38364 8.6959 7.38364 8.27379 7.64399 8.01344L12.3241 3.33333H9.6115Z" fill="#191E26"/>
<path fill-rule="evenodd" clip-rule="evenodd" d="M6.43924 2L6.82233 2C7.19052 2 7.48899 2.29848 7.48899 2.66667C7.48899 3.03486 7.19052 3.33333 6.82233 3.33333H6.46677C5.89572 3.33333 5.50752 3.33385 5.20746 3.35837C4.91518 3.38225 4.76571 3.42553 4.66145 3.47866C4.41056 3.60649 4.20659 3.81046 4.07876 4.06135C4.02563 4.16561 3.98235 4.31508 3.95847 4.60736C3.93395 4.90742 3.93343 5.29561 3.93343 5.86667V10.1333C3.93343 10.7044 3.93395 11.0926 3.95847 11.3926C3.98235 11.6849 4.02563 11.8344 4.07876 11.9387C4.20659 12.1895 4.41056 12.3935 4.66145 12.5213C4.76571 12.5745 4.91518 12.6178 5.20746 12.6416C5.50752 12.6661 5.89572 12.6667 6.46677 12.6667H10.7334C11.3045 12.6667 11.6927 12.6661 11.9928 12.6416C12.285 12.6178 12.4345 12.5745 12.5388 12.5213C12.7896 12.3935 12.9936 12.1895 13.1215 11.9387C13.1746 11.8344 13.2179 11.6849 13.2417 11.3926C13.2663 11.0926 13.2668 10.7044 13.2668 10.1333V9.77778C13.2668 9.40959 13.5653 9.11111 13.9334 9.11111C14.3016 9.11111 14.6001 9.40959 14.6001 9.77778V10.1609C14.6001 10.6975 14.6001 11.1404 14.5707 11.5012C14.54 11.8759 14.4743 12.2204 14.3095 12.544C14.0538 13.0457 13.6459 13.4537 13.1441 13.7094C12.8205 13.8742 12.4761 13.9399 12.1013 13.9705C11.7405 14 11.2976 14 10.761 14H6.43922C5.90258 14 5.45968 14 5.09888 13.9705C4.72415 13.9399 4.37968 13.8742 4.05613 13.7094C3.55436 13.4537 3.14641 13.0457 2.89075 12.544C2.72589 12.2204 2.66018 11.8759 2.62956 11.5012C2.60008 11.1404 2.60009 10.6975 2.6001 10.1609V5.83913C2.60009 5.30249 2.60008 4.85958 2.62956 4.49878C2.66018 4.12405 2.72589 3.77958 2.89075 3.45603C3.14641 2.95426 3.55436 2.54631 4.05613 2.29065C4.37968 2.12579 4.72415 2.06008 5.09888 2.02946C5.45968 1.99998 5.90259 1.99999 6.43924 2Z" fill="#191E26"/>
</mask>
<g mask="url(#mask0_7276_18134)">
<rect x="0.600098" width="16" height="16" fill="#7C889F"/>
</g>
</svg>
