<svg width="24" height="24" viewBox="0 0 24 24" fill="none" xmlns="http://www.w3.org/2000/svg">
<mask id="mask0_9244_40871" style="mask-type:alpha" maskUnits="userSpaceOnUse" x="0" y="0" width="24" height="24">
<g clip-path="url(#clip0_9244_40871)">
<path d="M20 20L16.8 16.8M18.9333 11.4667C18.9333 15.5904 15.5904 18.9333 11.4667 18.9333C7.34294 18.9333 4 15.5904 4 11.4667C4 7.34294 7.34294 4 11.4667 4C15.5904 4 18.9333 7.34294 18.9333 11.4667Z" stroke="#121316" stroke-width="2" stroke-linecap="round" stroke-linejoin="round"/>
<path fill-rule="evenodd" clip-rule="evenodd" d="M11.4667 5C7.89523 5 5 7.89522 5 11.4667C5 15.0381 7.89523 17.9333 11.4667 17.9333C15.0381 17.9333 17.9333 15.0381 17.9333 11.4667C17.9333 7.89522 15.0381 5 11.4667 5ZM3 11.4667C3 6.79065 6.79066 3 11.4667 3C16.1427 3 19.9333 6.79065 19.9333 11.4667C19.9333 13.4443 19.2553 15.2636 18.119 16.7047L20.7071 19.2929C21.0976 19.6834 21.0976 20.3166 20.7071 20.7071C20.3166 21.0976 19.6834 21.0976 19.2929 20.7071L16.7047 18.119C15.2636 19.2553 13.4443 19.9333 11.4667 19.9333C6.79066 19.9333 3 16.1427 3 11.4667Z" fill="#121316"/>
</g>
</mask>
<g mask="url(#mask0_9244_40871)">
<rect width="24" height="24" fill="#007EF4"/>
</g>
<defs>
<clipPath id="clip0_9244_40871">
<rect width="24.0001" height="24" fill="white"/>
</clipPath>
</defs>
</svg>
