<svg width="56" height="57" viewBox="0 0 56 57" fill="none" xmlns="http://www.w3.org/2000/svg">
<path d="M6.99829 12.7412C6.99829 9.84656 9.34485 7.5 12.2395 7.5H27.9991V28.5008H6.99829V12.7412Z" fill="#457DFF"/>
<path d="M6.99829 12.7412C6.99829 9.84656 9.34485 7.5 12.2395 7.5H27.9991V28.5008H6.99829V12.7412Z" fill="url(#paint0_linear_5920_59771)"/>
<g filter="url(#filter0_i_5920_59771)">
<path d="M6.99829 28.5H27.9991V49.5008H12.2395C9.34485 49.5008 6.99829 47.1542 6.99829 44.2596V28.5Z" fill="url(#paint1_linear_5920_59771)"/>
</g>
<path fill-rule="evenodd" clip-rule="evenodd" d="M14.2033 35.7083C14.5761 35.3355 15.1805 35.3355 15.5533 35.7083L17.4989 37.6539L19.4444 35.7083C19.8172 35.3355 20.4216 35.3355 20.7944 35.7083C21.1672 36.0811 21.1672 36.6856 20.7944 37.0584L18.8489 39.0039L20.7944 40.9494C21.1672 41.3222 21.1672 41.9267 20.7944 42.2995C20.4216 42.6723 19.8172 42.6723 19.4444 42.2995L17.4989 40.354L15.5533 42.2995C15.1805 42.6723 14.5761 42.6723 14.2033 42.2995C13.8305 41.9267 13.8305 41.3222 14.2033 40.9494L16.1488 39.0039L14.2033 37.0584C13.8305 36.6856 13.8305 36.0811 14.2033 35.7083Z" fill="url(#paint2_linear_5920_59771)"/>
<g filter="url(#filter1_i_5920_59771)">
<path d="M28.001 7.5H43.7606C46.6552 7.5 49.0018 9.84656 49.0018 12.7412V28.5008H28.001V7.5Z" fill="url(#paint3_linear_5920_59771)"/>
</g>
<path d="M28.001 28.5H49.0018V44.2596C49.0018 47.1542 46.6552 49.5008 43.7606 49.5008H28.001V28.5Z" fill="#457DFF"/>
<path d="M28.001 28.5H49.0018V44.2596C49.0018 47.1542 46.6552 49.5008 43.7606 49.5008H28.001V28.5Z" fill="url(#paint4_linear_5920_59771)"/>
<path fill-rule="evenodd" clip-rule="evenodd" d="M33.8381 40.8531C33.8381 40.3258 34.2655 39.8984 34.7928 39.8984H42.2048C42.732 39.8984 43.1594 40.3258 43.1594 40.8531C43.1594 41.3803 42.732 41.8077 42.2048 41.8077H34.7928C34.2655 41.8077 33.8381 41.3803 33.8381 40.8531Z" fill="white"/>
<path fill-rule="evenodd" clip-rule="evenodd" d="M33.8384 37.1441C33.8384 36.6169 34.2658 36.1895 34.793 36.1895H42.205C42.7323 36.1895 43.1597 36.6169 43.1597 37.1441C43.1597 37.6713 42.7323 38.0987 42.205 38.0987H34.793C34.2658 38.0987 33.8384 37.6713 33.8384 37.1441Z" fill="white"/>
<path fill-rule="evenodd" clip-rule="evenodd" d="M17.5037 13.3418C18.0309 13.3418 18.4583 13.7692 18.4583 14.2964V17.0478H21.2097C21.7369 17.0478 22.1643 17.4752 22.1643 18.0024C22.1643 18.5297 21.7369 18.9571 21.2097 18.9571H18.4583V21.7085C18.4583 22.2357 18.0309 22.6631 17.5037 22.6631C16.9764 22.6631 16.549 22.2357 16.549 21.7085L16.549 18.9571H13.7976C13.2704 18.9571 12.843 18.5297 12.843 18.0024C12.843 17.4752 13.2704 17.0478 13.7976 17.0478H16.549L16.549 14.2964C16.549 13.7692 16.9764 13.3418 17.5037 13.3418Z" fill="white"/>
<path fill-rule="evenodd" clip-rule="evenodd" d="M33.8457 18.0015C33.8457 17.4743 34.2731 17.0469 34.8003 17.0469H42.2124C42.7396 17.0469 43.167 17.4743 43.167 18.0015C43.167 18.5287 42.7396 18.9561 42.2124 18.9561H34.8003C34.2731 18.9561 33.8457 18.5287 33.8457 18.0015Z" fill="url(#paint5_linear_5920_59771)"/>
<defs>
<filter id="filter0_i_5920_59771" x="6.99829" y="26.5907" width="22.91" height="22.9093" filterUnits="userSpaceOnUse" color-interpolation-filters="sRGB">
<feFlood flood-opacity="0" result="BackgroundImageFix"/>
<feBlend mode="normal" in="SourceGraphic" in2="BackgroundImageFix" result="shape"/>
<feColorMatrix in="SourceAlpha" type="matrix" values="0 0 0 0 0 0 0 0 0 0 0 0 0 0 0 0 0 0 127 0" result="hardAlpha"/>
<feOffset dx="1.90925" dy="-1.90925"/>
<feGaussianBlur stdDeviation="2.86388"/>
<feComposite in2="hardAlpha" operator="arithmetic" k2="-1" k3="1"/>
<feColorMatrix type="matrix" values="0 0 0 0 0.82703 0 0 0 0 0.853975 0 0 0 0 0.921338 0 0 0 1 0"/>
<feBlend mode="normal" in2="shape" result="effect1_innerShadow_5920_59771"/>
</filter>
<filter id="filter1_i_5920_59771" x="28.001" y="5.59075" width="22.91" height="22.9093" filterUnits="userSpaceOnUse" color-interpolation-filters="sRGB">
<feFlood flood-opacity="0" result="BackgroundImageFix"/>
<feBlend mode="normal" in="SourceGraphic" in2="BackgroundImageFix" result="shape"/>
<feColorMatrix in="SourceAlpha" type="matrix" values="0 0 0 0 0 0 0 0 0 0 0 0 0 0 0 0 0 0 127 0" result="hardAlpha"/>
<feOffset dx="1.90925" dy="-1.90925"/>
<feGaussianBlur stdDeviation="2.86388"/>
<feComposite in2="hardAlpha" operator="arithmetic" k2="-1" k3="1"/>
<feColorMatrix type="matrix" values="0 0 0 0 0.82703 0 0 0 0 0.853975 0 0 0 0 0.921338 0 0 0 1 0"/>
<feBlend mode="normal" in2="shape" result="effect1_innerShadow_5920_59771"/>
</filter>
<linearGradient id="paint0_linear_5920_59771" x1="24.2908" y1="13.1993" x2="12.712" y2="19.1604" gradientUnits="userSpaceOnUse">
<stop stop-color="#78C4FF"/>
<stop offset="1" stop-color="#5188FD"/>
</linearGradient>
<linearGradient id="paint1_linear_5920_59771" x1="9.63217" y1="47.7196" x2="25.3475" y2="32.5632" gradientUnits="userSpaceOnUse">
<stop offset="0.009" stop-color="#F8FAFF"/>
<stop offset="0.989" stop-color="#F5F7F9"/>
</linearGradient>
<linearGradient id="paint2_linear_5920_59771" x1="17.9958" y1="36.1106" x2="16.5938" y2="40.488" gradientUnits="userSpaceOnUse">
<stop stop-color="#78C4FF"/>
<stop offset="1" stop-color="#5188FD"/>
</linearGradient>
<linearGradient id="paint3_linear_5920_59771" x1="30.6349" y1="26.7196" x2="46.3502" y2="11.5632" gradientUnits="userSpaceOnUse">
<stop offset="0.009" stop-color="#F8FAFF"/>
<stop offset="0.989" stop-color="#F5F7F9"/>
</linearGradient>
<linearGradient id="paint4_linear_5920_59771" x1="45.2935" y1="34.1993" x2="33.7147" y2="40.1604" gradientUnits="userSpaceOnUse">
<stop stop-color="#78C4FF"/>
<stop offset="1" stop-color="#5188FD"/>
</linearGradient>
<linearGradient id="paint5_linear_5920_59771" x1="40.9036" y1="18.2606" x2="40.5991" y2="19.4777" gradientUnits="userSpaceOnUse">
<stop stop-color="#78C4FF"/>
<stop offset="1" stop-color="#5188FD"/>
</linearGradient>
</defs>
</svg>
