<svg width="56" height="56" viewBox="0 0 56 56" fill="none" xmlns="http://www.w3.org/2000/svg">
<g filter="url(#filter0_i_12180_4810)">
<path d="M22.8449 17.9212C25.0792 21.6689 30.5069 21.6689 32.7411 17.9212L38.2369 8.70244C39.2099 7.07028 38.0339 5 36.1337 5H19.4524C17.5522 5 16.3761 7.07028 17.3491 8.70244L22.8449 17.9212Z" fill="url(#paint0_linear_12180_4810)"/>
<path d="M6.52845 31.5821C6.92235 21.7566 14.7684 14 24.3133 14H31.6867C41.2316 14 49.0777 21.7565 49.4716 31.5821L49.9948 44.6348C50.134 48.1069 47.4395 51 44.0666 51H11.9334C8.56049 51 5.86596 48.1069 6.00516 44.6348L6.52845 31.5821Z" fill="url(#paint1_linear_12180_4810)"/>
</g>
<path fill-rule="evenodd" clip-rule="evenodd" d="M37.3596 13.58C37.5806 14.5493 36.974 15.5141 36.0047 15.7351L35.6047 13.9801C36.0047 15.7351 36.0045 15.7351 36.0043 15.7352L36.0038 15.7353L36.0026 15.7355L35.9991 15.7363L35.9883 15.7388L35.9512 15.747C35.9196 15.754 35.8747 15.7638 35.8173 15.776C35.7026 15.8004 35.5378 15.8346 35.3302 15.8753C34.9153 15.9566 34.3273 16.0642 33.6248 16.1716C32.2294 16.385 30.3394 16.6045 28.4396 16.6045C26.5448 16.6045 24.5412 16.386 23.0389 16.1748C22.2815 16.0683 21.6384 15.9618 21.1829 15.8816C20.9549 15.8415 20.7734 15.8078 20.6475 15.7839C20.5845 15.772 20.5353 15.7625 20.5012 15.7558L20.4613 15.7479L20.4501 15.7457L20.4467 15.745L20.4455 15.7448L20.4451 15.7447C20.4449 15.7446 20.4448 15.7446 20.8003 13.9801L20.4448 15.7446C19.4702 15.5482 18.8394 14.599 19.0358 13.6245C19.2322 12.6501 20.1812 12.0193 21.1555 12.2155C21.1555 12.2155 21.1556 12.2155 21.1556 12.2155L21.1557 12.2155C21.1558 12.2155 21.1559 12.2155 21.1559 12.2156L21.1566 12.2157L21.1631 12.217L21.1931 12.2229C21.2206 12.2283 21.2629 12.2365 21.3187 12.2471C21.4303 12.2683 21.5961 12.299 21.8072 12.3362C22.2296 12.4106 22.8311 12.5102 23.54 12.6098C24.9703 12.8109 26.7863 13.0045 28.4396 13.0045C30.088 13.0045 31.7806 12.8118 33.0806 12.613C33.7258 12.5143 34.2638 12.4158 34.638 12.3425C34.8249 12.3059 34.9704 12.2757 35.0673 12.255C35.1157 12.2447 35.152 12.2368 35.1752 12.2317L35.2001 12.2261L35.2046 12.2251L35.2049 12.225L35.2049 12.225C36.1741 12.0043 37.1387 12.6109 37.3596 13.58Z" fill="url(#paint2_linear_12180_4810)"/>
<path fill-rule="evenodd" clip-rule="evenodd" d="M19.6557 26.0929C20.5843 25.7816 21.5908 26.2779 21.9039 27.2014L24.1107 33.7118L26.3176 27.2014C26.5609 26.4837 27.2374 26.0005 27.9989 26.0005C28.7604 26.0005 29.4369 26.4837 29.6802 27.2014L31.8871 33.7118L34.094 27.2014C34.407 26.2779 35.4135 25.7816 36.3421 26.0929C37.2706 26.4043 37.7696 27.4053 37.4565 28.3288L36.261 31.8557H37.7257C38.7056 31.8557 39.5 32.6457 39.5 33.6203C39.5 34.5948 38.7056 35.3849 37.7257 35.3849H35.0647L33.5684 39.7991C33.3251 40.5168 32.6486 41 31.8871 41C31.1256 41 30.4491 40.5168 30.2058 39.7991L27.9989 33.2887L25.792 39.7991C25.5488 40.5168 24.8722 41 24.1107 41C23.3493 41 22.6727 40.5168 22.4294 39.7991L20.8942 35.27H18.2743C17.2944 35.27 16.5 34.4799 16.5 33.5054C16.5 32.5308 17.2944 31.7408 18.2743 31.7408H19.6979L18.5413 28.3288C18.2282 27.4053 18.7272 26.4043 19.6557 26.0929Z" fill="url(#paint3_linear_12180_4810)"/>
<defs>
<filter id="filter0_i_12180_4810" x="6" y="1" width="48" height="50" filterUnits="userSpaceOnUse" color-interpolation-filters="sRGB">
<feFlood flood-opacity="0" result="BackgroundImageFix"/>
<feBlend mode="normal" in="SourceGraphic" in2="BackgroundImageFix" result="shape"/>
<feColorMatrix in="SourceAlpha" type="matrix" values="0 0 0 0 0 0 0 0 0 0 0 0 0 0 0 0 0 0 127 0" result="hardAlpha"/>
<feOffset dx="4" dy="-4"/>
<feGaussianBlur stdDeviation="5"/>
<feComposite in2="hardAlpha" operator="arithmetic" k2="-1" k3="1"/>
<feColorMatrix type="matrix" values="0 0 0 0 0.82703 0 0 0 0 0.853975 0 0 0 0 0.921338 0 0 0 1 0"/>
<feBlend mode="normal" in2="shape" result="effect1_innerShadow_12180_4810"/>
</filter>
<linearGradient id="paint0_linear_12180_4810" x1="11.5184" y1="47.0985" x2="45.852" y2="15.4257" gradientUnits="userSpaceOnUse">
<stop offset="0.009" stop-color="#F8FAFF"/>
<stop offset="0.989" stop-color="#F5F7F9"/>
</linearGradient>
<linearGradient id="paint1_linear_12180_4810" x1="11.5184" y1="47.0985" x2="45.852" y2="15.4257" gradientUnits="userSpaceOnUse">
<stop offset="0.009" stop-color="#F8FAFF"/>
<stop offset="0.989" stop-color="#F5F7F9"/>
</linearGradient>
<linearGradient id="paint2_linear_12180_4810" x1="34.1551" y1="13.3805" x2="31.8569" y2="18.302" gradientUnits="userSpaceOnUse">
<stop stop-color="#78C4FF"/>
<stop offset="1" stop-color="#5188FD"/>
</linearGradient>
<linearGradient id="paint3_linear_12180_4810" x1="35.4387" y1="35.2769" x2="30.5366" y2="42.6667" gradientUnits="userSpaceOnUse">
<stop stop-color="#78C4FF"/>
<stop offset="1" stop-color="#5188FD"/>
</linearGradient>
</defs>
</svg>
