<svg width="24" height="28" viewBox="0 0 24 28" fill="none" xmlns="http://www.w3.org/2000/svg">
<path fill-rule="evenodd" clip-rule="evenodd" d="M10.0449 2.39868C11.2935 1.86711 12.7065 1.86711 13.9551 2.39868L21.1661 5.46879C21.9738 5.81269 22.5 6.60312 22.5 7.48032V14.6999C22.5 17.1591 21.4956 19.4903 19.7539 21.181L19.7131 21.2206L14.081 25.3374C12.836 26.2209 11.1641 26.2208 9.91901 25.3373L5.31895 22.0732C2.92312 20.3731 1.5 17.6272 1.5 14.6999V7.48032C1.5 6.60311 2.02617 5.81269 2.83392 5.46879L10.0449 2.39868ZM13.3148 3.8952C12.4753 3.53776 11.5247 3.53776 10.6852 3.8952L3.47417 6.96531C3.26454 7.05455 3.13107 7.25793 3.13107 7.48032V14.6999C3.13107 17.0989 4.29728 19.3515 6.26437 20.7473L10.8644 24.0114C11.5421 24.4923 12.4526 24.4933 13.1312 24.0145L18.656 19.9761C20.0611 18.5918 20.8689 16.6966 20.8689 14.6999V7.48032C20.8689 7.25792 20.7355 7.05455 20.5258 6.96531L13.3148 3.8952Z" fill="#191E26"/>
<path fill-rule="evenodd" clip-rule="evenodd" d="M17.2197 10.2956C17.5921 10.6911 17.5936 11.334 17.2231 11.7315L11.853 17.493C11.1953 18.1987 10.1154 18.163 9.49981 17.4152L6.73665 14.0582C6.38991 13.637 6.42873 12.9954 6.82335 12.6253C7.21796 12.2552 7.81895 12.2966 8.16569 12.7178L10.7237 15.8256L15.8746 10.2992C16.2451 9.90169 16.8473 9.90006 17.2197 10.2956Z" fill="#007EF4"/>
</svg>
