<svg width="16" height="16" viewBox="0 0 16 16" fill="none" xmlns="http://www.w3.org/2000/svg">
<path fill-rule="evenodd" clip-rule="evenodd" d="M7.33298 6.09096L4.4938 9.22572C4.24663 9.49862 3.82504 9.51948 3.55214 9.27231C3.27925 9.02514 3.25839 8.60354 3.50556 8.33064L7.03413 4.43472C7.5591 3.85509 8.4402 3.85509 8.96517 4.43472L12.4937 8.33064C12.7409 8.60354 12.7201 9.02514 12.4472 9.27231C12.1743 9.51947 11.7527 9.49862 11.5055 9.22572L8.66632 6.09096L8.66632 14C8.66632 14.3682 8.36784 14.6667 7.99965 14.6667C7.63146 14.6667 7.33298 14.3682 7.33298 14L7.33298 6.09096Z" fill="#191E26"/>
<path fill-rule="evenodd" clip-rule="evenodd" d="M3 2.00005C3 1.63185 3.29848 1.33337 3.66667 1.33337H12.3333C12.7015 1.33337 12.9999 1.63185 12.9999 2.00005C12.9999 2.36824 12.7015 2.66672 12.3333 2.66672H3.66667C3.29848 2.66672 3 2.36824 3 2.00005Z" fill="#191E26"/>
</svg>
