<svg width="24" height="28" viewBox="0 0 24 28" fill="none" xmlns="http://www.w3.org/2000/svg">
<path fill-rule="evenodd" clip-rule="evenodd" d="M11.9994 4.79995C10.0416 4.79995 8.16402 5.57768 6.77966 6.96204C5.3953 8.34639 4.61758 10.224 4.61758 12.1818C4.61758 14.4159 5.75113 16.5977 7.23468 18.4808C8.70813 20.351 10.4532 21.8332 11.5123 22.6524C11.8072 22.8805 12.2105 22.8859 12.5168 22.6603C14.2264 21.4011 15.9571 19.7957 17.2537 17.9835C18.5521 16.169 19.3812 14.1961 19.3812 12.1818C19.3812 10.224 18.6035 8.3464 17.2191 6.96204C15.8348 5.57768 13.9572 4.79995 11.9994 4.79995ZM5.64829 5.83066C7.33271 4.14625 9.61727 3.19995 11.9994 3.19995C14.3815 3.19995 16.6661 4.14625 18.3505 5.83066C20.0349 7.51508 20.9812 9.79964 20.9812 12.1818C20.9812 14.6389 19.9729 16.9329 18.5549 18.9146C17.1353 20.8987 15.271 22.6188 13.4657 23.9486C12.59 24.5936 11.3996 24.5881 10.5334 23.918C9.42194 23.0583 7.56443 21.4847 5.97787 19.4709C4.40141 17.47 3.01758 14.9396 3.01758 12.1818C3.01758 9.79964 3.96387 7.51508 5.64829 5.83066Z" fill="#191E26"/>
<path fill-rule="evenodd" clip-rule="evenodd" d="M11.999 10.2547C10.9345 10.2547 10.0717 11.1175 10.0717 12.1819C10.0717 13.2463 10.9345 14.1092 11.999 14.1092C13.0634 14.1092 13.9262 13.2463 13.9262 12.1819C13.9262 11.1175 13.0634 10.2547 11.999 10.2547ZM8.47168 12.1819C8.47168 10.2339 10.0509 8.65466 11.999 8.65466C13.947 8.65466 15.5262 10.2339 15.5262 12.1819C15.5262 14.13 13.947 15.7092 11.999 15.7092C10.0509 15.7092 8.47168 14.13 8.47168 12.1819Z" fill="#007EF4"/>
</svg>
