<svg width="24" height="28" viewBox="0 0 24 28" fill="none" xmlns="http://www.w3.org/2000/svg">
<path fill-rule="evenodd" clip-rule="evenodd" d="M3.39551 11.7614C3.39551 7.03303 7.22859 3.19995 11.9569 3.19995C16.6853 3.19995 20.5184 7.03303 20.5184 11.7614V12.4641C20.5184 12.906 20.1602 13.2641 19.7184 13.2641C19.2765 13.2641 18.9184 12.906 18.9184 12.4641V11.7614C18.9184 7.91669 15.8016 4.79995 11.9569 4.79995C8.11225 4.79995 4.99551 7.91669 4.99551 11.7614V12.4641C4.99551 12.906 4.63734 13.2641 4.19551 13.2641C3.75368 13.2641 3.39551 12.906 3.39551 12.4641V11.7614Z" fill="#191E26"/>
<path fill-rule="evenodd" clip-rule="evenodd" d="M11.0889 23.9998C11.0889 24.4416 11.447 24.7998 11.8889 24.7998C15.0399 24.7998 17.811 23.1754 19.4112 20.722C19.6525 20.3519 19.5482 19.8563 19.1781 19.6149C18.8081 19.3735 18.3124 19.4778 18.071 19.8479C16.7537 21.8676 14.4766 23.1998 11.8889 23.1998C11.447 23.1998 11.0889 23.558 11.0889 23.9998Z" fill="#191E26"/>
<path fill-rule="evenodd" clip-rule="evenodd" d="M1.38379 15.3255C1.38379 13.7252 2.68113 12.4279 4.28147 12.4279C5.88182 12.4279 7.17916 13.7252 7.17916 15.3255V17.4232C7.17916 19.0236 5.88182 20.3209 4.28147 20.3209C2.68113 20.3209 1.38379 19.0236 1.38379 17.4232V15.3255ZM4.28147 14.0279C3.56478 14.0279 2.98379 14.6089 2.98379 15.3255V17.4232C2.98379 18.1399 3.56478 18.7209 4.28147 18.7209C4.99816 18.7209 5.57916 18.1399 5.57916 17.4232V15.3255C5.57916 14.6088 4.99816 14.0279 4.28147 14.0279Z" fill="#007EF4"/>
<path fill-rule="evenodd" clip-rule="evenodd" d="M16.8203 15.3255C16.8203 13.7252 18.1176 12.4279 19.718 12.4279C21.3183 12.4279 22.6157 13.7252 22.6157 15.3255V17.4232C22.6157 19.0236 21.3183 20.3209 19.718 20.3209C18.1177 20.3209 16.8203 19.0236 16.8203 17.4232V15.3255ZM19.718 14.0279C19.0013 14.0279 18.4203 14.6089 18.4203 15.3255V17.4232C18.4203 18.1399 19.0013 18.7209 19.718 18.7209C20.4347 18.7209 21.0157 18.1399 21.0157 17.4232V15.3255C21.0157 14.6088 20.4347 14.0279 19.718 14.0279Z" fill="#007EF4"/>
</svg>
